<svg id="Calque_1" data-name="Calque 1" xmlns="http://www.w3.org/2000/svg" viewBox="0 0 80.17 79.16"><defs><style>.cls-1{fill:#2c9d8f;}.cls-2{fill:#f5a362;}.cls-3{fill:#eac56a;}.cls-4{fill:#e86f51;}</style></defs><path id="Fond_Gauche" data-name="Fond Gauche" class="cls-1" d="M80.17,16.86l-.32-3.25a16.86,16.86,0,0,0-33.08,0l-.32,3.25V33.71H63.31A16.85,16.85,0,0,0,80.17,16.86ZM63.31,10.35a6.51,6.51,0,0,1,0,13h-6.5v-6.5A6.5,6.5,0,0,1,63.31,10.35Z"/><path id="Fond_Gauche-2" data-name="Fond Gauche" class="cls-2" d="M63.31,79.16l3.25-.32a16.86,16.86,0,0,0,0-33.08l-3.25-.32H46.45V62.3A16.86,16.86,0,0,0,63.31,79.16Zm6.5-16.86a6.5,6.5,0,0,1-13,0V55.8h6.5A6.5,6.5,0,0,1,69.81,62.3Z"/><path id="Fond_Gauche-3" data-name="Fond Gauche" class="cls-3" d="M0,62.3l.32,3.25a16.86,16.86,0,0,0,33.08,0l.31-3.25V45.44H16.86A16.86,16.86,0,0,0,0,62.3Zm16.86,6.5a6.5,6.5,0,1,1,0-13h6.5v6.5A6.5,6.5,0,0,1,16.86,68.8Z"/><path id="Fond_Gauche-4" data-name="Fond Gauche" class="cls-4" d="M16.86.34,13.61.65a16.86,16.86,0,0,0,0,33.09l3.25.31H33.71V17.19A16.84,16.84,0,0,0,16.86.34Zm-6.5,16.85a6.5,6.5,0,0,1,13,0V23.7h-6.5A6.51,6.51,0,0,1,10.36,17.19Z"/></svg>