<svg width="150" height="150" viewBox="0 0 150 150" fill="none" xmlns="http://www.w3.org/2000/svg">
<path d="M149.992 74.3165L149.988 74.0176C149.965 72.1187 148.469 70.565 146.573 70.4693C141.222 70.1992 136.498 67.002 134.245 62.1264C133.797 61.1573 132.942 60.4371 131.911 60.1605C130.879 59.8839 129.779 60.0799 128.906 60.6954C126.494 62.3969 123.536 63.3339 120.58 63.3343C118.075 63.3343 115.595 62.6674 113.409 61.4051C108.568 58.6101 105.768 53.2025 106.276 47.6283C106.372 46.5649 105.992 45.5135 105.237 44.7588C104.481 44.0034 103.426 43.6242 102.367 43.7195C101.937 43.7588 101.5 43.7785 101.067 43.7785C95.9332 43.7785 91.1525 41.0224 88.591 36.5856C85.7959 31.7445 86.0751 25.6613 89.3018 21.0875C89.9173 20.2151 90.1137 19.1144 89.837 18.0831C89.5608 17.0518 88.8406 16.1964 87.8715 15.7485C82.998 13.4959 79.8016 8.77463 79.53 3.42668C79.4336 1.53132 77.8814 0.0366914 75.9838 0.0122305L75.6903 0.0075541C75.4608 0.00359719 75.2306 0 75 0C33.6447 0 0 33.6449 0 75C0 116.355 33.6447 150 75 150C116.355 150 150 116.355 150 75C150 74.7716 149.996 74.5442 149.992 74.3165ZM22.4513 32.2003C24.1509 33.6758 25.1718 35.8309 25.1718 38.1702C25.1718 42.5339 21.6217 46.084 17.258 46.084C16.1266 46.084 15.027 45.8361 14.0165 45.3811C16.3213 40.6555 19.1584 36.2356 22.4513 32.2003ZM131.214 112.873C129.079 111.428 127.716 108.984 127.716 106.314C127.716 101.95 131.266 98.4001 135.63 98.4001C136.61 98.4001 137.557 98.5803 138.445 98.9195C136.572 103.871 134.137 108.549 131.214 112.873ZM140.632 92.0615C139.169 91.5478 137.627 91.2604 136.065 91.2147C135.92 91.2104 135.775 91.2053 135.63 91.2053C135.435 91.2053 135.242 91.2158 135.049 91.223C130.249 91.4061 126.016 93.8345 123.376 97.4911C121.582 99.9753 120.521 103.022 120.521 106.314C120.521 111.274 122.985 115.83 126.874 118.613C123.517 122.6 119.703 126.186 115.525 129.311C115.229 129.533 114.937 129.758 114.638 129.974C103.482 138.042 89.7881 142.805 74.9993 142.805C37.6117 142.805 7.19406 112.388 7.19406 75C7.19406 69.1452 7.94408 63.4627 9.34627 58.04C9.87254 56.005 10.488 54.0057 11.1938 52.0488C11.1981 52.0373 11.2017 52.0255 11.206 52.0136C11.2111 52.0157 11.2165 52.0175 11.2219 52.0201C13.1075 52.8427 15.1565 53.2784 17.258 53.2784C20.2404 53.2784 23.0211 52.406 25.3657 50.9085C29.5701 48.2229 32.3662 43.5185 32.3662 38.1702C32.3662 33.9913 30.6637 30.1171 27.7866 27.3286C27.6244 27.1714 27.4607 27.016 27.2913 26.866C39.0657 15.1945 55.0833 7.79763 72.7967 7.22928C73.9324 12.5398 77.0285 17.21 81.4685 20.3295C78.5677 26.6228 78.8278 34.0632 82.3606 40.1824C85.8754 46.2707 92.1731 50.2492 99.1117 50.8834C99.7452 57.7856 103.691 64.1019 109.811 67.6355C113.09 69.5283 116.814 70.5287 120.58 70.5283C123.753 70.528 126.836 69.8459 129.666 68.534C132.787 72.9741 137.458 76.0691 142.769 77.204C142.606 82.3181 141.873 87.2912 140.632 92.0615Z" fill="black"/>
</svg>
