<svg width="150" height="150" viewBox="0 0 150 150" fill="none" xmlns="http://www.w3.org/2000/svg">
<path d="M123.971 73.4977C121.162 74.7999 118.102 75.4765 114.954 75.4772C111.215 75.4776 107.52 74.4848 104.266 72.606C98.1917 69.0991 94.2758 62.8306 93.647 55.9805C86.7609 55.3513 80.5107 51.4027 77.0221 45.3605C73.516 39.2877 73.2577 31.9034 76.1365 25.6576C71.7296 22.5615 68.6572 17.9269 67.5298 12.6562C52.5302 13.1376 38.7586 18.5553 27.78 27.3292C30.6567 30.1177 32.3596 33.9919 32.3596 38.1708C32.3596 43.5191 29.5638 48.2235 25.359 50.9091C23.0144 52.4067 20.2337 53.279 17.2513 53.279C15.1502 53.279 13.1008 52.8434 11.2152 52.0207C11.2058 52.0304 11.1965 52.0397 11.1871 52.0495C10.4813 54.006 9.86587 56.0053 9.33959 58.0406C7.93812 63.4626 7.18774 69.1447 7.18774 74.9999C7.18774 112.388 37.6054 142.806 74.9933 142.806C89.7822 142.806 103.476 138.042 114.632 129.974C114.867 129.763 115.169 129.541 115.519 129.312C119.697 126.186 123.511 122.6 126.868 118.614C122.979 115.83 120.515 111.275 120.515 106.314C120.515 103.022 121.576 99.9759 123.37 97.4913C126.01 93.8351 130.243 91.4063 135.043 91.2232C135.231 91.2128 135.423 91.2056 135.624 91.2056C135.769 91.2056 135.914 91.2106 136.059 91.215C136.565 88.2383 136.876 85.1968 136.976 82.1022C131.704 80.9759 127.068 77.9043 123.971 73.4977ZM47.633 120.459C42.9231 120.459 38.7108 118.292 35.9377 114.904C33.702 112.269 32.3491 108.862 32.3491 105.144C32.3491 96.8133 39.1266 90.0358 47.4574 90.0358C52.1672 90.0358 56.3799 92.2031 59.1527 95.5917C61.3883 98.2266 62.7412 101.633 62.7412 105.351C62.7412 113.682 55.9641 120.459 47.633 120.459ZM57.6185 66.076C52.9086 66.076 48.6963 63.9087 45.9232 60.5201C43.6875 57.8852 42.3346 54.4786 42.3346 50.7606C42.3346 42.4298 49.1121 35.6524 57.4429 35.6524C62.1527 35.6524 66.3651 37.8197 69.1382 41.2082C71.3738 43.8432 72.7267 47.2497 72.7267 50.9678C72.7267 59.2982 65.9496 66.076 57.6185 66.076ZM88.8311 113.252C82.7827 113.252 77.3722 110.473 73.8066 106.124C70.9544 102.743 69.2306 98.3795 69.2306 93.6197C69.2306 82.9087 77.9448 74.1948 88.6555 74.1948C94.7039 74.1948 100.114 76.9744 103.68 81.3227C106.532 84.7044 108.256 89.0674 108.256 93.8272C108.256 104.538 99.5418 113.252 88.8311 113.252Z" fill="#D4B783"/>
<path d="M57.4429 58.6743C61.8067 58.6743 65.3568 55.1243 65.3568 50.7605C65.3568 46.3967 61.8067 42.8467 57.4429 42.8467C53.0791 42.8467 49.5291 46.3967 49.5291 50.7605C49.5291 55.1243 53.0795 58.6743 57.4429 58.6743Z" fill="#89634A"/>
<path d="M47.4583 113.056C51.8221 113.056 55.3722 109.506 55.3722 105.142C55.3722 100.779 51.8221 97.2285 47.4583 97.2285C43.0945 97.2285 39.5444 100.779 39.5444 105.142C39.5444 109.506 43.0945 113.056 47.4583 113.056Z" fill="#89634A"/>
<path d="M25.1655 38.175C25.1655 35.8357 24.1447 33.6806 22.445 32.2051C19.1521 36.2404 16.315 40.6603 14.0103 45.3863C15.0207 45.8413 16.1204 46.0892 17.2517 46.0892C21.6155 46.0888 25.1655 42.5387 25.1655 38.175Z" fill="#89634A"/>
<path d="M127.711 106.314C127.711 108.984 129.074 111.429 131.209 112.873C134.131 108.55 136.566 103.872 138.439 98.9198C137.551 98.5806 136.604 98.4004 135.624 98.4004C131.261 98.4004 127.711 101.95 127.711 106.314Z" fill="#89634A"/>
<path d="M88.6561 105.855C95.4001 105.855 100.887 100.369 100.887 93.625C100.887 86.881 95.4001 81.3945 88.6561 81.3945C81.912 81.3945 76.4255 86.881 76.4255 93.625C76.4255 100.369 81.912 105.855 88.6561 105.855Z" fill="#89634A"/>
<path d="M69.1388 41.2129C71.2705 43.818 72.5518 47.1443 72.5518 50.7652C72.5518 59.096 65.7743 65.8734 57.4435 65.8734C52.8312 65.8734 48.6973 63.7935 45.9238 60.5248C48.6966 63.9133 52.9093 66.0806 57.6191 66.0806C65.9499 66.0806 72.7274 59.3032 72.7274 50.9724C72.7274 47.2544 71.3748 43.8478 69.1388 41.2129Z" fill="#89634A"/>
<path d="M62.567 105.14C62.567 113.471 55.7895 120.248 47.4587 120.248C42.8463 120.248 38.7124 118.169 35.939 114.9C38.7121 118.288 42.9244 120.456 47.6342 120.456C55.965 120.456 62.7425 113.678 62.7425 105.347C62.7425 101.629 61.3896 98.2228 59.1539 95.5879C61.2853 98.193 62.567 101.519 62.567 105.14Z" fill="#89634A"/>
<path d="M108.081 93.6173C108.081 104.328 99.3668 113.042 88.6561 113.042C82.7052 113.042 77.3734 110.35 73.8071 106.122C77.3723 110.47 82.7829 113.25 88.8316 113.25C99.5423 113.25 108.257 104.536 108.257 93.8249C108.257 89.0651 106.533 84.702 103.681 81.3203C106.429 84.6718 108.081 88.9546 108.081 93.6173Z" fill="#89634A"/>
<path d="M57.4432 65.8629C65.774 65.8629 72.5515 59.0854 72.5515 50.7547C72.5515 47.1337 71.2702 43.8074 69.1385 41.2023C66.3658 37.8138 62.1534 35.6465 57.4432 35.6465C49.1125 35.6465 42.335 42.4239 42.335 50.7547C42.335 54.4731 43.6879 57.8793 45.9235 60.5142C48.6973 63.783 52.8309 65.8629 57.4432 65.8629ZM57.4432 42.8409C61.807 42.8409 65.3571 46.3909 65.3571 50.7547C65.3571 55.1184 61.807 58.6685 57.4432 58.6685C53.0795 58.6685 49.5294 55.1184 49.5294 50.7547C49.5294 46.3909 53.0798 42.8409 57.4432 42.8409Z" fill="black"/>
<path d="M47.4584 120.253C55.7892 120.253 62.5667 113.476 62.5667 105.145C62.5667 101.524 61.2853 98.198 59.1536 95.593C56.3809 92.2044 52.1682 90.0371 47.4584 90.0371C39.1276 90.0371 32.3501 96.8146 32.3501 105.145C32.3501 108.864 33.703 112.27 35.9387 114.905C38.7121 118.174 42.8457 120.253 47.4584 120.253ZM47.4584 97.2315C51.8222 97.2315 55.3722 100.782 55.3722 105.145C55.3722 109.509 51.8222 113.059 47.4584 113.059C43.0946 113.059 39.5445 109.509 39.5445 105.145C39.5445 100.782 43.0946 97.2315 47.4584 97.2315Z" fill="black"/>
<path d="M149.992 74.3165L149.988 74.0176C149.965 72.1187 148.469 70.565 146.573 70.4693C141.222 70.1992 136.498 67.002 134.245 62.1264C133.797 61.1573 132.942 60.4371 131.911 60.1605C130.879 59.8839 129.779 60.0799 128.906 60.6954C126.494 62.3969 123.536 63.3339 120.58 63.3343C118.075 63.3343 115.595 62.6674 113.409 61.4051C108.568 58.6101 105.768 53.2025 106.276 47.6283C106.372 46.5649 105.992 45.5135 105.237 44.7588C104.481 44.0034 103.426 43.6242 102.367 43.7195C101.937 43.7588 101.5 43.7785 101.067 43.7785C95.9332 43.7785 91.1525 41.0224 88.591 36.5856C85.7959 31.7445 86.0751 25.6613 89.3018 21.0875C89.9173 20.2151 90.1137 19.1144 89.837 18.0831C89.5608 17.0518 88.8406 16.1964 87.8715 15.7485C82.998 13.4959 79.8016 8.77463 79.53 3.42668C79.4336 1.53132 77.8814 0.0366914 75.9838 0.0122305L75.6903 0.0075541C75.4608 0.00359719 75.2306 0 75 0C33.6447 0 0 33.6449 0 75C0 116.355 33.6447 150 75 150C116.355 150 150 116.355 150 75C150 74.7716 149.996 74.5442 149.992 74.3165ZM22.4513 32.2003C24.1509 33.6758 25.1718 35.8309 25.1718 38.1702C25.1718 42.5339 21.6217 46.084 17.258 46.084C16.1266 46.084 15.027 45.8361 14.0165 45.3811C16.3213 40.6555 19.1584 36.2356 22.4513 32.2003ZM131.214 112.873C129.079 111.428 127.716 108.984 127.716 106.314C127.716 101.95 131.266 98.4001 135.63 98.4001C136.61 98.4001 137.557 98.5803 138.445 98.9195C136.572 103.871 134.137 108.549 131.214 112.873ZM140.632 92.0615C139.169 91.5478 137.627 91.2604 136.065 91.2147C135.92 91.2104 135.775 91.2053 135.63 91.2053C135.435 91.2053 135.242 91.2158 135.049 91.223C130.249 91.4061 126.016 93.8345 123.376 97.4911C121.582 99.9753 120.521 103.022 120.521 106.314C120.521 111.274 122.985 115.83 126.874 118.613C123.517 122.6 119.703 126.186 115.525 129.311C115.229 129.533 114.937 129.758 114.638 129.974C103.482 138.042 89.7881 142.805 74.9993 142.805C37.6117 142.805 7.19406 112.388 7.19406 75C7.19406 69.1452 7.94408 63.4627 9.34627 58.04C9.87254 56.005 10.488 54.0057 11.1938 52.0488C11.1981 52.0373 11.2017 52.0255 11.206 52.0136C11.2111 52.0157 11.2165 52.0175 11.2219 52.0201C13.1075 52.8427 15.1565 53.2784 17.258 53.2784C20.2404 53.2784 23.0211 52.406 25.3657 50.9085C29.5701 48.2229 32.3662 43.5185 32.3662 38.1702C32.3662 33.9913 30.6637 30.1171 27.7866 27.3286C27.6244 27.1714 27.4607 27.016 27.2913 26.866C39.0657 15.1945 55.0833 7.79763 72.7967 7.22928C73.9324 12.5398 77.0285 17.21 81.4685 20.3295C78.5677 26.6228 78.8278 34.0632 82.3606 40.1824C85.8754 46.2707 92.1731 50.2492 99.1117 50.8834C99.7452 57.7856 103.691 64.1019 109.811 67.6355C113.09 69.5283 116.814 70.5287 120.58 70.5283C123.753 70.528 126.836 69.8459 129.666 68.534C132.787 72.9741 137.458 76.0691 142.769 77.204C142.606 82.3181 141.873 87.2912 140.632 92.0615Z" fill="black"/>
<path d="M88.6561 113.044C99.3668 113.044 108.081 104.33 108.081 93.6192C108.081 88.9569 106.429 84.6737 103.681 81.3222C100.115 76.9742 94.7048 74.1943 88.6561 74.1943C77.9454 74.1943 69.2312 82.9082 69.2312 93.6192C69.2312 98.379 70.955 102.742 73.8072 106.124C77.3735 110.352 82.7053 113.044 88.6561 113.044ZM88.6561 81.3887C95.4002 81.3887 100.887 86.8752 100.887 93.6192C100.887 100.363 95.4002 105.85 88.6561 105.85C81.9121 105.85 76.4256 100.363 76.4256 93.6192C76.4256 86.8752 81.9121 81.3887 88.6561 81.3887Z" fill="black"/>
</svg>



