<svg xmlns="http://www.w3.org/2000/svg" width="151" height="151" viewBox="0 0 151 151" fill="none"><style>.a{fill:white;}</style><path d="M23.7 150C21.7 147.3 19.6 144.6 17.5 141.8 14.5 137.7 11.6 133.7 8.7 129.6 7.9 128.6 7.3 127.5 6.7 126.7 7 126.3 7.1 126 7.3 125.8 7.9 125.1 8 124.4 7.7 123.6 7.7 123.5 7.7 123.4 7.8 123.3 7.9 123.1 8.2 122.8 8.2 122.7 8 122.3 7.8 121.8 7.5 121.5 5.8 119.9 4.4 118.1 3.3 116 3.1 115.7 3 115.3 2.8 114.9 2.6 114.4 2.5 113.8 3 113.5 3.5 113.2 4.1 112.9 4.6 113 5.2 113.2 5.8 113.6 6.3 114.1 7.9 115.9 9 117.9 9.6 120.3 9.9 121.5 10.1 121.6 11.3 121.7 11.5 121.7 11.8 121.7 11.9 121.8 12.5 122.1 13 122.5 13.7 122.3 13.9 122.2 14.2 122.4 14.3 122.5 15.2 123.7 16.1 125 17.1 126.2 21.9 132 26.4 137.9 30.4 144.2 30.8 144.9 31.2 145.7 31.5 146.4 31.6 146.5 31.6 146.7 31.6 146.9 31.4 146.8 31.1 146.7 31 146.5 30 145.1 29 143.7 28.1 142.3 27.8 141.8 27.5 141.3 27.1 140.8 25.8 141.7 24.3 142.4 22.7 142.6 23.8 141.4 25.5 141 26.6 139.9 26.5 139.8 26.5 139.8 26.5 139.7 26.2 139.8 26 139.8 25.8 139.9 24.7 140.6 23.5 141.1 22.2 141.3 22.2 141.3 22.2 141.2 22.1 141.1 23.4 140.4 24.6 139.7 25.9 139 25.8 138.8 25.7 138.6 25.6 138.5 24.2 139 22.9 139.6 21.5 140.1 21.5 140 21.4 139.9 21.4 139.8 22.6 139.2 23.9 138.6 25.2 138 25 137.5 24.9 137.2 24.2 137.5 23.3 138 22.2 138.5 21.2 138.9 21.2 138.9 21.2 138.8 21.2 138.7 22.3 138.2 23.4 137.6 24.6 137 24.4 136.7 24.2 136.5 24.1 136.3 22.9 136.9 21.8 137.6 20.5 137.6 20.5 137.5 20.4 137.5 20.4 137.4 21.5 136.9 22.5 136.3 23.7 135.7 23.5 135.4 23.3 135.2 23.2 135 22.1 135.5 21 135.9 20 136.3 19.9 136.3 19.9 136.2 19.9 136.1 20.8 135.6 21.8 135.1 22.8 134.5 22 133.4 21.2 132.4 20.4 131.3 18.3 128.6 16.2 125.8 14.1 123.1 13.9 122.8 13.7 122.6 13.3 122.7 11.7 123.1 10.3 124 9 125 8.4 125.6 7.8 126.1 7.2 126.7 7.9 127.8 8.7 128.9 9.4 129.9 13.2 134.9 16.9 139.8 20.7 144.8 21.6 146 22.5 147.2 23.5 148.3 23.9 148.9 24.2 149.4 24.6 150 24.3 150 24 150 23.7 150ZM9.3 121.6C9.1 121.2 8.9 120.8 8.7 120.4 8.1 118.9 7.5 117.3 6.7 115.9 6.3 115.1 5.6 114.5 5 113.9 4.7 113.6 4.1 113.6 3.8 113.7 3.2 113.9 3.5 114.5 3.7 114.8 4.4 116.1 5.1 117.4 6 118.7 6.8 119.8 7.8 120.8 8.8 122 8.9 121.9 9.1 121.8 9.3 121.6ZM11.8 122.5C11.4 122.2 10.9 122.1 10.4 122.4 9.9 122.8 9.3 123.1 8.7 123.4 8.2 123.7 8.3 123.7 8.4 124.3 9.5 123.7 10.6 123.1 11.8 122.5Z" class="a"/><path d="M98.8 150C96.5 147 94.2 143.9 91.9 140.9 89.2 137.1 86.4 133.4 83.7 129.6 83 128.6 82.3 127.6 81.7 126.6 82.2 126.2 82.9 124.8 82.8 124.2 82.8 123.7 82.6 123.1 83.4 122.8 82.9 122.1 82.4 121.4 81.9 120.9 80.2 119.1 78.8 117.2 77.9 114.9 77.4 113.8 78.1 112.8 79.3 113 79.8 113 80.3 113.1 80.6 113.4 81.3 114.2 82 115 82.7 115.9 83.6 117.2 84.2 118.7 84.6 120.3 84.9 121.4 85.2 121.6 86.4 121.7 86.6 121.7 86.8 121.7 86.9 121.8 87.5 122.1 88 122.5 88.7 122.3 88.9 122.2 89.2 122.4 89.3 122.5 90.3 123.8 91.2 125.1 92.2 126.3 97 132.1 101.5 138 105.4 144.3 105.9 145 106.3 145.8 106.6 146.6 106.7 146.7 106.7 146.8 106.7 147.1 104.5 145.3 103.6 142.8 102.1 140.8 100.8 141.8 99.4 142.4 97.8 142.7 97.7 142.6 97.7 142.5 97.6 142.5 99 141.6 100.3 140.8 101.6 140 101.6 139.9 101.5 139.8 101.5 139.7 101.3 139.8 101 139.8 100.8 140 99.7 140.7 98.6 141.1 97.3 141.3 97.3 141.3 97.2 141.2 97.2 141.1 98.4 140.4 99.6 139.8 100.9 139 100.8 138.8 100.7 138.7 100.7 138.5 99.3 139.1 97.9 139.6 96.5 140.1 96.5 140 96.5 139.9 96.4 139.8 97.7 139.2 98.9 138.6 100.2 138 100.1 137.4 99.8 137.3 99.2 137.6 98.3 138.1 97.3 138.5 96.3 139 96.3 138.9 96.2 138.8 96.2 138.8 97.3 138.2 98.4 137.6 99.6 137 99.4 136.8 99.3 136.6 99.1 136.4 98.5 136.7 97.9 137 97.3 137.2 96.8 137.5 96.1 137.6 95.5 137.7 95.5 137.7 95.5 137.6 95.4 137.5 96.5 136.9 97.6 136.4 98.7 135.8 98.5 135.5 98.4 135.3 98.2 135.1 97.1 135.5 96 136 95 136.4 94.9 136.3 94.9 136.3 94.9 136.2 95.9 135.7 96.8 135.2 97.9 134.6 97 133.5 96.2 132.4 95.4 131.3 93.3 128.6 91.2 125.9 89.1 123.1 88.9 122.8 88.7 122.7 88.3 122.8 86.7 123.2 85.4 124 84.1 125.1 83.5 125.6 82.9 126.2 82.2 126.8 82.9 127.8 83.6 128.9 84.4 129.9 88.4 135.2 92.4 140.5 96.4 145.8 97.1 146.7 97.8 147.5 98.5 148.4 98.9 148.9 99.2 149.5 99.6 150.1 99.3 150 99 150 98.8 150ZM84.3 121.7C84.1 121.2 83.9 120.7 83.7 120.3 83.1 118.9 82.5 117.4 81.7 116 81.3 115.2 80.7 114.5 80 113.8 79.7 113.6 79.1 113.7 78.7 113.8 78.6 113.8 78.5 114.5 78.7 114.8 79.3 116 79.9 117.2 80.7 118.3 81.6 119.6 82.7 120.7 83.8 122 83.9 121.9 84.1 121.8 84.3 121.7ZM83.3 124.4C84.5 123.7 85.7 123.1 86.8 122.5 86.1 121.8 85.4 122.3 84.8 122.7 84.3 123.1 83.3 123.2 83.3 124.4Z" class="a"/><path d="M116.5 150C118.7 148.6 120.8 147.1 122.9 145.7 125.7 143.9 128.6 142.3 131.4 140.6 132.7 139.7 134 138.8 135.3 137.9 136.4 137.3 137.5 136.8 138.6 136.2 138.7 136.2 138.8 136.1 138.8 136 139.5 134.4 140.9 134.4 142.3 134.2 142.9 134.1 143.5 134 144.1 133.9 145.2 133.7 146 133.1 146.4 132 146.5 131.8 146.7 131.7 146.9 131.5 147 131.7 147.2 131.9 147.2 132.1 147.5 134.5 146.7 136.3 144.5 137.3 143.5 137.8 142.3 137.9 141.2 138 140.4 138.1 139.7 138.3 139 138.9 137.8 140.3 136.1 141 134.3 141.3 134.1 141.4 133.9 141.5 133.6 141.7 133.5 141.5 133.4 141.3 133.3 141 133.3 140.7 133.1 140.6 132.8 140.8 130.9 142 129 143.2 127.1 144.4 124.3 146.2 121.4 148 118.6 149.8 118.5 149.8 118.4 149.9 118.3 150 117.7 150 117.1 150 116.5 150ZM144.6 135.6C143.8 135.5 143.4 135.5 142.9 135.4 142.7 135.4 142.6 135 142.4 135 141.4 135 140.5 135.2 139.6 135.8 139.5 135.9 139.3 136.2 139.4 136.3 139.6 136.7 139.9 137.2 140.2 137.2 141 137.3 141.7 137 142.4 136.9 142.4 136.9 142.3 136.8 142.3 136.7 142.3 136.7 142.4 136.6 142.4 136.5 143.1 136.2 143.7 135.9 144.6 135.6Z" class="a"/><path d="M41.5 150C43.8 148.5 46.1 146.9 48.4 145.4 50.8 143.8 53.3 142.4 55.8 140.9 56.2 140.7 56.7 140.5 57.1 140.3 57.5 140 57.7 139.6 58.1 139.4 59.9 138.3 61.7 137.3 63.6 136.2 63.7 136.2 63.8 136.1 63.8 136 64.5 134.4 65.9 134.4 67.3 134.2 67.9 134.1 68.6 134 69.2 133.9 70.3 133.7 71 133 71.4 132 71.5 131.8 71.7 131.7 71.9 131.6 72 131.7 72.2 131.9 72.2 132.1 72.6 135 71.3 136.5 69 137.6 68.1 138 67.1 138 66.1 138.1 65.3 138.1 64.7 138.3 64.1 138.9 62.8 140.3 61.2 141 59.3 141.3 59.1 141.4 58.9 141.6 58.6 141.7 58.5 141.6 58.4 141.4 58.4 141.3 58.1 140.5 58.2 140.6 57.5 141.1 56.4 141.9 55.2 142.6 54 143.3 50.5 145.4 47.1 147.6 43.7 149.7 43.5 149.8 43.4 149.9 43.3 150 42.7 150 42.1 150 41.5 150ZM67.5 134.8C66.6 135.1 65.7 135.3 64.9 135.6 64.4 135.8 64.2 136.1 64.6 136.7 65 137.2 65.3 137.3 65.9 137.2 66.4 137 66.9 137 67.4 136.9 67.5 136.9 67.5 136.9 67.5 136.9 67.4 136.8 67.3 136.8 67.1 136.7 67.9 136.3 68.7 136 69.4 135.6 68 135.6 67.7 135.6 67.5 134.8Z" class="a"/><path d="M131.5 150C131.4 149.8 131.2 149.5 131 149.3 130.9 149.4 130.7 149.5 130.5 149.6 130.5 149.6 130.4 149.5 130.4 149.5 130.6 149.3 130.7 149.1 130.9 148.9 132.9 147.3 134.9 145.7 137 144.2 138 143.4 139.1 142.7 140.1 141.9 140.4 141.6 140.7 141.6 140.9 142 141.5 142.9 142.1 143.8 142.5 144.8 142.6 145 142.3 145.5 142 145.8 140.9 146.9 139.8 148 138.6 149.1 138.3 149.4 138 149.7 137.6 150 135.6 150 133.6 150 131.5 150Z" class="a"/><path d="M56.5 150C56.4 149.8 56.2 149.5 56 149.2 55.8 149.4 55.7 149.5 55.5 149.6 55.5 149.6 55.4 149.5 55.4 149.5 55.7 149.2 55.9 148.8 56.3 148.6 58.5 146.8 60.7 145.1 63 143.4 63.7 142.9 64.4 142.4 65.1 141.9 65.4 141.7 65.6 141.6 65.8 141.9 66.4 142.9 67 143.8 67.5 144.8 67.6 144.9 67.4 145.3 67.3 145.5 65.8 146.9 64.3 148.4 62.8 149.8 62.8 149.9 62.7 149.9 62.6 150 60.6 150 58.6 150 56.5 150Z" class="a"/><path d="M137.5 0C136.6 0.6 135.8 1.3 134.9 1.9 134.8 2 134.4 1.9 134.3 1.8 133.1 1.3 132.6 1.5 132 2.6 132.5 3.2 133.1 3.7 133.6 4.3 134.1 4.8 134 5.3 133.6 5.8 132.1 7.7 130.3 9.3 128.3 10.6 125 12.9 121.5 15.1 118 17.2 116.8 18 115.3 18.2 114 18.6 113.4 18.7 113.2 18.4 113.5 17.9 114.1 16.7 114.7 15.6 115.5 14.5 118.6 10 122.2 6 126.4 2.6 127.4 1.7 128.5 1 129.6 0.3 129.7 0.2 129.9 0.2 130 0.2 123.6 5.3 117.8 11 113.6 18.3 115.2 18 116.6 17.6 117.9 16.9 122.3 14.3 126.4 11.5 130.3 8.2 131.4 7.2 132.5 6.2 133.7 5.1 133.1 4.5 132.5 3.9 131.9 3.4 131.3 2.9 131.2 2.6 131.7 2 132.1 1.6 132.6 1.3 133 0.9 132.6 0.6 132.1 0.3 131.7 0 133.6 0 135.6 0 137.5 0Z" class="a"/><path d="M62.6 0C61.8 0.6 60.9 1.3 60 1.9 59.8 2 59.3 1.8 59 1.6 58.4 1.3 57.2 1.9 57.1 2.5 57.1 2.6 57.3 2.8 57.4 2.9 57.9 3.5 58.4 4 58.9 4.5 59.2 4.9 59.2 5.3 58.8 5.7 57.4 7.1 56.1 8.5 54.7 9.7 51.1 12.6 47.2 15.1 43.1 17.3 41.9 17.9 40.5 18.2 39.1 18.6 38.6 18.8 38.3 18.4 38.6 18 39.2 16.8 39.8 15.7 40.5 14.6 43.8 9.9 47.6 5.7 52.1 2.1 53 1.5 53.9 0.9 54.8 0.3 54.9 0.2 55 0.2 55.1 0.2 48.7 5.4 43 11.1 38.7 18.4 40.3 18.1 41.7 17.7 43 16.9 47.4 14.3 51.6 11.5 55.5 8.2 56.6 7.3 57.6 6.2 58.9 5.1 58.2 4.6 57.7 4 57 3.4 56.4 2.9 56.3 2.7 56.8 2 57 1.8 57.3 1.6 57.5 1.4 57.7 1.3 57.9 1.1 58.2 0.9 57.7 0.6 57.2 0.3 56.8 0 58.7 0 60.7 0 62.6 0Z" class="a"/><path d="M77.9 0C75.7 6.4 73.4 12.7 71.1 19.2 70.3 17.3 72.2 6.1 74.2 0 74.4 0 74.6 0 74.9 0 73.6 4.2 72.7 8.4 72.1 12.8 72.2 12.6 72.3 12.5 72.4 12.3 73.4 9.2 74.5 6.1 75.6 3 75.9 2 76.3 1 76.7 0 77.1 0 77.5 0 77.9 0Z" class="a"/><path d="M150 83.2C148.9 86.1 147.8 89.1 146.7 92 146.4 92.7 146.2 93.4 145.9 94.1 145.8 94.1 145.8 94 145.7 94 145.7 92.8 145.7 91.6 145.9 90.3 146.4 85.5 147.4 80.7 148.8 76 149.1 74.7 149.6 73.5 150 72.2 150 72.9 150 73.5 150 74.2 150 74.2 149.9 74.3 149.9 74.4 149 77.8 148.2 81.2 147.4 84.7 147.2 85.7 147.1 86.7 146.9 87.8 147 87.8 147 87.8 147.1 87.8 147.4 86.6 147.8 85.5 148.2 84.3 148.8 82.7 149.4 81.2 150 79.6 150 80.8 150 82 150 83.2Z" class="a"/><path d="M150 8.2C148.9 11.1 147.8 14 146.7 16.9 146.4 17.6 146.2 18.3 145.9 19.1 145.8 19.1 145.8 19.1 145.7 19 145.7 18.3 145.6 17.5 145.7 16.8 146.2 11.8 147.1 7 148.4 2.2 148.6 1.5 148.8 0.7 149 0 149.2 0 149.4 0 149.6 0 149.6 0.1 149.6 0.3 149.6 0.4 148.9 3.2 148.2 5.9 147.6 8.7 147.3 10.2 147.1 11.7 146.8 13.2 147.4 11.9 147.7 10.6 148.2 9.3 148.8 7.7 149.4 6.2 150 4.6 150 5.8 150 7 150 8.2Z" class="a"/><path d="M0 79.2C0.5 78 1.1 76.8 1.5 75.6 2.3 73.3 3.1 71 3.9 68.6 3.3 68.3 2.7 68 2.1 67.7 1.5 69.6 0.9 71.6 0.2 73.6 -0.1 71.3 1 69.4 1.8 67.3 0.8 65.4 1.2 63.1 3.1 62.1 3 62.4 2.9 62.6 2.8 62.9 2.5 63.5 2 64.1 1.8 64.8 1.3 66.1 2.1 67.1 3.3 67.6 3.9 67.9 4.6 68.1 5.1 68.3 5 68.8 4.8 69.2 4.8 69.6 4.4 71.6 3.7 73.4 2.9 75.2 2 77.3 1.3 79.4 0.6 81.5 0.4 82 0.2 82.5 0 82.9 0 81.7 0 80.4 0 79.2Z" class="a"/><path d="M86.4 0C86.4 1.3 86.4 2.7 86.5 4 86.7 6.5 86.9 9 87.2 11.5 87.3 12.8 87.5 14.2 87.6 15.5 87.6 15.8 87.5 16.1 87.4 16.5 87.3 16.4 87.2 16.2 87.2 16.1 86.8 15.1 86.2 14 85.9 12.9 85.3 10.8 84.9 8.6 84.4 6.4 83.9 4.3 83.4 2.1 82.9 0 83.3 0 83.7 0 84.2 0 84.3 0.8 84.4 1.5 84.5 2.2 84.9 4.7 85.4 7.2 85.8 9.6 86 10.6 86.2 11.5 86.3 12 86.1 8.3 85.9 4.2 85.7 0 85.9 0 86.2 0 86.4 0Z" class="a"/><path d="M11.5 0C11.6 1.3 11.6 2.6 11.7 3.8 11.9 6.4 12.1 8.9 12.3 11.4 12.4 12.8 12.6 14.1 12.7 15.5 12.8 15.8 12.7 16.1 12.5 16.5 12.4 16.3 12.4 16.2 12.3 16 11.9 15.1 11.4 14.2 11.1 13.2 10.4 10.2 9.8 7.2 9.1 4.2 8.8 2.8 8.4 1.4 8.1 0 8.5 0 8.9 0 9.3 0 9.4 0.8 9.5 1.5 9.7 2.2 10.1 4.5 10.5 6.7 10.9 8.9 11.1 10.1 11.3 11.3 11.5 12 11.3 8.3 11.1 4.2 10.8 0 11.1 0 11.3 0 11.5 0Z" class="a"/><path d="M31.1 0C30.8 0.8 31.1 1.5 31.6 2.2 32.9 3.6 34.3 5 35.5 6.5 36.1 7.2 36.4 8.1 36.8 9 37 9.3 37 9.7 36.9 10 36.8 10.8 36.3 11 35.6 10.9 34.4 10.6 33.7 9.8 33.2 8.8 32.5 7.6 31.9 6.3 31.2 5.1 30.8 4.4 30.3 3.6 29.6 3 28.5 2.1 27.3 1.3 25.7 1.1 26 0.9 26.3 0.7 26.7 0.6 27.1 0.4 27.6 0.2 28.1 0 28.5 0 29 0 29.4 0 28.8 0.4 28.1 0.8 27.4 1.2 27.8 1.4 28.1 2.1 28.7 1.7 29.4 1.2 30 0.6 30.7 0 30.8 0 31 0 31.1 0ZM30 2.5C30.4 3 30.9 3.5 31.2 4 32 5.3 32.7 6.7 33.5 8.1 34 8.9 34.6 9.6 35.2 10.2 35.4 10.4 35.9 10.5 36.2 10.4 36.3 10.3 36.4 9.8 36.4 9.5 36.4 9.3 36.3 9 36.2 8.8 35.8 8.1 35.4 7.3 34.9 6.7 33.5 5.1 32 3.5 30.5 1.9 30.3 2.1 30.2 2.3 30 2.5Z" class="a"/><path d="M106 0C105.7 0.8 105.9 1.5 106.5 2.2 107.8 3.6 109.2 5 110.4 6.5 111 7.2 111.3 8.1 111.7 9 111.8 9.3 111.8 9.7 111.7 10.1 111.6 10.9 111.1 11.2 110.4 10.8 109.7 10.5 108.9 10.1 108.5 9.5 107.6 8.1 106.9 6.5 106.1 5.1 105.6 4.3 105.1 3.5 104.5 3 103.4 2.1 102.1 1.3 100.5 1.1 100.9 0.9 101.2 0.7 101.6 0.6 102 0.4 102.5 0.2 102.9 0 103.4 0 103.9 0 104.3 0 103.7 0.4 103 0.8 102.3 1.1 102.3 1.2 102.3 1.3 102.3 1.3 102.7 1.5 103.2 1.8 103.5 1.7 104.2 1.2 104.9 0.6 105.6 0 105.7 0 105.8 0 106 0ZM104.9 2.5C105.3 3 105.7 3.4 106.1 4 107 5.5 107.8 7.1 108.7 8.7 109 9.2 109.4 9.7 109.8 10 110.1 10.3 110.6 10.3 111.1 10.4 111.1 9.9 111.3 9.4 111.1 9 110.8 8.2 110.4 7.3 109.8 6.7 108.4 5 106.9 3.5 105.4 1.9 105.2 2 105 2.2 104.9 2.5Z" class="a"/><path d="M74 150C74.8 147.4 75.6 144.8 76.7 142.3 75.6 140.6 76.2 137.9 78 137 77.9 137.4 77.8 137.7 77.6 137.9 77.3 138.5 76.9 139.1 76.6 139.8 76.2 140.9 76.9 142.1 78.1 142.6 78.7 142.9 79.4 143.1 80 143.3 79.9 143.7 79.8 144 79.7 144.3 79.1 146.2 78.5 148.1 77.9 150 77.5 150 77.1 150 76.7 150 77.4 147.9 78.1 145.7 78.8 143.6 78.2 143.3 77.6 143 77 142.7 76.2 145.1 75.5 147.6 74.7 150 74.5 150 74.3 150 74 150Z" class="a"/><path d="M85.7 150C85.5 146.3 84.9 142.7 83 139.5 82.5 138.5 81.7 137.7 81.1 136.8 80.9 136.5 80.6 136.6 80.3 136.7 79.9 136.9 79.4 137 78.9 137.1 78.3 137.1 78 136.8 78.1 136.2 78.1 135.6 78.1 135 78.2 134.4 78.2 133.8 78.9 132.9 79.5 132.8 79.7 132.8 80.1 132.9 80.1 133.1 80.4 133.9 80.6 134.8 80.9 135.6 80.9 135.8 81 136.1 81.1 136.2 82.9 137.5 83.8 139.4 84.7 141.3 85.8 144.1 86.4 147 86.4 150 86.2 150 85.9 150 85.7 150ZM78.8 135.9C79.3 135.8 79.7 135.7 80.3 135.6 80.1 134.9 79.9 134.3 79.8 133.5 78.8 134.2 78.8 135 78.8 135.9ZM78.7 136.4C78.7 136.4 78.7 136.5 78.7 136.6 79.3 136.5 79.8 136.4 80.4 136.4 80.4 136.3 80.4 136.2 80.4 136.1 79.8 136.2 79.2 136.3 78.7 136.4Z" class="a"/><path d="M10.7 150C10.5 146.3 9.8 142.7 8 139.5 7.5 138.5 6.7 137.7 6.1 136.8 5.9 136.5 5.6 136.6 5.3 136.7 4.9 136.9 4.4 137.1 3.9 137.1 3.3 137.2 3 136.9 3.1 136.2 3.1 135.6 3.1 135 3.2 134.4 3.2 133.7 3.9 132.9 4.5 132.8 4.7 132.8 5.1 133 5.2 133.2 5.4 134 5.6 134.8 5.9 135.7 5.9 135.8 5.9 136.1 6 136.2 7.8 137.5 8.8 139.4 9.6 141.3 10.8 144.1 11.3 147 11.4 150 11.2 150 10.9 150 10.7 150ZM3.8 135.9C4.3 135.8 4.7 135.7 5.3 135.6 5.1 134.9 4.9 134.3 4.7 133.5 3.8 134.2 3.8 135 3.8 135.9ZM5.4 136.4C5.4 136.3 5.4 136.2 5.4 136.1 4.8 136.2 4.2 136.3 3.6 136.4 3.6 136.5 3.7 136.5 3.7 136.6 4.2 136.5 4.8 136.4 5.4 136.4Z" class="a"/><path d="M0 146.7C0.4 145.6 0.8 144.5 1.2 143.5 1.3 143.1 1.5 142.7 1.7 142.4 0.6 140.6 1.2 137.8 3 137 2.9 137.4 2.8 137.6 2.7 137.9 2.3 138.5 1.9 139.2 1.6 139.9 1.2 141 1.9 142.1 3.1 142.6 3.7 142.9 4.4 143.1 5 143.3 4.9 143.7 4.8 144 4.7 144.3 4.1 146.2 3.5 148.1 2.9 150 2.5 150 2.1 150 1.7 150 2.4 147.9 3.1 145.7 3.8 143.6 3.2 143.3 2.6 143 2 142.7 1.9 143.1 1.8 143.4 1.7 143.8 1.1 145.4 0.6 147.1 0 148.8 0 148.1 0 147.4 0 146.7Z" class="a"/><path d="M150 23.5C148.8 24.3 147.7 25.2 146.5 26.1 146.4 26.2 146.3 26.6 146.4 26.8 146.6 27.3 146.5 27.7 146 28 145.6 28.2 145.2 28.5 144.8 28.8 144.6 29 144.5 29.2 144.4 29.4 144.1 30.2 143.9 30.3 143 30.3 144.4 28.2 143.2 27 141.7 25.9 142.1 25.4 142.5 25 143 24.6 143.5 24 143.8 24.1 144.2 24.7 144.5 25.1 144.8 24.9 145.1 24.7 146.7 23.8 148.2 22.8 149.7 21.8 149.8 21.8 149.9 21.7 150 21.7 150 21.9 150 22.1 150 22.4 148.4 23.3 146.7 24.3 145.1 25.2 145.4 25.5 145.6 25.8 145.9 26.1 147.3 24.9 148.6 23.9 150 22.8 150 23 150 23.2 150 23.5ZM142.7 25.6C143.4 26.6 144 27.4 144.6 28.2 145.9 27.3 145.9 27.3 144.9 25.9 144.7 25.8 144.6 25.6 144.4 25.4 144.1 24.8 143.6 24.8 143.1 25.2 143 25.4 142.8 25.5 142.7 25.6Z" class="a"/><path d="M150 98.5C148.8 99.4 147.7 100.2 146.5 101.1 146.4 101.2 146.3 101.6 146.4 101.8 146.6 102.3 146.5 102.6 146 102.9 145.7 103.1 145.4 103.4 145.1 103.6 144.7 103.8 144.4 104.1 144.3 104.7 144.1 105.3 143.5 105.3 143 105.3 143.2 104.9 143.5 104.5 143.6 104.1 143.7 102.8 143.1 101.9 142.1 101.2 141.7 101 141.2 100.8 142.1 100.5 142.3 100.5 142.4 100.1 142.6 99.9 142.9 99.7 143.2 99.4 143.5 99.3 143.7 99.2 144.1 99.3 144.1 99.5 144.4 100.1 144.7 100 145.1 99.7 146.8 98.7 148.4 97.7 150 96.7 150 96.9 150 97.1 150 97.4 148.4 98.3 146.7 99.3 145.1 100.3 145.4 100.6 145.6 100.8 145.9 101.1 147.3 99.9 148.7 98.9 150 97.8 150 98 150 98.2 150 98.5ZM144.6 103.3C144.8 103.1 145.1 102.8 145.4 102.6 145.8 102.3 145.8 102 145.5 101.7 145.1 101.3 144.7 100.8 144.4 100.4 144.1 99.8 143.6 99.8 143.2 100.2 143 100.4 142.8 100.5 142.7 100.6 143.4 101.6 144 102.4 144.6 103.3Z" class="a"/><path d="M0 96.5C1.7 95.4 3.3 94.2 5 93.1 5.7 92.5 6.5 92.1 7.3 91.6 7.6 91.4 8.1 91.4 8.6 91.4 5.9 93.9 2.9 96.2 0 98.3 0 98.1 0 97.9 0 97.7 0.5 97.2 1.1 96.8 1.6 96.4 1.6 96.4 1.5 96.3 1.5 96.3 1 96.6 0.5 96.9 0 97.2 0 97 0 96.8 0 96.5Z" class="a"/><path d="M45 150C48.8 147.5 52.6 145 56.4 142.5 56.7 142.3 57.1 142.2 57.5 142 57.6 142.1 57.6 142.2 57.7 142.3 57.3 142.6 56.9 143.1 56.5 143.4 54.2 144.8 51.9 146.3 49.6 147.8 48.5 148.5 47.5 149.3 46.4 150 45.9 150 45.5 150 45 150Z" class="a"/><path d="M120 150C123.8 147.5 127.6 145 131.4 142.5 131.7 142.3 132.1 142.2 132.5 142 132.6 142.1 132.7 142.2 132.7 142.3 132.3 142.6 132 143 131.6 143.3 129.7 144.5 127.8 145.7 125.8 147 124.4 147.9 123 148.8 121.7 149.7 121.6 149.8 121.5 149.9 121.4 150 120.9 150 120.5 150 120 150Z" class="a"/><path d="M46.3 0C44.2 1.3 42.2 2.7 40.1 4 40.1 4 40 4 40 4.1 39.5 4.4 39.1 4.8 38.6 4.2 38 3.4 38.1 2.6 38.7 2.1 39.6 1.4 40.6 0.7 41.5 0 42.1 0 42.6 0 43.2 0 41.9 0.8 40.7 1.7 39.4 2.5 39.1 2.7 38.6 2.9 39 3.3 39.3 3.7 39.7 3.9 40.1 3.5 40.3 3.3 40.6 3.1 40.8 2.9 42.2 2 43.6 1 45 0 45.4 0 45.8 0 46.3 0Z" class="a"/><path d="M121.1 0C119.1 1.4 117 2.7 115 4 114.9 4.1 114.9 4.1 114.8 4.1 114.4 4.4 113.9 4.9 113.4 4.2 113 3.4 112.9 2.6 113.6 2.1 114.5 1.4 115.5 0.7 116.4 0 117 0 117.5 0 118.1 0 118 0.1 117.9 0.2 117.8 0.3 116.5 1.1 115.3 1.9 114.1 2.7 113.6 3 113.7 3.2 114 3.5 114.3 3.7 114.6 3.9 115 3.5 115.3 3.2 115.6 3 116 2.7 117.3 1.8 118.6 0.9 119.9 0 120.3 0 120.7 0 121.1 0Z" class="a"/><path d="M3.1 0C2.1 2.6 1.2 5.2 0.2 7.8 -0.2 5.5 0.4 3.4 1.3 1.4 1.5 1 1.6 0.5 1.8 0 2.2 0 2.6 0 3.1 0Z" class="a"/><path d="M7.9 150C7.4 148.4 7 146.7 6.4 145.1 6.2 144.6 5.9 144.2 5.6 143.7 6 143.9 6.5 144.1 6.8 144.5 7.3 145.3 7.8 146.1 8.2 147 8.6 148 8.8 149 9.2 150 8.8 150 8.3 150 7.9 150Z" class="a"/><path d="M82.9 150C82.2 147.9 82.1 145.6 80.5 143.8 81.1 143.7 81.5 144.1 81.9 144.5 82.8 145.6 83.1 147 83.6 148.3 83.8 148.8 84 149.4 84.2 150 83.8 150 83.3 150 82.9 150Z" class="a"/><path d="M0 116.5C0.5 116.4 0.5 116.1 0.4 115.7 0.3 115.4 0.3 115.1 0.3 114.8 0.3 114.8 0.4 114.7 0.4 114.7 0.6 114.8 1 115 1 115.1 1.6 117.5 2 119.8 0.5 122 0.4 122.2 0.2 122.4 0 122.5 0 122 0 121.5 0 121 0.2 120.9 0.5 120.8 0.6 120.6 0.7 119.9 0.8 119.3 0.8 118.6 0.9 118 0.8 117.4 0 117.4 0 117.1 0 116.8 0 116.5Z" class="a"/><path d="M103.3 150C104 149.4 104.8 148.8 105.4 148.1 105.7 147.8 105.8 147.3 106.1 146.9 106 147.9 106 149 106 150 105.8 150 105.7 150 105.6 150 105.5 149.8 105.4 149.5 105.4 149.2 105 149.5 104.7 149.8 104.4 150 104.1 150 103.7 150 103.3 150Z" class="a"/><path d="M28.3 150C29 149.4 29.8 148.8 30.4 148.1 30.7 147.8 30.8 147.3 31.1 146.9 31 147.9 31 149 31 150 30.8 150 30.7 150 30.6 150 30.5 149.8 30.5 149.5 30.4 149.2 30 149.5 29.7 149.8 29.4 150 29.1 150 28.7 150 28.3 150Z" class="a"/><path d="M150 122.8C149.5 123.1 148.9 123.4 148.4 123.8 148.2 124 148 124.3 147.8 124.5 147.6 124.3 147.7 123.8 148.1 123.5 148.3 123.4 148.6 123.3 148.8 123.2 149.2 122.9 149.6 122.6 149.2 121.9 148.9 121.3 149 121.2 150 121 150 121.6 150 122.2 150 122.8Z" class="a"/><path d="M150 47.8C149.5 48.1 148.9 48.4 148.4 48.8 148.1 49 148 49.3 147.8 49.5 147.6 49.2 147.8 48.7 148.3 48.4 148.7 48.2 149.1 47.9 149.5 47.7 149.3 47.2 149.2 46.8 149 46.3 149.4 46.2 149.7 46.1 150 46 150 46.6 150 47.2 150 47.8Z" class="a"/><path d="M149.2 150C149.5 149.1 149.7 148.3 150 147.4 150 148.3 150 149.1 150 150 149.7 150 149.4 150 149.2 150Z" class="a"/><path d="M119.8 116.6C119.5 116.1 119.2 115.6 118.9 115.1 119 115.1 119.1 115 119.1 115 119.2 115 119.4 115 119.4 115.1 120.5 116.8 122.2 117.6 123.9 118.5 125.8 119.5 127.9 120.3 130.1 120.6 130.7 120.6 131.3 120.4 131.9 120.3 131.7 119.7 131.6 119.1 131.3 118.6 130 116.7 128 115.7 125.9 115 124 114.5 122.1 114.1 120.2 113.7 121.1 113.3 122.2 113.4 123.2 113.5 125.3 113.8 127.3 114.4 129.1 115.5 130.7 116.3 132.1 117.4 132.7 119.2 133.2 120.4 132.5 121.4 131.2 121.5 130 121.6 130 121.6 129.7 122.7 129.4 123.6 129.1 124.5 128.7 125.5 129 125.5 129.1 125.5 129.3 125.4 130.9 124.5 132.4 125 133.9 125.7 134.5 126 135.1 126.4 135.6 126.8 136.4 127.5 136.8 128.5 136.5 129.2 136.2 129.9 135.2 130.5 134.2 130.5 133.9 130.5 133.7 130.4 133.5 130.4 132.9 130.3 132.7 130.6 132.8 131.2 133.3 131.3 133.8 131.3 134.3 131.4 135.3 131.8 135.4 132.7 134.6 133.4 133.9 134 133 134.1 132.1 134 131.9 134 131.6 134.1 131.4 134.2 129.6 135.4 127.8 136.6 126 137.9 125.7 138 125.4 138.1 125.1 138.3 125 138.2 125 138.2 124.9 138.1 125.5 137.6 126.1 137.1 126.7 136.6 128 135.8 129.3 135 130.6 134.1 131.2 133.8 131.7 133.5 131.8 132.7 131.8 132.4 132 132.1 132.2 131.8 131.8 131 131.8 130 132.5 129.5 133.2 129.1 134 129 134.9 128.7 134.5 127.9 133.7 127.4 132.9 127 131.5 126.2 130 126.1 128.5 126.5 128.4 126.6 128.3 126.7 128.2 126.8 127.8 127.6 127.5 128.4 127.1 129.2 127.2 129.3 127.3 129.4 127.4 129.4 128.7 130.4 128.7 131 127.3 131.8 125.8 132.7 124.3 132.8 122.6 132.4 120.4 132 118.2 131.3 116.2 130.1 115.3 129.5 114.5 128.7 113.8 127.9 113.3 127.4 113.3 126.8 113.7 126.3 114.1 125.7 114.6 125.7 115.1 125.9 116.7 122.8 118.3 119.7 119.8 116.6ZM115.2 126.1C114.7 126.3 114.2 126.4 114.1 126.7 114 126.9 114.2 127.4 114.4 127.7 115.3 128.9 116.6 129.5 117.9 130.1 120.2 131.1 122.5 132 125.1 131.8 126 131.7 126.8 131.5 127.6 130.7 127.3 130.4 127 130.1 126.7 129.6 126.3 130.8 125.5 130.6 124.8 130.5 121.3 130 118.1 129.2 115.7 126.3 115.5 126.5 115.3 126.8 115.1 127 115.1 127 115.1 127 115 127 115.1 126.8 115.1 126.5 115.2 126.1ZM119.1 119.4C118.7 119.8 118.9 120 119.3 120.2 119.7 120.4 120 120.6 120.4 120.8 123 122.1 125.8 123.1 128.7 123.6 128.8 123.3 128.9 123 129 122.8 125.2 123 122.2 121.2 119.1 119.4ZM119.5 118.3C119.6 118.4 119.6 118.7 119.7 118.7 120.2 119.1 120.7 119.4 121.2 119.7 123.5 121 126.1 121.7 128.7 122.3 128.9 122.4 129.1 122.3 129.3 122.3 129.3 122.2 129.3 122.2 129.3 122.1 125.8 121.6 122.7 120.2 119.5 118.3ZM126.1 129.5C122.1 129.4 118.9 128.1 115.9 125.4 116 125.7 116 125.9 116.1 126.1 116.5 126.5 116.8 126.9 117.3 127.2 119.8 128.9 122.6 129.5 125.6 129.7 125.7 129.8 125.9 129.6 126.1 129.5ZM126.3 124C123.7 123 121 122.1 118.5 120.3 118.5 120.6 118.5 120.8 118.6 120.9 120.9 122.4 123.4 123.7 126.3 124ZM123.3 127.2C121.2 126.3 118.9 125.3 116.6 124.2 116.8 124.5 116.9 124.7 117 124.9 119 126.2 121.2 126.7 123.3 127.2ZM116.7 125.4C117.8 126.7 123.2 128.7 125 128.4 121.9 127.9 120.6 127.4 116.7 125.4ZM132.5 133.2C132.8 133.2 133 133.3 133.2 133.2 133.6 133 134 132.7 134.4 132.5 134 132.3 133.7 132.1 133.3 131.9 133.3 131.8 133.2 131.9 133.1 132 133.3 132.2 133.4 132.4 133.6 132.7 133.2 132.6 133 132.5 132.7 132.4 132.6 132.6 132.6 132.9 132.5 133.2ZM118.2 121.3C118.2 121.4 118.1 121.4 118 121.5 118.7 121.9 119.3 122.4 120 122.8 120 122.7 120 122.7 120 122.7 119.4 122.2 118.8 121.7 118.2 121.3Z" class="a"/><path d="M45.3 113.7C46 113.3 47 113.4 47.9 113.5 50.5 113.9 53 114.6 55.1 116.2 56.2 116.9 57.2 117.8 57.7 119.1 58.2 120.4 57.6 121.5 56.1 121.5 55.2 121.5 54.9 121.9 54.6 122.7 54.4 123.7 54 124.6 53.7 125.6 53.9 125.5 54.1 125.5 54.2 125.4 55.8 124.5 57.3 125 58.8 125.7 59.5 126 60.2 126.5 60.8 127 61.4 127.5 61.7 128.3 61.5 129.2 61.3 130 60.5 130.3 59.7 130.4 59.3 130.5 58.9 130.5 58.5 130.4 57.9 130.4 57.7 130.6 57.8 131.2 58.3 131.3 58.9 131.3 59.3 131.5 60.3 131.8 60.4 132.7 59.7 133.4 59 134 58.1 134.1 57.2 134.1 56.9 134 56.6 134.1 56.4 134.3 54.6 135.5 52.8 136.7 51 137.9 50.7 138.1 50.4 138.2 50.1 138.3 50 138.3 50 138.2 49.9 138.1 50.5 137.6 51.1 137 51.8 136.6 53.1 135.7 54.5 134.8 55.9 134 56.3 133.7 56.7 133.4 56.7 132.9 56.7 132.5 57 132.2 57.2 131.8 56.8 131 56.8 130 57.5 129.6 58.2 129.1 59 129 59.9 128.7 59.5 127.9 58.7 127.5 57.9 127 56.5 126.2 55 126.1 53.5 126.5 53.4 126.6 53.2 126.7 53.2 126.8 52.8 127.6 52.5 128.4 52.1 129.3 52.2 129.3 52.3 129.4 52.4 129.4 53.7 130.4 53.7 131.1 52.2 131.9 50.8 132.7 49.2 132.8 47.5 132.5 45.3 132 43.3 131.2 41.3 130.2 40.2 129.7 39.4 128.9 38.7 127.9 38.4 127.4 38.3 126.8 38.6 126.3 39 125.7 39.6 125.8 40.1 125.9 41.7 122.8 43.3 119.7 44.8 116.6 44.5 116.1 43.9 115.7 44.1 115.2 44.6 115.6 45.2 116.1 45.8 116.6 48.6 118.6 51.6 120.1 55.1 120.6 55.6 120.7 56.3 120.4 56.9 120.3 56.7 119.7 56.6 119.1 56.3 118.6 54.9 116.7 53 115.7 50.8 115 49 114.4 47.1 114.1 45.3 113.7ZM51.8 129.7C51.4 130.2 51.2 130.5 50.5 130.5 47.9 130.4 45.6 129.8 43.4 128.6 42.4 128 41.5 127.1 40.6 126.4 40.5 126.5 40.3 126.8 40.1 127 40.1 127 40 127 40 127 40 126.8 40.1 126.5 40.2 126.1 39.7 126.4 39.2 126.5 39.1 126.7 39 126.9 39.2 127.4 39.4 127.7 39.8 128.1 40.2 128.6 40.7 128.9 42.1 129.7 43.5 130.4 44.9 131 46.6 131.6 48.3 132 50.1 131.8 51 131.7 51.9 131.5 52.6 130.7 52.3 130.4 52.1 130.1 51.8 129.7ZM44.1 119.4C43.7 119.8 43.9 120.1 44.3 120.3 45.5 120.8 46.6 121.4 47.8 121.8 49.7 122.5 51.7 123.1 53.7 123.8 53.9 123.3 54 123 54 122.8 50.2 123 47.2 121.2 44.1 119.4ZM44.7 118.2C44.6 118.3 44.6 118.3 44.5 118.3 44.6 118.5 44.6 118.7 44.8 118.8 47.5 120.8 50.6 121.6 53.8 122.4 54 122.4 54.1 122.3 54.3 122.2 50.8 121.5 47.6 120.1 44.7 118.2ZM51.1 129.5C47.1 129.4 43.9 128.1 40.9 125.4 41 125.7 41 125.9 41.1 126.1 41.5 126.4 41.8 126.9 42.2 127.2 44.8 128.8 47.6 129.5 50.6 129.7 50.8 129.8 50.9 129.6 51.1 129.5ZM43.5 120.5C43.5 120.6 43.5 120.8 43.6 120.9 46 122.4 48.4 123.7 51.3 124 48.7 123 46 122.1 43.5 120.5ZM48.4 127.4C48.4 127.3 48.4 127.3 48.4 127.3 46.2 126.3 43.9 125.3 41.5 124.2 41.8 124.5 41.9 124.8 42.2 124.9 42.8 125.3 43.4 125.7 44 125.9 45.5 126.5 47 126.9 48.4 127.4ZM50 128.5C47.2 127.9 44.5 127.1 42 125.6 44.4 127.4 47.1 128.2 50 128.5ZM58.7 132.7C58.2 132.6 58 132.5 57.7 132.4 57.6 132.7 57.6 132.9 57.5 133.2 57.8 133.2 58.1 133.3 58.3 133.2 58.7 133 59.1 132.7 59.4 132.5 59.1 132.3 58.7 132 58.3 131.8 58.3 131.8 58.2 131.9 58.2 132 58.3 132.1 58.4 132.3 58.7 132.7ZM43.2 121.3C43.1 121.4 43.1 121.5 43 121.5 43.7 122 44.3 122.4 45 122.8 45 122.8 45 122.7 45.1 122.7 44.4 122.2 43.8 121.7 43.2 121.3Z" class="a"/><path d="M127.1 54.2C127.1 54.3 127.1 54.3 127.2 54.3 129 55.4 128.5 56.2 127 57 125.6 57.7 124.2 57.8 122.7 57.5 120.4 57 118.3 56.3 116.2 55.2 115.2 54.6 114.3 53.8 113.7 52.8 113.4 52.3 113.3 51.7 113.7 51.2 114.1 50.7 114.7 50.7 115.2 51 116.7 47.8 118.3 44.7 119.8 41.7 119.5 41.1 119.2 40.6 119 40.1 119.1 40.1 119.1 40 119.2 40 119.3 40 119.4 40 119.4 40.1 120.9 42.1 123.1 43.2 125.3 44.1 126.9 44.8 128.5 45.2 130.2 45.6 130.7 45.7 131.3 45.4 131.9 45.3 131.7 44.7 131.6 44.1 131.3 43.6 130 41.7 128 40.7 125.9 40 124 39.5 122.1 39.1 120.2 38.7 121.2 38.3 122.3 38.4 123.3 38.6 125.4 38.8 127.3 39.4 129.1 40.4 130.7 41.3 132.1 42.4 132.7 44.2 133.2 45.4 132.6 46.5 131.3 46.5 130.2 46.5 129.9 47 129.6 47.9 129.4 48.7 129.1 49.6 128.8 50.6 128.9 50.5 129.1 50.5 129.1 50.4 130.6 49.6 132.1 49.9 133.5 50.6 134.2 50.9 134.9 51.3 135.6 51.8 136.5 52.4 136.8 53.5 136.5 54.3 136.2 55 135.2 55.5 134.1 55.5 134 55.5 133.8 55.4 133.6 55.4 132.9 55.4 132.8 55.5 132.9 56.2 133.3 56.3 133.8 56.3 134.3 56.4 135.3 56.8 135.5 57.7 134.6 58.4 133.9 59 133.1 59.1 132.2 59 131.9 59 131.6 59.1 131.4 59.3 129.4 60.6 127.4 61.9 125.4 63.2 125.3 63.3 125.2 63.3 125.1 63.3 125.1 63.3 125.1 63.2 125 63.2 125.4 62.8 125.8 62.4 126.2 62.1 127.7 61 129.2 60.1 130.8 59.1 131.3 58.7 131.7 58.4 131.8 57.7 132 57.2 132.2 56.7 132 56.1 131.8 55 132.6 54.1 133.7 54 134.1 54 134.5 53.9 135 53.9 134.6 52.9 133.8 52.5 133.1 52.1 131.7 51.2 130.1 51.1 128.5 51.5 128.4 51.6 128.3 51.7 128.2 51.8 127.8 52.6 127.5 53.4 127.1 54.2ZM115.2 51.1C114.7 51.3 114.2 51.4 114.1 51.6 114 51.9 114.3 52.3 114.4 52.7 114.4 52.7 114.5 52.7 114.5 52.8 115.5 54.1 117.1 54.8 118.6 55.4 120.7 56.3 122.8 57 125.1 56.8 126.1 56.7 126.9 56.4 127.6 55.7 127.3 55.4 127.1 55 126.7 54.6 126.3 55.8 125.4 55.5 124.7 55.4 121.3 55 118 54.1 115.7 51.2 115.5 51.5 115.3 51.8 115.1 52 115.1 52 115.1 52 115.1 51.9 115.1 51.7 115.1 51.5 115.2 51.1ZM129 47.7C127.1 48.2 125.4 47.5 123.8 46.8 122.2 46.1 120.6 45.3 119 44.5 118.6 45 119.2 45.2 119.5 45.4 122.2 46.8 125 47.8 128 48.5 128.8 48.6 128.8 48.7 129 47.7ZM115.9 50.6C116 50.7 116 51 116.1 51.1 116.5 51.5 116.9 51.9 117.3 52.2 119.8 53.9 122.7 54.5 125.6 54.7 125.8 54.8 125.9 54.6 126.1 54.5 122.2 54.4 118.9 53.1 115.9 50.6ZM119.5 43.3C119.6 43.4 119.6 43.7 119.7 43.8 120.1 44.1 120.6 44.4 121.1 44.7 123.5 46 126.1 46.7 128.7 47.3 128.9 47.4 129.1 47.3 129.3 47.3 129.3 47.2 129.3 47.1 129.3 47.1 125.8 46.6 122.7 45.1 119.5 43.3ZM126.2 49.1C126.2 49.1 126.3 49 126.3 48.9 123.6 48 120.9 47.1 118.5 45.5 118.6 45.7 118.6 45.9 118.8 46 120.1 46.8 121.5 47.5 122.9 48.2 123.9 48.6 125.1 48.8 126.2 49.1ZM116.8 49.1C116.7 49.2 116.7 49.2 116.6 49.3 116.8 49.5 116.9 49.8 117.2 50 119.2 51.3 121.5 51.8 123.9 52.3 121.4 51.5 119 50.6 116.8 49.1ZM125 53.5C121.9 52.8 118.9 52 116.3 50 118.8 52.3 121.8 53.1 125 53.5ZM132.5 58.2C132.8 58.2 133 58.2 133.2 58.2 133.7 58.1 134.3 58 134.4 57.4 134.4 57.3 133.7 57 133.3 56.8 133.3 56.8 133.2 56.9 133.1 56.9 133.3 57.2 133.4 57.4 133.7 57.7 133.2 57.6 133 57.5 132.7 57.4 132.6 57.6 132.6 57.9 132.5 58.2ZM120 47.8C120 47.8 120 47.7 120 47.7 119.4 47.2 118.8 46.7 118.2 46.3 118.1 46.4 118.1 46.5 118 46.5 118.7 47 119.3 47.4 120 47.8Z" class="a"/><path d="M40.3 51C41.9 47.8 43.4 44.7 45 41.6 44.7 41 44 40.7 44.2 40 44.4 40 44.5 40 44.5 40 45.9 42 47.9 43 50 43.9 51.7 44.7 53.4 45.1 55.2 45.6 55.8 45.7 56.4 45.4 57 45.3 56.8 44.7 56.7 44.1 56.4 43.6 55 41.6 52.9 40.6 50.7 39.9 48.9 39.4 47.1 39.1 45.3 38.7 46.1 38.3 47.1 38.4 48 38.5 50.9 38.9 53.6 39.7 55.9 41.6 56.7 42.3 57.4 43.1 57.8 44.2 58.3 45.4 57.7 46.5 56.4 46.5 55.3 46.5 54.9 47 54.7 47.9 54.6 48.4 54.5 48.8 54.3 49.2 54.2 49.6 54 50 53.8 50.6 54.1 50.5 54.2 50.5 54.4 50.4 56 49.5 57.5 50 59 50.7 59.6 51 60.2 51.4 60.7 51.8 61.6 52.5 61.9 53.5 61.6 54.3 61.3 55 60.3 55.5 59.2 55.5 59 55.5 58.8 55.4 58.6 55.4 58 55.4 57.9 55.5 58 56.2 58.4 56.3 58.9 56.3 59.4 56.4 60.4 56.8 60.6 57.7 59.7 58.4 59 59 58.2 59.1 57.3 59 57 59 56.7 59.1 56.5 59.3 54.8 60.4 53 61.7 51.2 62.9 50.9 63.1 50.6 63.2 50.2 63.3 50.2 63.3 50.1 63.2 50.1 63.2 50.5 62.8 50.8 62.3 51.3 62 52.7 61.1 54.2 60.1 55.7 59.2 56.3 58.8 56.9 58.5 56.9 57.7 57 57.4 57.2 57.2 57.3 56.9 56.9 56.1 56.9 55.2 57.6 54.6 58.2 54.1 59.1 54 60 53.7 59.7 52.9 58.8 52.5 58.1 52 56.7 51.2 55.2 51.1 53.6 51.5 53.5 51.6 53.4 51.7 53.3 51.8 52.9 52.6 52.6 53.4 52.2 54.2 52.4 54.4 52.6 54.5 52.7 54.6 53.7 55.4 53.7 55.9 52.7 56.6 51.2 57.7 49.5 57.8 47.8 57.5 45.5 57 43.4 56.2 41.4 55.2 40.3 54.6 39.4 53.8 38.8 52.8 38.5 52.3 38.4 51.7 38.8 51.2 39.2 50.7 39.8 50.7 40.3 51ZM40.3 51.1C39.8 51.3 39.3 51.4 39.3 51.6 39.2 51.9 39.4 52.4 39.6 52.7 40 53.1 40.4 53.6 40.9 53.9 42.4 54.7 43.9 55.5 45.5 56.1 47 56.7 48.7 57 50.4 56.8 51.3 56.7 52.1 56.4 52.7 55.7 52.5 55.3 52.2 55 51.9 54.7 51.5 55.2 51.3 55.5 50.6 55.5 48.1 55.4 45.7 54.8 43.6 53.5 42.6 52.9 41.7 52.1 40.7 51.4 40.6 51.5 40.5 51.8 40.3 52 40.3 52 40.2 52 40.2 52 40.2 51.8 40.2 51.6 40.3 51.1ZM44.2 44.4C43.8 44.9 44.2 45.1 44.6 45.3 47.3 46.8 50.2 47.8 53.2 48.5 54 48.6 54.1 48.5 54.1 47.8 50.3 48 47.3 46.2 44.2 44.4ZM41.1 50.6C41.1 50.7 41.1 50.9 41.2 51.1 41.6 51.5 42 51.9 42.5 52.2 45 53.9 47.8 54.5 50.7 54.8 50.9 54.8 51 54.6 51.2 54.5 47.3 54.4 44 53.1 41.1 50.6ZM44.8 43.2C44.8 43.3 44.7 43.3 44.6 43.3 44.7 43.5 44.8 43.7 45 43.8 47.7 45.8 50.8 46.6 54 47.4 54.1 47.4 54.3 47.3 54.5 47.2 50.9 46.6 47.8 45.1 44.8 43.2ZM51.5 49C48.8 48 46.1 47.1 43.6 45.3 43.7 45.6 43.6 45.8 43.7 45.9 46.1 47.4 48.6 48.7 51.5 49ZM49 52.3C46.5 51.5 44.1 50.6 41.8 49.2 41.9 49.5 42 49.8 42.2 49.9 44.3 51.3 46.6 51.8 49 52.3ZM41.8 50.4C44.3 52.4 47.2 53.2 50.3 53.5 47.3 52.9 44.4 52.1 41.8 50.4ZM57.6 58.3C58.2 58.2 58.8 58.1 59.2 57.9 59.4 57.8 59.5 57.4 59.5 57.3 59.2 56.9 58.8 56.9 58.2 56.8 58.4 57.2 58.5 57.4 58.8 57.7 58.4 57.6 58.1 57.5 57.8 57.4 57.8 57.6 57.7 57.9 57.6 58.3ZM45.1 47.8C45.1 47.8 45.2 47.7 45.2 47.7 44.6 47.2 44 46.7 43.3 46.3 43.3 46.4 43.2 46.4 43.2 46.5 43.8 47 44.4 47.4 45.1 47.8Z" class="a"/><path d="M89.9 101.6C89.6 101.4 89.4 101.2 89.2 101 89.1 100.9 89 100.7 88.9 100.6 90.1 99.2 91.6 98.7 93.4 99.3 92.7 98.3 92.6 98.2 91.4 98.7 90.8 98.9 90.2 99.3 89.5 99.5 88.4 99.9 88 99.6 88.1 98.3 87.6 98.5 87.1 98.6 86.7 98.8 85.1 99.8 83.6 100.8 82 101.7 81.7 101.9 81.4 102.1 81.1 102.3 80.8 102.4 80.5 102.4 80.2 102.4 80.2 102.4 80.1 102.3 80.1 102.2 80.2 102.1 80.3 101.9 80.5 101.8 82.3 100.7 84.1 99.6 86 98.6 87.2 97.9 88.4 97.8 89.6 98.7 89.8 98.8 90.1 98.7 90.3 98.7 93.2 97.7 92.4 97.7 94.3 99.7 97 102.4 99.1 105.6 101.4 108.7 101.5 108.9 101.6 109.1 101.7 109.4 104.1 108.5 106.5 107.7 108.6 106.2 108.3 105.6 108 105 107.7 104.5 106.5 104.8 105.5 105.1 104.4 105.3 104.1 105.3 103.6 105.1 103.4 104.8 102 102.6 100.5 100.3 99.2 98 96.7 93.9 94.2 89.7 91.7 85.5 91.3 84.6 90.9 83.7 90.4 82.9 90.2 82.4 90.2 81.9 90.5 81.4 91.9 79.3 93.9 78.2 96.3 77.6 97.2 77.4 97.6 77.8 98 78.4 102.2 84.3 105.9 90.4 109.1 96.8 109.6 97.9 110.1 98.9 110.6 100 110.7 100.3 110.9 100.6 111.1 101 110.7 101.7 110.1 102.5 109.6 103.2 110.1 104.1 110.6 105 111.1 105.9 111.3 106.3 111.3 106.5 111 106.9 109.7 108.8 107.8 109.7 105.8 110.5 104.8 111 103.5 111.2 102.3 111.4 102.1 111.5 101.7 111.3 101.5 111.1 98.7 107.5 96 103.8 93.2 100.2 92.6 99.3 92.4 99.3 91.3 99.7 91.1 99.8 90.8 99.9 90.5 100 91 101.3 90.3 102 89.4 102.6 87.3 104.2 85.1 105.4 82.7 106.2 82.5 106.2 82.2 106.2 81.8 106.1 84.7 104.9 87.5 103.6 89.9 101.6ZM96.7 77.9C95.7 78.4 94.7 78.8 93.8 79.4 92.2 80.3 92 80.3 92.6 82.4 93.4 84.9 94.6 87.2 96 89.4 98 92.8 100.1 96.1 102.2 99.4 103.2 100.9 104.2 102.3 105.7 103.3 106 103.5 106.5 103.7 106.7 103.6 108.1 103.1 109.4 102.4 110.3 101.1 110.5 100.8 110.5 100.5 110.3 100.2 109.5 99 108.7 97.8 108.1 96.5 104.9 90.2 101.3 84.2 97.3 78.4 97.2 78.2 97 78.1 96.7 77.9ZM94.4 100.1C94.3 100.2 94.2 100.2 94.2 100.3 94.6 100.9 95 101.4 95.4 101.9 97.5 104.8 99.5 107.7 101.6 110.6 101.9 111 102.1 111.1 102.6 110.9 104.2 110.2 106 109.5 107.6 108.7 108.5 108.3 109.3 107.6 110.2 107 110.3 106.9 110.5 106.6 110.4 106.4 110.2 105.7 109.8 105 109.5 104.3 109.2 104.6 109 104.8 108.7 105 109.4 106.4 109.6 106.2 108.4 107.1 106.7 108.4 104.7 109.1 102.6 109.7 102 109.9 101.3 109.7 100.9 109 100.6 108.5 100.3 108.1 99.9 107.6 98.1 105.1 96.2 102.6 94.4 100.1Z" class="a"/><path d="M81.8 31C84.7 29.9 87.5 28.6 89.8 26.6 89.5 26.4 89.1 26.1 88.7 25.7 90.2 24.2 91.6 23.6 93.4 24.3 92.6 23.2 92.6 23.2 91.4 23.7 90.8 23.9 90.1 24.3 89.5 24.5 88.4 24.9 88 24.5 88.2 23.4 87.8 23.5 87.5 23.5 87.3 23.6 85.7 24.5 84.2 25.3 82.7 26.2 82.2 26.5 81.8 26.9 81.3 27.2 81 27.3 80.6 27.4 80.2 27.4 80.2 27.4 80.2 27.3 80.1 27.2 80.3 27.1 80.4 26.9 80.5 26.8 82.3 25.7 84.2 24.6 86 23.5 87.2 22.9 88.5 22.8 89.6 23.6 89.8 23.7 90 23.7 90.2 23.7 93.3 22.7 92.4 22.7 94.4 24.7 97.1 27.5 99.2 30.6 101.4 33.7 101.5 33.9 101.7 34.2 101.8 34.4 104.2 33.5 106.6 32.7 108.7 31.2 108.3 30.6 108 30 107.7 29.5 106.5 29.8 105.5 30.1 104.4 30.3 104.1 30.3 103.6 30.1 103.5 29.9 101.5 26.8 99.6 23.7 97.7 20.5 95.5 17 93.5 13.3 91.4 9.7 91.1 9.3 91 8.8 90.7 8.4 90.1 7.5 90.2 6.7 90.9 5.9 92.4 4.2 94.2 3.1 96.4 2.6 97.2 2.5 97.6 2.8 98 3.3 101.2 7.9 104.3 12.6 106.9 17.5 108.1 19.9 109.3 22.4 110.5 24.8 110.7 25.2 111.1 25.7 111 26 110.7 26.7 110.2 27.3 109.8 27.9 109.8 28 109.6 28 109.5 28.1 110.1 29 110.6 30 111.1 30.9 111.3 31.2 111.4 31.5 111.1 31.9 109.8 33.8 107.8 34.7 105.9 35.5 104.8 36 103.5 36.2 102.4 36.5 102.1 36.5 101.7 36.3 101.5 36.1 98.7 32.5 95.9 28.8 93.2 25.1 92.7 24.5 92.2 24.4 91.5 24.6 91.2 24.7 90.9 24.9 90.6 25 91 26.1 90.5 26.9 89.6 27.5 87.6 29.1 85.4 30.2 83 31.1 82.7 31.2 82.3 31.2 81.9 31.3 81.9 31.2 81.9 31.1 81.8 31ZM92.2 6C92.2 6 92.3 6 92.3 6.1 92.4 6.3 92.4 6.6 92.5 6.9 93.1 8.5 93.6 10.2 94.5 11.7 96.9 15.9 99.5 20 102 24.1 103 25.7 104.1 27.2 105.7 28.3 106 28.5 106.5 28.7 106.8 28.6 107.7 28.1 108.7 27.7 109.5 27 110.7 26.1 110.6 25.9 109.9 24.6 108.2 21.7 106.7 18.6 104.9 15.7 102.5 11.6 99.9 7.6 97.5 3.5 97.1 3 96.8 2.9 96.3 3.2 95.2 3.7 94 4.3 92.9 5 92.6 5.2 92.4 5.6 92.2 6ZM94.2 25.1C94.2 25.1 94.1 25.1 94.1 25.2 94.4 25.6 94.7 26 95 26.4 97.2 29.5 99.4 32.6 101.6 35.7 101.9 36 102.1 36.1 102.5 35.9 104 35.3 105.5 34.7 106.9 34 108.1 33.5 109.1 32.8 110.1 32.1 110.3 32 110.5 31.6 110.4 31.4 110.2 30.7 109.8 30 109.4 29.2 109.1 29.5 108.9 29.7 108.7 29.9 109.5 31.2 109.4 31.4 108.2 32.2 106.6 33.3 104.8 34.1 102.9 34.6 101.8 34.9 101.4 34.7 100.9 33.9 99.8 32.4 98.8 30.9 97.6 29.4 96.5 27.9 95.4 26.5 94.2 25.1Z" class="a"/><path d="M7 31C9.8 29.9 12.6 28.6 15 26.6 14.8 26.4 14.6 26.3 14.4 26.1 14.3 26 14.1 25.8 14 25.6 15.3 24.2 16.8 23.6 18.6 24.4 18.6 24.3 18.6 24.3 18.6 24.3 17.5 23.2 18 23.2 16.4 23.7 15.8 23.9 15.2 24.3 14.5 24.5 13.5 24.9 13.2 24.5 13.3 23.3 12.8 23.5 12.4 23.5 12 23.7 10.6 24.5 9.2 25.4 7.9 26.2 7.4 26.5 6.9 26.9 6.4 27.2 6.1 27.3 5.7 27.3 5.4 27.4 5.3 27.4 5.3 27.3 5.3 27.2 5.4 27.1 5.5 26.9 5.6 26.8 7.4 25.7 9.3 24.6 11.1 23.6 12.4 22.9 13.6 22.8 14.8 23.6 15 23.7 15.2 23.7 15.4 23.6 18.3 22.7 17.5 22.7 19.4 24.6 22.1 27.4 24.3 30.6 26.5 33.7 26.7 33.9 26.8 34.1 26.9 34.4 29.3 33.5 31.7 32.7 33.8 31.2 33.5 30.5 33.1 30 32.8 29.4 32 29.7 31.2 29.9 30.4 30.2 29.5 30.4 28.8 30.4 28.3 29.5 27 27.3 25.6 25.2 24.3 23 21.8 18.8 19.4 14.7 16.9 10.5 16.4 9.7 16 8.8 15.6 7.9 15.3 7.4 15.4 6.9 15.7 6.4 17.1 4.3 19.1 3.2 21.4 2.6 22.4 2.4 22.8 2.8 23.2 3.5 27.4 9.3 31.1 15.4 34.2 21.7 34.7 22.8 35.2 23.9 35.7 25 35.8 25.3 36 25.5 36.3 26 35.8 26.7 35.3 27.4 34.7 28.2 35.2 29 35.7 30 36.2 30.9 36.4 31.2 36.5 31.5 36.2 31.9 34.9 33.7 32.9 34.7 30.9 35.5 29.8 36 28.6 36.2 27.4 36.5 27.2 36.5 26.8 36.3 26.7 36.1 23.9 32.5 21.1 28.8 18.4 25.2 17.7 24.3 17.5 24.3 16.5 24.7 16.2 24.8 16 24.9 15.7 25 16.1 26.2 15.5 26.9 14.6 27.6 12.5 29.1 10.3 30.4 7.9 31.1 7.6 31.2 7.3 31.2 7.1 31.2 7 31.1 7 31.1 7 31ZM17.3 5.9C17.4 6 17.4 6 17.4 6.1 17.5 6.5 17.6 6.9 17.7 7.3 18.5 9.9 19.8 12.2 21.1 14.5 23.2 17.8 25.3 21.2 27.4 24.5 28.3 26 29.4 27.3 30.9 28.3 31.2 28.5 31.6 28.7 31.8 28.6 33.2 28.1 34.6 27.4 35.4 26.2 35.7 25.8 35.6 25.6 35.4 25.2 34.7 24.1 33.9 22.9 33.3 21.7 30.1 15.4 26.5 9.4 22.6 3.5 22.3 3 21.9 2.9 21.5 3.2 20.3 3.7 19.2 4.3 18.1 5 17.7 5.2 17.6 5.6 17.3 5.9ZM19.9 25.7C19.8 25.7 19.8 25.8 19.7 25.8 20.1 26.4 20.5 26.9 21 27.5 22.9 30.2 24.8 32.9 26.7 35.6 27 36 27.3 36.1 27.8 35.9 29.2 35.3 30.6 34.8 31.8 34.2 33 33.6 34.1 32.8 35.3 32.1 35.4 32 35.6 31.6 35.6 31.4 35.3 30.7 35 30 34.6 29.3 34.3 29.5 34.1 29.7 33.9 29.9 34.6 31.3 34.6 31.4 33.3 32.2 31.7 33.3 30 34 28.2 34.6 27.1 34.9 26.5 34.7 26 33.9 25 32.4 23.9 30.9 22.8 29.4 21.9 28.1 20.8 26.9 19.9 25.7Z" class="a"/><path d="M36.2 101C35.7 101.7 35.1 102.4 34.6 103.2 35.1 104 35.6 104.9 36.1 105.8 36.3 106.3 36.3 106.6 36 107 33.6 109.7 30.6 111 27.2 111.5 27 111.5 26.7 111.3 26.5 111.1 23.7 107.5 21 103.8 18.2 100.2 17.6 99.3 17.4 99.3 16.3 99.7 16.1 99.8 15.8 99.9 15.6 100 15.9 101.1 15.5 101.9 14.6 102.5 12.5 104.1 10.2 105.4 7.7 106.1 7.4 106.2 7.2 106.2 6.9 106.1 9.7 104.9 12.4 103.6 14.8 101.6 14.5 101.3 14.1 101 13.7 100.7 15.2 99.2 16.6 98.6 18.4 99.3 18.4 99.3 18.4 99.2 18.4 99.2 17.5 98.3 17.5 98.2 16.3 98.7 15.7 99 15.1 99.3 14.5 99.5 13.4 99.9 13 99.6 13.2 98.3 12.7 98.5 12.2 98.5 11.8 98.7 10.4 99.6 8.9 100.5 7.4 101.4 7 101.7 6.6 102 6.2 102.2 5.9 102.3 5.5 102.4 5.2 102.4 5.2 102.4 5.2 102.3 5.1 102.2 5.2 102.1 5.3 101.9 5.5 101.8 7.3 100.7 9.1 99.6 11 98.5 12.2 97.9 13.4 97.8 14.6 98.6 14.8 98.7 15.1 98.7 15.3 98.6 18.2 97.7 17.4 97.7 19.3 99.7 22 102.4 24.2 105.6 26.4 108.7 26.5 108.9 26.6 109.1 26.8 109.4 29.1 108.5 31.6 107.7 33.7 106.2 33.3 105.5 33 104.9 32.7 104.5 31.5 104.8 30.4 105.1 29.3 105.3 29.1 105.3 28.6 105.1 28.5 104.8 27 102.5 25.5 100.2 24.1 97.9 21.6 93.8 19.2 89.6 16.8 85.4 16.3 84.6 15.9 83.7 15.4 82.9 15.2 82.3 15.2 81.8 15.6 81.4 16.9 79.3 18.9 78.2 21.2 77.6 22.1 77.4 22.6 77.7 23.1 78.4 26 82.6 28.9 86.9 31.3 91.4 32.8 94.3 34.2 97.3 35.7 100.2 35.8 100.4 35.9 100.6 36.2 101ZM21.9 78C21.6 78.1 21.4 78.1 21.3 78.2 20.3 78.7 19.2 79.1 18.3 79.7 17.2 80.4 17.1 80.7 17.5 81.8 18.1 83.5 18.6 85.3 19.5 86.8 21.9 90.9 24.5 95 27 99.1 28 100.7 29.1 102.2 30.7 103.3 31 103.5 31.4 103.7 31.7 103.6 33.1 103.1 34.4 102.5 35.3 101.1 35.5 100.8 35.5 100.6 35.3 100.2 34.5 99.1 33.8 98 33.2 96.8 30 90.4 26.3 84.3 22.3 78.4 22.2 78.2 22 78.1 21.9 78ZM33.7 104.9C34.5 106.2 34.4 106.4 33.2 107.2 31.6 108.3 29.8 109 27.9 109.6 27 109.9 26.5 109.8 25.9 109 24.6 107.2 23.4 105.4 22.1 103.7 21.2 102.4 20.2 101.3 19.2 100.1 19.1 100.1 19.1 100.1 19.1 100.2 19.4 100.6 19.7 101 20 101.4 22.2 104.5 24.4 107.5 26.6 110.6 26.9 111 27.2 111.1 27.6 110.9 28.8 110.4 30.1 110 31.2 109.4 32.6 108.7 33.8 107.9 35.1 107.1 35.3 107 35.5 106.6 35.4 106.5 35.2 105.7 34.8 105 34.5 104.3 34.2 104.5 34 104.7 33.7 104.9Z" class="a"/><path d="M133.8 80.1C133.1 79.5 132.5 78.9 131.9 78.4 131.3 77.9 131.2 77.6 131.7 77 131.9 76.8 132.2 76.6 132.4 76.4 132.6 76.3 132.8 76.1 133.1 75.9 132.3 75.4 131.6 75 130.8 74.4 130.8 74.4 130.7 74.5 130.4 74.7 130.5 74.5 130.4 74.4 130.5 74.3 131.4 73.5 132.3 72.6 133.3 71.9 135.5 70.2 137.8 68.6 140.1 66.9 140.4 66.7 140.7 66.6 140.9 67 141.5 67.9 142 68.8 142.5 69.7 142.6 69.9 142.5 70.3 142.3 70.4 141.1 71.7 139.9 73 138.6 74.1 137.6 75.1 136.5 75.8 135.4 76.7 134.9 77 134.4 77 133.9 76.7 133.3 76.3 132.2 76.8 132 77.5 132 77.6 132.1 77.8 132.2 77.9 132.7 78.4 133.2 78.9 133.7 79.5 134.1 79.9 134.1 80.3 133.7 80.7 132.3 82.1 131 83.5 129.5 84.7 125.9 87.6 122.2 90.1 118.2 92.2 116.9 92.9 115.4 93.2 114 93.6 113.5 93.8 113.2 93.4 113.5 92.9 114 91.9 114.5 91 115.1 90.1 118.5 85 122.6 80.5 127.5 76.8 128.1 76.3 128.9 75.8 129.6 75.4 129.7 75.3 129.8 75.2 130 75.2 123.6 80.4 117.8 86.1 113.6 93.4 115.2 93.1 116.7 92.6 118 91.8 122.3 89.3 126.5 86.5 130.3 83.2 131.4 82.3 132.5 81.2 133.8 80.1Z" class="a"/><path d="M38.6 93.3C41.5 93 43.6 91.6 45.7 90.1 48.9 88 52 85.7 55 83.4 56.3 82.5 57.4 81.3 58.7 80.1 58.1 79.5 57.5 78.9 56.9 78.4 56.3 77.9 56.2 77.6 56.7 77 57.1 76.6 57.6 76.3 58 75.9 57.4 75.4 56.7 74.9 56 74.4 55.9 74.4 55.8 74.5 55.6 74.6 55.6 74.6 55.5 74.5 55.5 74.5 55.7 74.2 55.9 73.9 56.2 73.7 58.2 72.1 60.1 70.6 62.1 69.1 63.1 68.3 64.2 67.6 65.2 66.9 65.6 66.6 65.8 66.6 66 67 66.6 67.9 67.1 68.8 67.6 69.7 67.7 69.8 67.6 70.2 67.5 70.4 66.2 71.6 65 72.9 63.7 74.1 62.7 75 61.5 75.8 60.4 76.6 59.9 76.9 59.4 77 58.9 76.6 58.3 76.2 57.1 76.8 57 77.5 56.9 77.6 57.1 77.8 57.2 77.9 57.7 78.4 58.2 78.9 58.7 79.4 59 79.8 59.1 80.3 58.7 80.7 57.3 82 55.9 83.5 54.4 84.7 50.9 87.6 47.1 90.1 43.1 92.2 41.8 92.9 40.4 93.2 39 93.6 38.5 93.7 38.2 93.4 38.5 92.9 39.1 91.7 39.8 90.5 40.5 89.4 43.4 85.2 46.8 81.5 50.7 78.1 52 77 53.4 76.1 54.8 75.1 54.9 75.1 54.9 75.2 55 75.2 52.9 77 50.8 78.7 48.9 80.5 46.9 82.4 45.1 84.5 43.3 86.5 41.5 88.6 40 90.8 38.6 93.3Z" class="a"/><path d="M132.7 67.2C132.4 67.6 132.1 67.9 131.8 68.2 129.5 69.7 127.2 71.1 124.9 72.6 121.9 74.6 118.9 76.5 115.8 78.5 115.4 78.8 114.9 79.1 114.4 79.4 114.1 79.6 113.7 79.6 113.4 79.2 112.9 78.3 112.9 77.6 113.7 77 118.1 74.1 122.4 71.1 126.8 68.3 128.5 67.2 130.5 66.2 132.3 65.1 133.1 64.6 133.8 63.9 134.6 63.4 135.9 62.6 137.2 61.9 138.5 61.2 138.7 61.1 138.8 61.1 138.9 61 139.5 59.5 140.8 59.4 142.1 59.2 142.9 59 143.7 59 144.4 58.8 145.4 58.6 146 57.9 146.4 57 146.5 56.8 146.7 56.7 146.9 56.5 147 56.7 147.2 56.9 147.2 57.1 147.6 60.1 146.2 61.6 144 62.6 143.2 63 142.1 63 141.2 63 140.3 63.1 139.7 63.3 139.1 63.9 137.8 65.3 136.2 66 134.3 66.4 134.1 66.4 133.9 66.6 133.7 66.7 133.6 66.6 133.4 66.4 133.4 66.3 133.3 65.5 133.1 65.7 132.6 66 131.1 67 129.5 68 127.9 69 123.3 71.8 118.8 74.7 114.2 77.6 113.9 77.8 113.5 77.9 113.9 78.3 114.1 78.6 114.4 78.9 114.9 78.5 119.5 75.4 124.1 72.3 128.7 69.3 129.6 68.6 130.5 68 131.5 67.4 131.8 67.2 132.2 67.1 132.6 67 132.6 67.1 132.7 67.2 132.7 67.2ZM142.2 61.7C142.9 61.3 143.7 61 144.4 60.6 143.8 60.5 143 60.6 142.7 60.3 142.4 59.9 142.1 60 141.8 60 140.9 60.2 139.9 60.3 139.3 61.2 139.5 61.5 139.6 61.7 139.8 61.9 139.9 62.1 140.2 62.2 140.4 62.2 141.1 62.2 141.7 62 142.5 61.9 142.3 61.8 142.3 61.8 142.2 61.7Z" class="a"/><path d="M58.8 66.8C58.6 66.5 58.5 66.2 58.5 66 58.4 65.7 58.2 65.6 57.9 65.8 56.1 67 54.2 68.2 52.3 69.4 49.6 71.1 46.8 72.8 44.1 74.5 42.4 75.5 40.8 76.6 39.2 77.6 38.9 77.8 38.5 78 38.9 78.4 39.2 78.7 39.5 78.9 40 78.5 43.4 76.1 46.9 73.8 50.4 71.5 52.4 70.1 54.4 68.8 56.4 67.5 56.8 67.3 57.3 67.2 57.7 67 57.7 67.1 57.8 67.2 57.9 67.2 57.5 67.6 57.3 67.9 56.9 68.2 54.5 69.7 52.2 71.2 49.8 72.8 46.7 74.7 43.7 76.7 40.6 78.6 40.2 78.9 39.8 79.2 39.4 79.4 39.1 79.6 38.7 79.6 38.5 79.2 38.1 78.6 37.8 77.6 38.7 77 41.7 75 44.6 72.9 47.6 71 50.3 69.2 53.2 67.6 56 65.9 56.4 65.6 56.8 65.5 57.2 65.3 57.5 65.1 57.7 64.8 58 64.6 59.8 63.3 61.6 62 63.7 61.2 63.8 61.2 63.9 61.1 64 61 64.6 59.5 66 59.4 67.3 59.2 68.1 59 68.8 59 69.6 58.8 70.6 58.6 71.2 57.9 71.5 57.1 71.6 56.9 71.9 56.7 72 56.6 72.1 56.8 72.3 57 72.3 57.2 72.7 59.9 71.6 61.3 69.3 62.5 68.5 62.9 67.3 63 66.3 63.1 65.5 63.1 64.8 63.3 64.2 64 62.9 65.3 61.3 66.1 59.4 66.4 59.2 66.4 59.1 66.6 58.8 66.8ZM69.5 60.6C68.8 60.4 68 60.9 67.6 60 67.6 60 67.5 60 67.5 60 66.6 60.2 65.7 60.4 64.9 60.7 64.7 60.8 64.5 61.2 64.5 61.3 64.7 61.7 65 62.2 65.3 62.2 66.1 62.2 66.8 62 67.6 61.9 67.5 61.9 67.5 61.8 67.4 61.7 67.5 61.7 67.5 61.6 67.6 61.5 68.2 61.2 68.9 60.9 69.5 60.6Z" class="a"/><path d="M31.6 71.9C29.7 70.3 28.8 67.8 27.2 65.8 25.9 66.7 24.5 67.4 22.9 67.7 22.8 67.6 22.8 67.5 22.7 67.4 24.1 66.6 25.4 65.8 26.7 65 26.7 64.9 26.6 64.8 26.6 64.7 26.4 64.8 26.1 64.8 25.9 65 24.8 65.6 23.7 66.1 22.4 66.3 22.3 66.3 22.3 66.2 22.3 66.1 23.5 65.4 24.8 64.7 26 64 25.9 63.8 25.8 63.7 25.7 63.5 24.4 64.1 23 64.6 21.6 65.1 21.6 65 21.6 64.9 21.5 64.8 22.8 64.2 24 63.6 25.3 63 25.1 62.4 24.9 62.2 24.3 62.6 23.4 63.1 22.4 63.5 21.4 63.9 21.3 63.9 21.3 63.8 21.3 63.8 22.4 63.2 23.5 62.6 24.7 62 24.5 61.8 24.4 61.6 24.2 61.3 23 62 21.9 62.6 20.6 62.6 20.6 62.6 20.6 62.5 20.5 62.5 21.6 61.9 22.7 61.3 23.8 60.8 23.6 60.5 23.5 60.3 23.3 60.1 22.2 60.5 21.2 61 20.1 61.4 20.1 61.3 20 61.3 20 61.2 21 60.7 21.9 60.2 23 59.6 22.4 58.8 21.9 58.1 21.4 57.4 19 54.3 16.6 51.2 14.2 48.1 14.1 47.9 13.7 47.8 13.5 47.8 11.9 48.1 10.6 48.9 9.4 49.9 8.7 50.4 8 51.1 7.3 51.8 8.3 53.2 9.3 54.6 10.3 55.9 13.8 60.5 17.3 65.2 20.7 69.8 21.8 71.2 23 72.6 24.1 74.1 24.4 74.5 24.6 75 24.8 75.5 24.8 75.5 24.7 75.6 24.6 75.6 24.4 75.4 24.1 75.3 23.9 75.1 21.8 72.3 19.8 69.6 17.7 66.8 15 63.1 12.2 59.3 9.5 55.5 8.6 54.2 7.7 52.9 6.9 51.7 7.2 51.2 7.4 50.8 7.6 50.4 7.9 50.1 8.2 49.8 8 49.2 7.8 48.7 7.8 48.1 8.5 47.8 8.1 47.2 7.8 46.6 7.3 46.2 5.7 44.6 4.4 42.7 3.3 40.7 3.2 40.6 3.2 40.4 3.1 40.3 2.7 39.2 2.7 38.7 3.3 38.3 3.9 37.8 5 37.8 5.7 38.4 7 39.4 7.9 40.8 8.6 42.3 9.1 43.3 9.4 44.3 9.7 45.4 10.1 46.4 10.4 46.6 11.5 46.7 11.6 46.7 11.8 46.7 12 46.8 12.6 47.1 13.2 47.4 14 47.3 14.2 47.3 14.5 47.7 14.7 48 15.6 49.1 16.4 50.1 17.3 51.2 22 57 26.6 62.9 30.6 69.3 31.1 70.1 31.5 71 31.9 71.8 31.8 71.8 31.7 71.9 31.6 71.9ZM9.4 46.6C9.2 46.2 9 45.8 8.9 45.4 8.5 43.8 7.8 42.3 6.9 40.9 6.4 40.2 5.7 39.4 5.1 38.8 4.8 38.6 4.2 38.7 3.9 38.8 3.7 38.8 3.7 39.5 3.8 39.7 4.5 41.1 5.3 42.4 6.2 43.7 7 44.8 8 45.8 8.9 46.9 9.1 46.9 9.2 46.8 9.4 46.6ZM12 47.5C11.5 47.2 11 47.1 10.5 47.4 10 47.7 9.5 48.1 8.9 48.4 8.5 48.6 8.3 48.9 8.5 49.3 9.7 48.7 10.8 48.1 12 47.5Z" class="a"/><path d="M102.1 65.7C100.7 66.8 99.3 67.4 97.5 67.7 98.7 66.4 100.5 66.1 101.6 64.9 101.5 64.8 101.5 64.7 101.4 64.6 100.8 65 100.1 65.4 99.4 65.7 98.7 65.9 98 66.1 97.2 66.4 97.2 66.3 97.2 66.2 97.1 66.1 97.7 65.8 98.3 65.4 98.9 65 99.6 64.7 100.2 64.4 100.9 64.1 100.8 63.8 100.7 63.6 100.6 63.5 99.2 64 97.8 64.6 96.5 65.1 96.4 65 96.4 64.9 96.4 64.8 97.6 64.2 98.9 63.6 100.2 63 100 62.4 99.7 62.3 99.2 62.6 98.2 63.1 97.2 63.5 96.2 63.9 96.2 63.8 96.2 63.8 96.1 63.7 97.3 63.2 98.4 62.6 99.5 62 99.4 61.7 99.2 61.5 99.1 61.3 97.9 61.9 96.8 62.6 95.5 62.6 95.4 62.5 95.4 62.5 95.4 62.4 96.5 61.9 97.5 61.3 98.7 60.7 98.5 60.4 98.3 60.2 98.2 60 97.1 60.5 96 60.9 94.9 61.3 94.9 61.3 94.9 61.2 94.8 61.2 95.8 60.6 96.8 60.1 97.8 59.5 96.9 58.4 96.2 57.3 95.4 56.3 93.3 53.5 91.2 50.8 89.1 48.1 88.9 47.9 88.5 47.7 88.3 47.8 86.4 48.2 84.8 49.3 83.4 50.6 83 51 82.6 51.3 82.1 51.8 84.1 54.4 86.1 57 88.1 59.6 90.1 62.2 92.1 64.8 93.9 67.5 95.8 70.2 98.1 72.6 99.8 75.4 99.7 75.5 99.7 75.5 99.6 75.6 99.3 75.4 99 75.2 98.8 74.9 97.3 73.2 95.9 71.5 94.5 69.6 91.1 64.9 87.7 60.2 84.3 55.5 83.4 54.2 82.5 52.9 81.7 51.7 82 51.2 82.1 50.9 82.4 50.6 82.8 50.1 82.9 49.6 82.8 48.9 82.7 48.5 83 48.1 83.1 47.7 83.2 47.7 83.2 47.7 83.3 47.7 83 47.2 82.6 46.6 82.2 46.2 80.6 44.6 79.2 42.7 78.2 40.7 78.1 40.6 78 40.4 78 40.2 77.5 39.2 77.6 38.7 78.2 38.3 78.7 37.8 79.8 37.8 80.5 38.4 81 38.8 81.6 39.4 82 39.9 83.2 41.5 84.1 43.3 84.6 45.3 84.9 46.4 85.1 46.6 86.4 46.6 86.6 46.7 86.9 46.7 87.1 46.9 87.5 47.2 88 47.4 88.6 47.3 89.1 47.2 89.2 47.6 89.5 47.9 90.3 49 91.2 50.1 92.1 51.2 97 57.1 101.7 63.2 105.7 69.8 106 70.3 106.3 71 106.6 71.6 106.6 71.6 106.6 71.7 106.6 71.8 106 71.6 105.1 70.6 104.1 69 103.5 67.9 102.8 66.9 102.1 65.7ZM84.3 46.7C84.1 46.1 83.9 45.7 83.7 45.3 83.1 43.8 82.4 42.2 81.6 40.8 81.2 40 80.6 39.4 80 38.8 79.7 38.6 79.1 38.7 78.7 38.8 78.6 38.8 78.5 39.5 78.7 39.8 79.4 41.1 80.1 42.4 81 43.7 81.8 44.8 82.8 45.8 83.8 47 83.9 46.9 84.1 46.8 84.3 46.7ZM86.8 47.5C86.4 47.2 85.9 47.1 85.4 47.4 84.9 47.7 84.3 48.1 83.7 48.4 83.3 48.6 83.2 48.9 83.4 49.3 84.5 48.7 85.7 48.1 86.8 47.5Z" class="a"/><path d="M44.7 23.7C44 22.1 44.6 20.7 45.9 19.5 47.7 18 49.5 16.5 51.6 15.3 53.1 14.4 54.7 14.1 56.3 15.1 57.4 14.4 58.6 13.6 59.8 13.7 62.3 13.8 64.8 14.2 66.8 16 67 16.2 67.3 16.5 67.4 16.9 67.7 17.4 67.5 17.8 66.9 17.8 66.4 17.8 65.9 17.7 65.5 17.6 64.5 17.4 63.6 17.7 62.8 18.2 61.8 19 60.7 19.6 59.6 20.2 59.9 20 60.1 19.7 60.4 19.5 61.1 19 61.8 18.6 62.5 18.1 62.7 18 62.9 17.6 62.9 17.4 62.7 16.1 62.2 14.9 61 14.2 60.8 14 60.4 13.9 59.9 13.8 60.7 15.5 61.2 17.1 61.2 18.8 61.1 18.8 61 18.9 60.9 18.9 60.2 17.4 59.5 15.9 58.9 14.4 58.9 14.4 59 14.3 59.1 14.3 59.5 14.9 59.9 15.6 60.3 16.2 60.4 16.2 60.4 16.2 60.5 16.2 60.2 15.5 60 14.8 59.7 14.2 59.6 14.1 59.4 14 59.2 14.1 58.5 14.3 57.8 14.5 57.2 14.8 57.8 15.6 58.5 16.3 59 17.2 59.6 18.1 59.7 19.1 59.5 20.1 59.3 20.7 59.3 21.4 59.2 22 59 23 58.5 23.8 57.8 24.5 56.1 26 54.4 27.4 52.3 28.4 51.3 28.9 50.2 29.1 49.1 28.9 48.8 28.8 48.3 29.1 48.1 29.4 47.7 30 47.4 30.7 47 31.3 46 32.4 45.8 33.8 45.7 35.2 45.7 35.5 45.7 35.9 45.6 36.3 45.6 36.6 45.4 37 45.2 37.1 45 37.2 44.6 37 44.4 36.7 43.5 35.8 43.1 34.7 42.9 33.4 42.8 32.8 42.9 32.2 43 31.6 43 31.5 42.9 31.4 42.9 31.4 42.1 30.2 42.4 29 42.6 27.8 42.8 26.6 43.2 25.5 43.9 24.6 44.2 24.3 44.4 24 44.7 23.7ZM43.4 26.1C43.6 26.1 43.8 26.2 43.9 26.3 44.9 27.7 45.9 29.1 47.1 30.6 47.5 29.9 47.8 29.3 48.2 28.7 46.1 27.8 45.4 26.1 44.5 24.3 44.1 24.9 43.7 25.5 43.4 26.1 43.4 26.3 43.2 26.7 43.4 26.8 43.9 27.6 44.5 28.3 45 29.1 45.1 29 45.1 29 45.1 29 44.6 28 44 27 43.4 26.1ZM46.5 19.5C46.3 19.7 46 20 45.8 20.3 44.7 21.4 44.5 22.3 45.2 23.6 45.7 24.7 46.3 25.8 47 26.7 47.8 27.8 48.9 28.6 50.3 28.5 51.2 28.4 52 28 53 27.7 51 24.7 49.9 21.3 46.5 19.5ZM56.7 24.8C58.2 23.9 58.9 22.5 59.2 20.8 59.5 18.9 57.3 16.1 55.8 15.4 54.3 14.8 53 15 51.7 15.8 53.8 18.6 56.1 21.2 56.7 24.8ZM55.2 26C54 22.5 52.2 19.6 49.8 17 49.3 17.3 48.8 17.7 48.4 18 51.1 20.4 53.1 23.1 54.3 26.5 52.4 23.6 50.8 20.5 48 18.3 47.7 18.6 47.4 18.8 47.1 19.1 50.5 20.9 51.6 24.3 53.4 27.3 54 26.9 54.6 26.4 55.2 26ZM50.1 16.8C51.6 17.9 52.6 19.4 53.5 20.9 54.5 22.4 55.3 23.9 55.5 25.7 56.4 25.2 56.4 25.2 56.1 24.4 56.1 24.3 56 24.1 56 24 55.1 21 53.1 18.6 51.4 16 50.9 16.3 50.5 16.5 50.1 16.8ZM43.1 27.4C42.9 28 42.8 28.4 42.8 28.8 42.9 29.5 42.9 30.2 43.2 30.9 43.6 31.7 44.4 32.1 45.4 32.1 46.1 32.1 46.3 31.4 46.6 30.9 45.1 30.1 44 28.9 43.1 27.4ZM63.4 17.3C64.7 17.3 65.9 17.3 67.2 17.3 66.7 16 63.8 14.3 62.5 14.5 62.7 15 62.9 15.4 63.1 15.9 63.2 16.4 63.3 16.9 63.4 17.3ZM43.1 32.5C43 34.1 44.1 36.5 45.2 36.7 45.4 35.6 45.5 34.4 45.6 33.5 44.7 33.1 43.9 32.8 43.1 32.5Z" class="a"/><path d="M136.1 93.9C135.9 93.8 135.7 93.7 135.6 93.6 135 92.3 134.4 91 133.8 89.7 133.7 89.6 133.8 89.5 133.8 89.4 133.8 89.4 133.9 89.3 134 89.3 134.4 90 134.8 90.6 135.2 91.2 135.3 91.2 135.3 91.2 135.3 91.2 135.1 90.5 134.9 89.8 134.6 89.2 134.5 89.1 134.3 89 134.2 89.1 133.4 89.3 132.7 89.6 131.8 89.9 133 90.5 133.6 91.5 134.2 92.6 134.7 93.8 134.3 95 134.2 96.2 134.1 98.1 133 99.4 131.5 100.5 130.2 101.4 128.9 102.4 127.5 103.2 126.4 103.9 125.2 104.1 123.9 103.8 123.6 103.8 123.2 104.1 123 104.4 122.4 105.3 121.8 106.1 121.4 107.1 121 108.1 120.8 109.2 120.6 110.3 120.5 110.6 120.6 111.1 120.5 111.4 120.5 111.7 120.3 112 120.1 112.1 119.9 112.2 119.5 112 119.4 111.8 118.4 110.9 118 109.7 117.8 108.4 117.7 107.9 117.8 107.2 117.8 106.6 117.8 106.5 117.8 106.4 117.8 106.4 117.2 105.5 117.2 104.4 117.4 103.4 117.6 101.9 118 100.5 119 99.3 119.1 99.1 119.4 99 119.6 98.7 118.8 97 119.4 95.6 120.9 94.5 121.3 94.1 121.7 93.7 122.1 93.4 123.6 92.3 125 91.3 126.5 90.3 128 89.3 129.6 89.1 130.9 90 132.2 89.5 133.4 89 134.5 88.7 135 88.5 135.6 88.8 136.1 88.8 136.7 88.9 137.4 89 138.1 89.2 139.3 89.5 140.5 90 141.6 90.9 141.7 91 141.9 91.2 141.9 91.3 142.1 91.7 142.2 92.1 142.3 92.6 141.9 92.6 141.5 92.7 141.1 92.7 140.3 92.7 139.6 92.6 138.8 92.7 138.5 92.7 138.2 92.9 137.9 93.1 136.8 93.8 135.7 94.6 134.5 95.2 134.7 95 135 94.7 135.2 94.5 135.5 94.3 135.8 94.1 136.1 93.9 136.5 93.7 136.9 93.4 137.3 93.2 137.8 93 137.9 92.5 137.7 92 137.4 91.2 137 90.5 136.6 89.7 136.2 89.2 135.7 88.8 134.9 88.9 135.2 89.7 135.5 90.5 135.7 91.3 135.9 92.2 136 93 136.1 93.9ZM118.3 101.1C118.4 101.1 118.7 101.1 118.7 101.3 119.8 102.6 120.8 104.1 121.9 105.6 122.4 104.9 122.7 104.3 123 103.7 121 102.9 120.3 101.1 119.3 99.3 119 99.9 118.6 100.5 118.3 101.1 118.2 101.3 118.1 101.7 118.2 101.8 118.7 102.6 119.3 103.3 119.9 104.1 119.9 104 120 104 120 104 119.4 103 118.8 102 118.3 101.1ZM121.4 94.5C121.1 94.8 120.8 95.1 120.5 95.4 119.6 96.3 119.4 97.3 119.9 98.4 120.4 99.5 121 100.6 121.8 101.5 123.6 103.8 125.2 104 127.7 102.6 125.9 99.7 124.8 96.3 121.4 94.5ZM131.5 99.8C133.1 98.9 133.8 97.5 134.1 95.8 134.3 93.7 131.8 90.6 129.8 90.1 128.6 89.8 127.6 90.2 126.6 90.8 128.7 93.6 130.9 96.3 131.5 99.8ZM123.1 93.1C125.1 94.1 129.1 99.9 129.1 101.6 127.2 98.6 125.6 95.6 122.8 93.3 122.5 93.6 122.2 93.8 121.9 94.1 124.6 95.8 125.5 96.9 128.2 102.4 128.9 101.9 129.5 101.4 130.1 101 128.9 97.5 127.1 94.6 124.6 92 124.2 92.3 123.7 92.7 123.1 93.1ZM126.2 91C126 91.2 125.8 91.3 125.6 91.4 125.4 91.5 125.2 91.7 125 91.7 127.6 94.3 129.6 97.1 130.4 100.7 130.7 100.5 131 100.3 131.2 100.2 130.3 96.6 128.3 93.9 126.2 91ZM121.3 106.1C120.1 104.9 119 103.8 117.9 102.6 117.7 103.6 117.4 104.7 117.9 105.7 118.3 106.6 119.1 107 120.1 107.1 120.9 107.2 121.1 106.5 121.3 106.1ZM142.1 92.4C141.5 91 138.7 89.3 137.4 89.5 137.7 90.5 138 91.4 138.3 92.4 138.9 92.3 139.5 92.2 140.1 92.2 140.7 92.2 141.4 92.3 142.1 92.4ZM117.9 107.5C117.8 109 118.9 111.3 120.1 111.8 120.2 110.6 120.4 109.4 120.5 108.5 119.6 108.1 118.8 107.8 117.9 107.5Z" class="a"/><path d="M131.1 15.1C132.3 14.3 133.5 13.8 134.7 13.6 135.2 13.6 135.7 13.8 136.1 13.9 136.8 14 137.4 14 138.1 14.2 139.4 14.5 140.6 15.1 141.6 16 142.1 16.4 142.6 16.9 142.3 17.5 142 18.1 141.3 17.8 140.8 17.7 139.5 17.4 138.4 17.6 137.4 18.4 136.5 19.2 135.5 19.7 134.5 20.2 134.8 20 135 19.7 135.3 19.5 136 19 136.7 18.6 137.4 18.2 137.6 18 137.8 17.5 137.8 17.3 137.6 16.1 137.1 15.1 136.2 14.4 135.9 14.1 135.5 14 134.9 13.7 135.2 14.8 135.5 15.6 135.7 16.4 135.9 17.2 136 18 136.1 18.8 136 18.9 135.9 18.9 135.8 18.9 135.1 17.4 134.5 15.9 133.8 14.5 133.8 14.4 133.9 14.4 134 14.3 134.4 15 134.8 15.6 135.2 16.3 135.3 16.2 135.3 16.2 135.3 16.2 135.1 15.5 134.9 14.9 134.6 14.2 134.5 14.1 134.3 14 134.2 14.1 133.4 14.3 132.7 14.5 131.8 14.9 133.2 15.7 134 16.8 134.3 18.2 134.5 19.2 134.3 20.2 134.3 21.2 134.1 22.9 133.2 24.2 131.8 25.3 130.4 26.3 128.9 27.4 127.4 28.3 126.4 28.9 125.2 29.1 123.9 28.9 123.7 28.8 123.2 29.1 123 29.4 122.6 30 122.3 30.8 121.8 31.3 120.9 32.5 120.7 33.8 120.6 35.2 120.6 35.6 120.6 36.1 120.5 36.5 120.5 36.7 120.3 37.1 120.1 37.2 119.9 37.2 119.5 37.1 119.4 36.9 118.4 35.9 118 34.7 117.8 33.4 117.7 32.8 117.8 32.2 117.9 31.6 117.9 31.5 117.9 31.5 117.8 31.4 116.9 30.2 117.2 28.9 117.5 27.6 117.8 26.1 118.4 24.7 119.6 23.7 118.9 22.1 119.4 20.8 120.7 19.6 122.5 18 124.4 16.5 126.5 15.3 128 14.4 129.6 14.1 131.1 15.1ZM118.3 26.1C118.4 26.1 118.6 26.1 118.7 26.2 119.8 27.6 120.8 29 121.9 30.6 122.4 29.9 122.7 29.3 123 28.7 121 27.8 120.3 26.1 119.3 24.2 119 24.9 118.6 25.5 118.3 26.1 118.2 26.3 118.1 26.6 118.2 26.8 118.7 27.5 119.3 28.3 119.8 29 119.9 29 119.9 28.9 120 28.9 119.4 28 118.8 27 118.3 26.1ZM127.8 27.6C125.9 24.7 124.8 21.2 121.4 19.5 121.1 19.8 120.7 20.2 120.3 20.6 119.6 21.4 119.5 22.3 119.9 23.2 120.3 24.2 120.8 25.2 121.4 26.1 121.8 26.7 122.4 27.3 123 27.8 124.6 29 126.2 28.4 127.8 27.6ZM131.5 24.8C133.1 23.9 134 22.5 134 20.7 134.1 18.3 132.6 16.6 130.6 15.4 129.2 14.6 127.9 14.9 126.6 15.8 128.7 18.6 130.9 21.2 131.5 24.8ZM121.9 19.1C125.3 20.9 126.5 24.3 128.2 27.3 128.8 26.9 129.5 26.4 130.1 26 128.9 22.5 127.1 19.6 124.6 17 124.3 17.2 124 17.4 123.6 17.7 123.5 17.8 123.4 17.9 123.3 18 126 20.4 127.9 23.1 129.1 26.5 127.2 23.6 125.6 20.5 122.9 18.3 122.7 18.4 122.6 18.5 122.4 18.6 122.2 18.8 122.1 18.9 121.9 19.1ZM125 16.7C127.6 19.3 129.6 22.1 130.4 25.6 131.3 25.3 131.3 25.2 131 24.4 130.9 24.2 130.9 24.1 130.8 23.9 129.9 20.9 128 18.5 126.2 16 125.7 16.3 125.4 16.5 125 16.7ZM117.9 27.7C117.7 28.7 117.4 29.8 118 30.9 118.5 31.7 119.3 32 120.2 32.1 120.9 32.1 121.1 31.4 121.3 31.1 120.2 29.9 119 28.8 117.9 27.7ZM138.3 17.3C139.5 17.3 140.8 17.3 142 17.3 141.6 16 138.7 14.3 137.4 14.5 137.7 15.5 138 16.4 138.3 17.3ZM119.8 36.8C119.9 36.8 120 36.7 120.1 36.7 120.2 35.6 120.4 34.4 120.5 33.5 119.6 33.1 118.8 32.8 117.9 32.5 118.1 34.1 118.5 35.7 119.8 36.8Z" class="a"/><path d="M44.6 98.7C44 97.2 44.3 95.9 45.5 94.8 47.4 93.1 49.3 91.5 51.6 90.2 53.1 89.4 54.6 89.1 56.1 90.1 57.2 89.4 58.5 88.6 59.8 88.7 62.1 88.8 64.5 89.2 66.5 90.9 66.8 91.2 67.1 91.5 67.3 91.9 67.6 92.4 67.3 92.8 66.7 92.8 66.3 92.8 65.8 92.7 65.3 92.6 64.4 92.5 63.6 92.6 62.8 93.2 61.7 93.9 60.7 94.6 59.5 95.3 59.7 95 59.9 94.7 60.2 94.6 60.9 94.1 61.7 93.7 62.3 93.2 62.6 93 62.8 92.7 62.8 92.4 62.6 91.2 62 90 61 89.3 60.7 89.1 60.3 89 59.8 88.8 60.6 90.6 61.1 92.2 61 93.9 60.9 93.9 60.9 93.9 60.8 93.9 60.1 92.5 59.4 91 58.7 89.5 58.8 89.4 58.9 89.4 58.9 89.4 59.4 90 59.8 90.7 60.2 91.3 60.2 91.3 60.3 91.3 60.3 91.3 60.1 90.6 59.8 89.9 59.6 89.3 59.5 89.2 59.2 89.1 59.1 89.1 58.4 89.3 57.7 89.6 56.8 89.9 57.9 90.6 58.5 91.5 59.1 92.5 59.7 93.7 59.3 95 59.2 96.3 59.1 98.3 57.7 99.6 56.3 100.7 54.7 102 53.1 103.4 51.1 103.8 50.4 104 49.7 104 49.1 103.9 48.5 103.8 48.2 104 47.9 104.5 47.6 105.1 47.3 105.8 46.8 106.4 45.9 107.5 45.7 108.9 45.6 110.4 45.5 110.7 45.6 111.1 45.5 111.5 45.4 111.7 45.3 112.1 45 112.2 44.9 112.2 44.5 112.1 44.3 111.9 43.9 111.2 43.3 110.4 43.1 109.6 42.7 108.7 42.4 107.7 42.8 106.7 42.8 106.6 42.8 106.5 42.8 106.5 41.8 105.1 42.3 103.6 42.6 102.1 43 100.8 43.5 99.6 44.6 98.7ZM43.3 101.1C43.4 101.1 43.6 101.2 43.8 101.3 44.8 102.7 45.8 104.1 46.9 105.6 47.4 104.9 47.7 104.3 48 103.8 46 102.9 45.3 101.1 44.3 99.3 44 99.9 43.6 100.5 43.3 101.1 43.2 101.3 43.1 101.6 43.2 101.8 43.7 102.5 44.3 103.3 44.8 104 44.9 104 44.9 103.9 45 103.9 44.4 103 43.8 102 43.3 101.1ZM52.8 102.7C50.9 99.7 49.8 96.2 46.4 94.5 46.1 94.8 45.8 95.1 45.5 95.4 44.6 96.3 44.4 97.3 45 98.5 45.5 99.6 46.2 100.7 46.9 101.8 47.7 102.8 48.8 103.6 50.2 103.5 51 103.4 51.9 103 52.8 102.7ZM51.6 90.9C53.7 93.6 55.9 96.3 56.5 99.9 56.8 99.6 57.1 99.4 57.4 99.2 59.1 98 59.6 94.7 58.3 93.1 58 92.7 57.8 92.2 57.4 91.9 55.8 90.1 53.7 89.3 51.6 90.9ZM48.2 93.1C50.4 94.5 53.9 99.5 54.1 101.6 52.2 98.6 50.6 95.6 47.8 93.3 47.5 93.6 47.2 93.8 46.9 94.1 50.3 95.9 51.5 99.3 53.2 102.3 53.9 101.9 54.5 101.4 55.1 101 53.9 97.5 52.1 94.6 49.6 92 49.2 92.3 48.7 92.7 48.2 93.1ZM55.4 100.7C56.3 100.2 56.3 100.2 56 99.4 55.9 99.2 55.9 99.1 55.8 98.9 54.9 95.9 53 93.5 51.2 91 50.8 91.3 50.3 91.5 50 91.7 52.6 94.3 54.6 97.1 55.4 100.7ZM42.9 102.5C42.7 103.6 42.4 104.7 42.9 105.8 43.4 106.7 44.2 107 45.2 107.1 45.9 107.1 46.1 106.4 46.4 106 45.8 105.5 45.1 105 44.5 104.4 44 103.9 43.5 103.2 42.9 102.5ZM67.1 92.4C66.6 91 63.7 89.3 62.4 89.5 62.7 90.5 63 91.4 63.3 92.4 63.9 92.3 64.5 92.2 65.1 92.2 65.7 92.2 66.3 92.3 67.1 92.4ZM45.5 108.3C44.5 108.4 43.7 107.9 42.9 107.4 42.9 109.2 44 111.4 45.1 111.8 45.2 110.6 45.4 109.5 45.5 108.3Z" class="a"/><path d="M90.9 114.9C91 114.6 91.1 114.3 91.3 114 91.5 113.8 91.7 113.4 91.9 113.2 93.6 112.3 94.8 112.2 95.9 113.9 99 118.7 102.1 123.3 105.3 128 105.8 128.8 106.4 129.2 107.4 129.1 109.2 129 111 130.6 111.7 132.8 112.2 134.3 112.3 136 112.2 137.6 112.2 138.8 111.3 139.3 109.9 138.8 108.2 138.4 107 137.2 105.9 136 104.6 134.6 103.8 133 103.9 131.1 103.9 130.5 103.6 130.1 103.2 129.7 102.3 128.8 101.6 127.7 100.8 126.7 98.5 123.9 96.2 121.2 93.9 118.4 92.9 117.2 91.9 116.1 90.9 114.9ZM104.7 128C103.6 128.7 103.3 129.3 104 130.1 104.6 130.7 104.5 131.4 104.6 132.2 104.6 132.3 104.6 132.5 104.7 132.6 105.2 134.5 106.4 135.8 107.9 137 108.7 137.7 109.6 138.4 110.8 138.4 111.3 138.4 111.6 138.2 111.6 137.7 111.5 137 111.6 136.3 111.5 135.6 111.3 134.4 111 133.2 110.6 132.1 110.1 130.9 109.1 129.9 107.8 129.7 106.5 129.5 105.3 129.4 104.7 128ZM102.3 124.8C99.8 121 97.4 117.4 94.9 113.7 94 114.2 93.1 114.6 92.2 115.1 95.1 118.6 98 122.1 101 125.5 101.4 125.3 101.8 125 102.3 124.8ZM103.6 126.7C102.5 127.3 102.3 127.7 103 128.2 103.4 128 103.8 127.7 104.2 127.5 104 127.2 103.8 126.9 103.6 126.7ZM102.7 125.3C102.3 125.7 102 126 101.8 126.3 101.7 126.4 101.7 126.6 101.7 126.7 101.8 126.8 102 126.8 102.1 126.8 102.5 126.6 102.8 126.4 103.2 126.1 103.1 125.9 102.9 125.7 102.7 125.3Z" class="a"/><path d="M15.9 114.9C16 114.6 16.1 114.3 16.3 114 16.5 113.7 16.8 113.3 17.1 113.1 17.7 112.8 18.4 112.6 19.1 112.5 19.9 112.5 20.3 113.1 20.7 113.7 23.6 118 26.4 122.3 29.2 126.6 29.7 127.2 30.2 127.8 30.6 128.5 30.9 129 31.4 129.2 31.9 129.1 34.1 129 35.4 130.2 36.3 131.9 37.2 133.7 37.3 135.8 37.2 137.8 37.1 138.9 36.2 139.2 34.8 138.8 33.2 138.3 32.1 137.2 31 136.1 29.7 134.7 28.7 133.1 28.9 131.1 28.9 130.4 28.5 130 28 129.5 27.1 128.6 26.5 127.5 25.7 126.6 23.4 123.8 21.2 121.1 18.9 118.4 17.9 117.2 16.9 116.1 15.9 114.9ZM29.7 128C28.5 128.9 28.3 129.4 29 130.1 29.5 130.7 29.4 131.3 29.6 131.9 29.7 132.5 29.8 133.2 30.1 133.6 30.9 134.8 31.7 135.9 32.7 136.9 33.5 137.7 34.5 138.4 35.8 138.4 36.3 138.3 36.5 138.2 36.5 137.7 36.6 135.8 36.5 133.9 35.6 132.1 35 130.9 34.1 129.9 32.8 129.7 31.5 129.5 30.3 129.4 29.7 128ZM27.3 124.8C27.1 124.5 27 124.2 26.8 124 25.9 122.7 25 121.3 24.1 120 22.8 118 21.5 116.1 20.2 114.1 20.1 114 19.8 113.8 19.7 113.8 18.9 114.2 18.1 114.7 17.2 115.2 20.1 118.6 23 122.1 26 125.5 26.4 125.3 26.8 125 27.3 124.8ZM28.6 126.7C27.5 127.3 27.3 127.7 28 128.2 28.3 128 28.7 127.8 29.2 127.5 29 127.2 28.8 126.9 28.6 126.7ZM28.2 126.1C28.1 125.9 27.9 125.7 27.7 125.3 27.4 125.7 27.1 126 26.8 126.3 26.7 126.4 26.7 126.6 26.7 126.7 26.9 126.7 27 126.8 27.2 126.7 27.5 126.6 27.8 126.4 28.2 126.1Z" class="a"/><path d="M90.8 39.9C91 39.6 91.2 39.5 91.2 39.3 91.6 37.9 92.8 37.7 93.9 37.6 94.8 37.4 95.3 38.1 95.8 38.7 98.7 43.2 101.6 47.6 104.5 52 104.9 52.5 105.3 53 105.6 53.5 106 54.1 106.5 54.2 107 54.1 108.7 54 109.8 54.8 110.7 56 111.5 57.1 111.9 58.4 112.1 59.7 112.2 60.5 112.2 61.3 112.2 62.1 112.3 63.9 111.5 64.3 109.8 63.8 109 63.5 108.1 63 107.4 62.4 106.4 61.5 105.4 60.4 104.7 59.2 104.2 58.6 104 57.7 103.9 56.8 103.8 55.9 103.8 55.2 103 54.4 102.1 53.7 101.4 52.6 100.7 51.6 98.6 48.6 96.1 46 93.7 43.2 92.7 42.1 91.8 41 90.8 39.9ZM104.7 53C103.6 53.8 103.3 54.3 104 55.1 104.5 55.7 104.4 56.3 104.6 57 104.7 57.5 104.8 58.2 105.1 58.7 105.9 59.8 106.7 60.9 107.7 61.9 108.5 62.7 109.5 63.4 110.8 63.4 111.3 63.4 111.5 63.2 111.6 62.7 111.6 60.8 111.5 58.9 110.7 57.2 110.1 56 109.2 54.9 107.8 54.7 106.5 54.5 105.3 54.4 104.7 53ZM92.2 40.1C95.1 43.6 98.1 47.1 101 50.5 101.4 50.3 101.8 50 102.3 49.7 99.8 46 97.4 42.4 94.9 38.7 94 39.2 93.1 39.6 92.2 40.1ZM103.6 51.7C102.5 52.3 102.3 52.7 103 53.2 103.1 53.1 103.3 53 103.5 52.9 103.7 52.7 104 52.6 104.2 52.5 104 52.2 103.8 51.9 103.6 51.7ZM102.7 50.3C102.3 50.7 102 51 101.8 51.3 101.7 51.4 101.7 51.6 101.7 51.7 101.8 51.8 102 51.8 102.1 51.8 102.5 51.6 102.8 51.4 103.2 51.1 103.1 50.9 102.9 50.7 102.7 50.3Z" class="a"/><path d="M16 39.9C16.1 39.6 16.3 39.5 16.4 39.3 16.8 37.9 17.9 37.7 19 37.6 19.9 37.4 20.5 38.1 20.9 38.7 23.8 43.2 26.7 47.6 29.7 52 30 52.5 30.4 53 30.8 53.5 31.1 54 31.6 54.2 32.1 54.1 33.8 54 35 54.8 35.9 56 36.7 57.1 37.1 58.3 37.2 59.6 37.3 60.4 37.3 61.2 37.4 62 37.5 63.9 36.7 64.2 35 63.8 34.4 63.7 33.9 63.4 33.5 63.1 32 62.1 30.7 60.8 29.8 59.2 29.4 58.5 29.2 57.6 29.1 56.7 29 55.8 28.7 55.1 28 54.3 26.5 52.6 25.2 50.6 23.7 48.7 22.1 46.8 20.5 45.1 18.9 43.2 17.9 42.1 16.9 41 16 39.9ZM29.8 53C28.7 53.8 28.4 54.4 29.1 55.1 29.7 55.7 29.6 56.3 29.7 56.9 29.8 57.1 29.7 57.4 29.8 57.6 30.4 59.4 31.6 60.8 33 62 33.9 62.7 34.7 63.4 35.9 63.4 36.4 63.3 36.7 63.2 36.7 62.7 36.8 60.8 36.7 58.9 35.8 57.2 35.2 55.9 34.3 54.8 32.8 54.6 31.6 54.5 30.4 54.3 29.8 53ZM17.3 40.1C20.3 43.6 23.2 47.1 26.1 50.5 26.5 50.3 27 50 27.5 49.7 25 46 22.5 42.4 20.1 38.7 19.2 39.2 18.3 39.6 17.3 40.1ZM28.7 51.7C27.7 52.3 27.5 52.7 28.1 53.2 28.5 53 28.9 52.7 29.3 52.5 29.1 52.2 28.9 51.9 28.7 51.7ZM27.8 50.4C27.5 50.7 27.2 51 26.9 51.3 26.8 51.4 26.9 51.6 26.8 51.7 27 51.7 27.1 51.8 27.3 51.8 27.6 51.6 28 51.3 28.4 51.1 28.3 50.9 28.2 50.8 28.1 50.7 28 50.6 27.9 50.5 27.8 50.4Z" class="a"/><path d="M80.1 68.3C77.5 77.1 74 85.5 70.9 94.1 70.9 94.1 70.8 94.1 70.7 94.1 70.7 93.2 70.6 92.4 70.8 91.6 71.3 88.1 71.8 84.7 72.4 81.3 72.7 79.5 73.2 77.7 73.8 75.9 74.5 73.4 75.4 70.9 76.3 68.3 76.4 68 76.6 67.7 76.8 67.3 75.6 65.6 76.2 62.9 78 62 77.9 62.4 77.8 62.7 77.6 62.9 77.3 63.5 76.9 64.1 76.6 64.8 76.2 66 76.8 67.1 78.1 67.6 78.7 67.9 79.4 68.1 80.1 68.3ZM77 67.7C74.9 74.3 72.8 80.8 71.9 87.9 74.3 81.4 76.6 75 78.9 68.7 78.2 68.3 77.6 68 77 67.7Z" class="a"/><path d="M87.4 91.5C87.3 91.4 87.3 91.4 87.3 91.3 86.5 89.5 85.8 87.8 85.4 85.8 84.8 82.7 84.1 79.5 83.3 76.4 82.7 74.2 82 72 81.3 69.9 81.2 69.5 80.8 69.2 80.5 68.8 81.1 68.7 81.5 69.1 81.8 69.5 82.8 70.5 83.2 71.9 83.6 73.2 84.1 75.2 84.5 77.3 84.9 79.3 85.3 81.6 85.7 83.8 86.2 86 86.2 86.5 86.3 87 86.4 87.5 86.5 87.5 86.5 87.5 86.6 87.5 86.5 86.4 86.3 85.3 86.2 84.2 86.1 82.9 85.9 81.6 85.8 80.3 85.7 77.5 85.7 74.7 85.4 71.9 85 68.6 83.9 65.5 81.9 62.7 81.8 62.5 81.6 62.3 81.5 62.1 81.1 61.6 80.6 61.4 80 61.9 79.8 62 79.6 62.1 79.4 62.1 78.4 62.3 78 61.9 78.1 60.8 78.2 60.5 78.2 60.1 78.2 59.7 78.1 58.9 78.6 58.3 79.2 57.9 79.7 57.6 80.1 57.7 80.2 58.2 80.5 59 80.6 59.8 80.9 60.6 80.9 60.8 80.9 61.1 81.1 61.2 82.9 62.6 83.9 64.5 84.7 66.5 86.2 70 86.5 73.7 86.5 77.4 86.5 81.3 87 85.2 87.5 89 87.5 89.8 87.5 90.6 87.6 91.4 87.5 91.4 87.5 91.5 87.4 91.5ZM79.8 58.5C78.8 59.2 78.8 60 78.8 60.9 79.3 60.8 79.7 60.7 80.3 60.6 80.1 59.9 80 59.3 79.8 58.5ZM78.7 61.4C78.7 61.4 78.7 61.5 78.7 61.6 79.3 61.5 79.8 61.4 80.4 61.4 80.4 61.3 80.4 61.2 80.4 61.1 79.8 61.2 79.2 61.3 78.7 61.4Z" class="a"/><path d="M5.6 68.9C6.3 68.7 6.8 69.1 7 69.6 7.7 70.8 8.4 72 8.7 73.2 9.2 75.2 9.5 77.2 9.9 79.2 10.3 81.5 10.7 83.8 11.2 86.1 11.3 86.5 11.3 87 11.4 87.5 11.5 87.5 11.5 87.5 11.6 87.5 11.5 86.7 11.5 86 11.4 85.3 10.8 82 10.7 78.7 10.8 75.4 10.8 71.5 10 67.9 8.2 64.5 7.7 63.5 7 62.8 6.3 61.9 6.1 61.6 5.8 61.5 5.4 61.8 5 62 4.6 62.1 4.1 62.1 3.4 62.2 3.2 61.8 3.2 61.1 3.3 60.6 3.3 60.2 3.3 59.7 3.3 58.8 3.8 58.3 4.5 57.9 4.9 57.6 5.2 57.7 5.4 58.2 5.6 59 5.8 59.9 6 60.7 6.1 60.9 6.1 61.1 6.2 61.2 8 62.5 9 64.5 9.8 66.4 10.8 68.8 11.4 71.4 11.5 73.9 11.6 75.4 11.5 76.9 11.6 78.4 11.7 81.1 12 83.8 12.2 86.6 12.3 87.9 12.5 89.2 12.6 90.5 12.6 90.9 12.6 91.2 12.4 91.5 12.3 91.4 12.3 91.2 12.2 91.1 11.8 90.1 11.2 89.1 11 88 10.3 85.4 9.8 82.8 9.2 80.2 8.9 78.9 8.6 77.5 8.3 76.2 7.9 74.5 7.4 72.8 6.9 71 6.7 70.2 6.5 69.4 5.6 68.9ZM4.9 58.5C3.9 59.2 3.9 60 3.9 60.9 4.4 60.8 4.9 60.7 5.4 60.6 5.2 59.9 5.1 59.3 4.9 58.5ZM5.5 61.4C5.5 61.3 5.5 61.2 5.5 61.1 4.9 61.2 4.4 61.3 3.8 61.4 3.8 61.4 3.8 61.5 3.8 61.6 4.4 61.5 5 61.4 5.5 61.4Z" class="a"/><path d="M149.8 115.2C149.4 116.4 148.8 116.9 147.9 117.3 144.7 118.7 141.4 119 138 118.5 137.4 118.4 136.9 118 136.4 117.8 137 117.4 137.5 117 138.1 116.7 140.7 115.2 143.6 114.5 146.6 114.6 147.6 114.7 148.7 115 149.8 115.2Z" class="a"/><path d="M74.8 115.2C74.4 116.4 73.7 117 72.9 117.3 69.7 118.7 66.4 119 63 118.5 62.5 118.4 61.9 118 61.4 117.8 61.8 117.5 62.1 117.3 62.4 117.1 65.2 115.4 68.3 114.4 71.6 114.6 72.6 114.7 73.7 115 74.8 115.2Z" class="a"/><path d="M136.4 42.7C136.6 42.6 136.8 42.6 137 42.5 139.9 40.4 143.1 39.5 146.6 39.6 147.7 39.7 148.7 40 149.7 40.2 149.4 41.4 148.7 42 147.8 42.3 145.1 43.5 142.2 43.8 139.3 43.6 138.3 43.6 137.3 43.4 136.4 42.7Z" class="a"/><path d="M74.8 40.3C74.5 41.4 73.8 42 72.9 42.4 70.2 43.5 67.3 43.8 64.4 43.6 63.4 43.6 62.4 43.4 61.6 42.8 63.5 41.5 65.6 40.4 67.9 39.9 70.2 39.5 72.5 39.4 74.8 40.3Z" class="a"/><path d="M68 105.2C69 103.9 68.9 102.5 66.7 100.8 67.2 100.4 67.7 99.9 68.2 99.4 68.5 99.1 69 98.9 69.3 99.6 69.4 100.1 69.8 99.9 70.2 99.7 72.7 98 75.1 96.4 77.6 94.7 79 93.8 80.4 92.8 81.8 91.9 82.3 91.6 82.9 91.4 83.5 91.2 83.6 91.3 83.6 91.4 83.7 91.5 83.1 92 82.5 92.5 81.9 93 79.7 94.7 77.5 96.4 75.3 98.2 74 99.2 72.8 100.1 71.5 101.2 71.4 101.3 71.3 101.7 71.4 101.8 71.7 102.3 71.5 102.7 71.1 102.9 70.7 103.2 70.2 103.5 69.8 103.8 69.7 103.9 69.5 104.2 69.4 104.4 69.1 105.2 68.9 105.3 68 105.2ZM69.6 103.2C70.9 102.3 70.9 102.3 69.9 100.9 69.7 100.8 69.6 100.6 69.5 100.4 69.1 99.8 68.7 99.8 68.2 100.2 68 100.3 67.8 100.5 67.7 100.6 68.4 101.5 69 102.4 69.6 103.2ZM76.6 96.4C76.6 96.4 76.5 96.4 76.5 96.4 74.4 97.7 72.3 98.9 70.1 100.3 70.3 100.5 70.6 100.7 71 101 72.8 99.5 74.7 98 76.6 96.4Z" class="a"/><path d="M83.7 16.5C82.6 17.4 81.6 18.3 80.5 19.1 78.8 20.4 77.2 21.7 75.5 23 74.2 24.1 72.9 25.1 71.6 26.1 71.5 26.3 71.4 26.6 71.5 26.8 71.8 27.3 71.6 27.6 71.2 27.9 70.8 28.2 70.4 28.5 70 28.8 69.8 28.9 69.6 29.2 69.5 29.4 69.2 30.2 68.9 30.4 68 30.2 68.8 29.6 68.9 28.8 68.6 27.9 68.3 27.1 67.8 26.5 67 26.1 66.9 26 66.9 25.9 66.9 25.9 67.3 25.4 67.6 25.1 68 24.7 68.6 24.1 68.9 24.1 69.4 24.7 69.5 24.8 69.9 24.9 70.1 24.8 71.7 23.9 73.3 22.9 74.8 21.8 77.1 20.2 79.4 18.6 81.7 16.9 82.2 16.6 82.9 16.4 83.5 16.2 83.5 16.3 83.6 16.4 83.7 16.5ZM69.7 28.2C71 27.3 71 27.3 70.1 26 69.9 25.8 69.7 25.6 69.6 25.4 69.2 24.8 68.8 24.9 68.3 25.2 68.1 25.4 67.9 25.6 67.8 25.6 68.5 26.5 69.1 27.4 69.7 28.2ZM76.6 21.4C76.6 21.4 76.6 21.4 76.6 21.4 74.5 22.7 72.4 24 70.3 25.2 70.5 25.5 70.8 25.8 71.1 26.1 72.9 24.5 74.8 22.9 76.6 21.4Z" class="a"/><path d="M141.7 103C141 103.4 140.3 103.7 139.6 104 139.5 103.9 139.5 103.9 139.4 103.8 139.5 103.7 139.6 103.5 139.6 103.5 139.4 103.4 139.1 103.2 138.9 103.1 138 102.7 137.1 102.2 136.1 102 135.3 101.8 134.8 102.5 134.5 103.1 133.8 104.2 133.6 105.4 133.9 106.7 134.5 109 135.6 110.7 138 111.3 139.3 111.6 140.2 111.1 140.6 109.8 140.9 108.7 141.1 107.6 141.4 106.5 141.5 106.2 141.9 105.8 142.2 105.5 142.3 105.5 142.3 105.6 142.4 105.6 142.1 107.3 141.8 108.9 141.3 110.5 141 111.8 139.6 112.3 138 112.1 134.7 111.5 132.1 107.2 133.1 104.1 133.4 103.3 133.9 102.5 134.5 101.9 135 101.3 135.8 101.1 136.5 101.6 138 102.6 139.3 102.1 140.6 101 140.7 100.9 140.9 100.8 141.1 100.7 141.1 100.7 141.2 100.7 141.3 100.7 141.2 101 141 101.2 140.9 101.4 140.8 101.5 140.8 101.6 140.7 101.6 141.1 102 141.5 102.3 141.9 102.7 141.9 102.7 141.8 102.9 141.7 103 141.7 103.1 141.7 103 141.7 103Z" class="a"/><path d="M66.1 100.7C66.1 101.1 66 101.5 66.1 101.8 66.3 102.1 66.7 102.3 66.9 102.5 66.6 103.2 65.3 103.9 64.4 103.9 64.5 103.7 64.6 103.6 64.6 103.6 64.2 103.3 63.8 103 63.3 102.8 62.7 102.6 62.1 102.4 61.6 102.1 61 101.8 60.5 102 60 102.4 58.9 103.6 58.5 105.1 58.9 106.7 59.4 109 60.7 110.7 63.1 111.3 64.2 111.6 65.2 111.1 65.5 109.9 65.8 108.8 66.1 107.6 66.4 106.5 66.5 106.2 66.9 105.9 67.1 105.5 67.2 105.6 67.3 105.6 67.3 105.6 67.2 106.1 67.2 106.6 67.1 107.1 66.9 108 66.8 108.9 66.6 109.8 66.1 111.7 64.7 112.5 62.8 112 60.2 111.3 58.8 109.5 58.1 107.1 57.6 105.5 57.8 103.9 58.8 102.5 59.5 101.6 60.5 100.9 61.7 101.7 63 102.5 64 102.2 65.1 101.4 65.4 101.1 65.8 100.9 66.1 100.7Z" class="a"/><path d="M66.2 28.5C65.7 28.6 65.2 28.8 64.7 29 64.6 28.9 64.6 28.9 64.6 28.8 64.7 28.7 64.8 28.5 64.7 28.5 64.3 28.3 63.9 28 63.5 27.8 62.9 27.5 62.3 27.4 61.7 27.1 61.1 26.8 60.6 26.9 60.2 27.4 59 28.6 58.7 30 59 31.6 59.6 33.9 60.8 35.6 63.2 36.3 64.4 36.6 65.4 36 65.7 34.8 66 33.7 66.2 32.6 66.5 31.6 66.7 31.2 67 30.8 67.3 30.5 67.4 30.5 67.4 30.6 67.5 30.6 67.3 31.8 67.1 33 66.9 34.2 66.9 34.3 66.8 34.3 66.8 34.4 66.4 37.2 64.2 37.5 62.3 36.8 59.4 35.8 57.4 32 58.2 29.2 58.5 28.4 59 27.6 59.5 26.9 60.1 26.3 61 26.1 61.7 26.6 63.2 27.6 64.5 27.1 65.7 26.1 65.9 25.9 66.1 25.8 66.4 25.8 66.3 26 66.2 26.2 66 26.4 66.4 26.8 66.7 27.2 67.1 27.6 67 27.7 66.9 28 66.7 28.2 66.5 28.3 66.3 28.4 66.2 28.5Z" class="a"/><path d="M141 28.4C140.5 28.6 140 28.8 139.5 29 139.5 28.9 139.5 28.9 139.4 28.8 139.5 28.7 139.6 28.5 139.6 28.5 139.4 28.4 139.2 28.2 138.9 28.1 138 27.7 137.1 27.2 136.1 27 135.4 26.8 134.9 27.5 134.5 28.1 133.5 29.6 133.6 31.3 134.3 33 135 34.7 136.2 35.8 138 36.3 139.3 36.6 140.3 36 140.6 34.8 140.8 34 140.9 33.1 141.1 32.3 141.3 31.6 141.6 30.9 142.5 30.6 142.1 32.4 141.7 34.1 141.2 35.8 140.8 36.9 139.5 37.3 138.1 37.1 134.8 36.5 132.1 32.4 133.1 29.2 133.4 28.3 133.9 27.6 134.5 26.9 135 26.3 135.8 26.1 136.5 26.6 138 27.5 139.3 27.1 140.6 26 140.7 25.9 140.9 25.8 141.1 25.7 141.1 25.7 141.2 25.7 141.3 25.7 141.2 25.9 141.2 26 141.1 26.1 141 26.2 141 26.3 140.7 26.6 141.1 26.9 141.4 27.3 141.8 27.6 141.9 27.6 142 27.6 142 27.6 141.7 27.9 141.4 28.2 141 28.4 141 28.4 141 28.5 141 28.4Z" class="a"/><path d="M25.4 76.1C25.9 75.9 26.2 75.7 26.6 75.6 27.4 75.2 28.3 75 29.1 74.6 30 74.1 30.7 73.3 30.9 72.2 31 72.1 31 72 31.1 71.9 31.1 71.9 31.2 71.9 31.4 71.8 31.3 72.2 31.2 72.6 31.2 72.9 31.1 73.4 31.1 73.8 31.1 74.3 31.1 74.5 31.1 74.8 31 75 30.6 75.8 30.9 76.5 31.5 77.2 32.8 78.6 34.2 80 35.4 81.5 36 82.2 36.3 83.1 36.7 84 36.8 84.3 36.8 84.7 36.8 85 36.7 85.8 36.2 86.2 35.4 85.8 34.7 85.5 33.9 85.1 33.5 84.4 32.6 83.1 32 81.6 31.1 80.2 30.6 79.3 30 78.4 29.2 77.8 28.2 77.1 27.2 76.2 25.8 76.3 25.7 76.3 25.6 76.2 25.4 76.1ZM29.8 77.5C31.3 78.9 32.1 80.7 33.1 82.5 33.5 83.4 34.1 84.2 34.8 85 35 85.3 35.6 85.3 36.1 85.4 36.1 84.9 36.3 84.3 36.1 83.9 35.8 83.1 35.3 82.3 34.8 81.6 33.3 80 31.8 78.5 30.4 76.9 30.2 77 30 77.2 29.8 77.5ZM30.5 74.3C29.5 74.9 28.4 75.5 27.3 76.1 28.1 76.9 28.2 77 29 76.3 29.4 76 29.8 75.6 30.2 75.4 30.7 75.1 30.8 74.7 30.5 74.3Z" class="a"/><path d="M100.4 76.1C100.9 75.9 101.2 75.7 101.6 75.6 102.5 75.1 103.6 74.8 104.4 74.2 105 73.8 105.3 73 105.7 72.4 105.8 72.2 105.9 72 106 71.8 106 71.8 106.1 71.9 106.1 71.9 106.1 72.1 106.2 72.3 106.1 72.5 105.9 73.2 105.8 73.8 105.9 74.6 106.1 75.1 105.9 75.7 106 76.2 106 76.6 106.3 76.9 106.5 77.2 107.8 78.6 109.2 80 110.4 81.5 110.9 82.2 111.3 83.1 111.7 84 111.8 84.3 111.8 84.6 111.8 84.9 111.7 85.8 111.2 86.1 110.4 85.9 109.5 85.7 108.9 85.2 108.5 84.5 107.6 83.1 106.9 81.6 106.1 80.2 105.6 79.3 105 78.4 104.3 77.9 103.3 77.1 102.2 76.2 100.7 76.3 100.7 76.3 100.6 76.2 100.4 76.1ZM104.9 77.5C105.4 78.2 106 78.9 106.5 79.6 106.9 80.3 107.3 81.1 107.7 81.8 108.2 82.7 108.7 83.6 109.2 84.5 109.5 84.9 109.9 85.2 110.3 85.4 110.9 85.7 111.4 85.4 111.3 84.7 111.1 83.9 110.9 83.1 110.4 82.6 108.8 80.6 107.1 78.7 105.4 76.8 105.2 77.1 105 77.3 104.9 77.5ZM105.3 74.3C104.9 74.6 104.4 75 103.9 75.3 103.4 75.6 102.8 75.8 102.3 76.1 103.1 77 103.2 77 104.1 76.3 104.4 76 104.7 75.7 105.1 75.5 105.6 75.2 105.7 74.8 105.3 74.3Z" class="a"/><path d="M8.8 16.6C6 18.8 3.1 21.1 0.2 23.3 0.2 22.9 0.2 22.9 1.7 21.3 1.2 21.6 0.7 21.9 0.2 22.2 0.2 22.2 0.1 22.2 0.1 22.1 0.2 21.9 0.2 21.6 0.4 21.4 2.5 19.9 4.7 18.4 6.9 17 7.4 16.6 8 16.5 8.6 16.2 8.7 16.3 8.7 16.4 8.8 16.6Z" class="a"/><path d="M135.3 118.2C135.5 119.1 135.7 119.9 135.8 120.7 135.9 120.7 136 120.7 136.1 120.8 136.3 120.4 136.5 120.1 136.8 119.7 136.8 119.6 136.8 119.4 136.9 119.3 137.1 119.1 137.4 119 137.6 118.9 137.7 119.1 137.9 119.3 137.9 119.5 137.9 119.8 137.8 120.1 137.7 120.4 138.3 121 138.4 121.6 137.9 122 137.7 122.2 137.7 122.2 136.6 121.4 136.7 121.6 136.6 121.9 136.7 122.1 137.2 122.7 137.7 123.2 138.1 123.7 138.6 123.5 139 123.4 139.4 123.3 139.4 123.7 139.5 124.1 139.5 124.5 139.4 124.5 139.4 124.6 139.3 124.6 139.5 124.7 139.6 124.8 139.7 124.9 140.6 125.6 140.6 125.7 139.8 126.4 139.9 126.5 140.1 126.7 140.4 126.9 139.8 127 139.4 127.1 139.2 126.6 138.9 125.8 139.5 125.8 140 125.5 137.7 124.8 136.4 123.2 135.6 121.2 135.1 119.9 135 119 135.3 118.2Z" class="a"/><path d="M61.8 121.4C61.4 121.9 61.6 122.3 63.2 123.6 63.6 123.5 64 123.4 64.4 123.3 64.4 123.7 64.4 124.1 64.5 124.5 64.4 124.5 64.4 124.6 64.3 124.6 64.5 124.7 64.6 124.8 64.7 124.9 65.6 125.6 65.6 125.6 64.7 126.3 64.9 126.5 65.1 126.7 65.4 126.9 64.8 127 64.4 127.1 64.2 126.5 63.9 125.8 64.5 125.7 65 125.5 63.4 124.9 62.1 124.1 61.3 122.7 60.5 121.3 60 119.9 60.3 118.3 60.5 119.1 60.7 119.9 60.9 120.7 60.9 120.7 61 120.7 61.1 120.7 61.3 120.4 61.6 120 61.8 119.6 61.9 119.5 61.8 119.3 62 119.2 62.2 119.1 62.4 118.9 62.7 118.9 62.7 118.9 62.9 119.3 62.9 119.5 62.9 119.8 62.8 120.1 62.7 120.4 63.3 121 63.4 121.5 62.9 121.9 62.2 122.5 62.3 121.4 61.8 121.4Z" class="a"/><path d="M140 50.5C137.6 49.7 136.3 48.1 135.5 46 135.2 45.1 135 44.2 135.3 43.3 135.5 44.1 135.7 44.9 135.9 45.7 135.9 45.7 136 45.7 136.1 45.7 136.3 45.4 136.6 45 136.8 44.6 136.9 44.5 136.9 44.3 137 44.2 137.2 44.1 137.4 44 137.7 43.9 137.7 43.9 137.9 44.3 137.9 44.5 137.9 44.8 137.8 45.1 137.7 45.4 138.4 46.2 138.4 46.4 137.6 47.2 137.4 46.9 137.1 46.6 136.9 46.2 136.5 46.5 136.4 46.8 136.7 47.1 137.2 47.7 137.7 48.2 138.3 48.9 138.5 48.7 138.6 48.5 138.7 48.4 138.9 48.3 139.2 48.2 139.4 48.3 139.5 48.4 139.6 48.8 139.5 49 139.3 49.4 139.4 49.7 139.8 50 140.6 50.5 140.6 50.7 139.8 51.3 139.9 51.5 140.1 51.7 140.3 51.9 139.8 52 139.4 52.1 139.2 51.6 138.8 50.8 139.5 50.7 140 50.5Z" class="a"/><path d="M63.2 48.7C63.8 48.5 64.1 48.4 64.5 48.3 64.5 48.7 64.6 49.1 64.6 49.5 64.5 49.5 64.5 49.5 64.4 49.5 64.6 49.7 64.7 49.8 64.9 49.9 65.7 50.6 65.7 50.7 64.9 51.3 65.1 51.5 65.2 51.7 65.5 51.9 65 52 64.6 52.1 64.3 51.5 64 50.8 64.6 50.7 65.2 50.5 62.7 49.7 61.3 48 60.6 45.8 60.2 44.7 60.2 43.9 60.4 43.3 60.6 44.1 60.8 44.9 61 45.7 61.1 45.7 61.2 45.7 61.2 45.7 61.5 45.4 61.7 45 61.9 44.6 62 44.5 62 44.2 62.2 44.1 62.3 44 62.6 43.9 62.8 43.9 62.9 44 63.1 44.3 63.1 44.4 63 44.7 62.9 45.1 62.8 45.4 63.5 46.2 63.5 46.4 62.8 47.1 62.6 47 62.5 46.9 62.3 46.7 62.2 46.6 62.1 46.5 62 46.3 61.6 46.5 61.6 46.8 61.9 47.1 62.3 47.7 62.8 48.2 63.2 48.7Z" class="a"/><path d="M82 139.5C81.9 140.8 80.8 142.1 79.7 142.1 78.7 142.1 77.8 141 77.8 139.7 77.8 138.4 78.7 137.5 80 137.5 81 137.5 82 138.5 82 139.5ZM80.9 139.4C80.9 138.6 80.5 138.1 79.8 138.1 79.1 138.1 78.5 138.9 78.5 139.7 78.5 140.3 79 141 79.5 141 80.2 141 80.9 140.3 80.9 139.4Z" class="a"/><path d="M5 62.5C6 62.5 7.1 63.4 7.1 64.4 7.1 65.7 6 67.1 4.9 67.1 3.8 67.1 2.9 66 2.9 64.7 2.9 63.4 3.8 62.5 5 62.5ZM5 63.1C4.3 63 3.6 63.8 3.6 64.6 3.6 65.3 4.1 66 4.7 66 5.4 66 6 65.3 6 64.5 6.1 63.7 5.6 63.1 5 63.1Z" class="a"/><path d="M4.9 137.5C5.9 137.5 6.9 138.4 7 139.4 7 140.7 5.9 142 4.8 142.1 3.7 142.1 2.8 141 2.8 139.6 2.8 138.6 3.6 137.4 4.9 137.5ZM5.9 139.4C5.9 138.6 5.5 138.1 4.7 138.1 4.1 138.1 3.5 138.9 3.5 139.7 3.5 140.3 4 141 4.5 141 5.3 141 5.9 140.2 5.9 139.4Z" class="a"/><path d="M79.9 62.5C80.9 62.5 81.9 63.4 82 64.4 82 65.7 80.9 67 79.8 67.1 78.7 67.1 77.9 66.1 77.8 64.7 77.8 63.5 78.7 62.5 79.9 62.5ZM80.9 64.4C80.9 63.6 80.5 63.1 79.8 63.1 79.1 63.1 78.5 63.9 78.5 64.7 78.5 65.3 79.1 66 79.6 66 80.3 65.9 80.9 65.2 80.9 64.4Z" class="a"/><path d="M72.7 124.6C72.5 124.1 72.8 123.8 73.2 123.5 73.3 123.4 73.6 123.3 73.8 123.2 74.2 122.9 74.6 122.6 74.2 121.9 73.9 121.3 74 121.1 74.8 121.1 75.5 121 75.6 120.7 75.7 120.2 75.7 119.6 75.8 119.1 75.8 118.6 75.8 118.1 76 117.6 75.2 117.4 74.8 117.3 74.7 116.8 75.1 116.6 75.5 116.3 75.4 116 75.4 115.5 75.3 115.3 75.4 115 75.5 114.8 75.7 115 76 115.1 76.1 115.4 76.5 117 76.7 118.6 76.3 120.3 75.8 121.8 75 123 73.5 123.8 73.2 123.9 73 124.3 72.7 124.6Z" class="a"/><path d="M136.2 117.1C136.5 116.8 136.9 116.4 137.3 116.2 140 114.2 143 113.1 146.3 113.2 147.3 113.3 148.2 113.6 149.2 113.8 149.5 113.9 149.7 114.2 149.9 114.6 147.5 114 145.2 113.6 142.8 114.2 140.4 114.7 138.3 115.8 136.3 117.2 136.2 117.2 136.2 117.1 136.2 117.1Z" class="a"/><path d="M74.8 114.7C72.5 114 70.2 113.6 67.7 114.2 65.3 114.7 63.3 115.8 61.2 117.1 61.4 116.9 61.6 116.6 61.9 116.4 64.6 114.4 67.7 113.1 71.2 113.2 72.2 113.3 73.2 113.5 74.2 113.8 74.4 113.9 74.7 114.2 74.9 114.4 74.9 114.5 74.9 114.6 74.8 114.7Z" class="a"/><path d="M61.1 41.9C61.4 41.8 61.6 41.7 61.8 41.6 64.6 39.4 67.7 38.1 71.3 38.2 72.3 38.3 73.3 38.6 74.3 38.8 74.6 38.9 74.8 39.2 75 39.6 72.6 39 70.3 38.6 67.9 39.2 65.5 39.7 63.4 40.8 61.5 42.2 61.3 42.1 61.2 42 61.1 41.9Z" class="a"/><path d="M136.1 42C136.3 41.8 136.5 41.7 136.8 41.5 139.6 39.4 142.7 38.1 146.3 38.2 147.3 38.3 148.2 38.5 149.2 38.8 149.4 38.9 149.7 39.2 149.9 39.6 147.5 39 145.2 38.6 142.7 39.1 140.4 39.7 138.2 40.8 136.3 42.2 136.2 42.1 136.2 42.1 136.1 42Z" class="a"/><path d="M72.9 49.6C72.7 49.1 72.9 48.8 73.3 48.5 73.5 48.4 73.7 48.3 73.9 48.2 74.4 47.9 74.8 47.6 74.4 47 74.1 46.5 74.2 46.1 74.9 46.1 75.5 46.1 75.7 45.7 75.7 45.2 75.8 44.6 75.8 44 75.8 43.4 75.9 43 75.9 42.5 75.3 42.5 75.2 42.4 75 41.6 75.1 41.6 75.6 41.3 75.4 41 75.4 40.6 75.3 40.3 75.4 40 75.5 39.8 75.7 40 76 40.2 76.1 40.4 76.5 42 76.8 43.7 76.2 45.4 75.8 46.8 75.2 48.1 73.6 48.8 73.3 48.9 73.1 49.3 72.9 49.6Z" class="a"/><path d="M0.2 47.5C0.2 47 0.2 46.5 0.2 46.1 0.2 46.1 0.2 46.1 0.3 46.2 0.5 45.9 0.7 45.6 0.8 45.3 0.9 44.6 0.9 44 1 43.3 1 42.9 1 42.5 0.4 42.4 0.3 42.4 0.1 41.6 0.3 41.5 0.7 41.2 0.5 40.9 0.5 40.5 0.4 40.3 0.4 40 0.4 39.6 0.8 39.8 1 39.9 1.1 40.1 2.1 41.9 1.7 45.7 0.4 47.3 0.4 47.4 0.3 47.4 0.2 47.5Z" class="a"/><path d="M147.6 118.8C148 118.5 148.3 118.2 148.7 117.9 148.9 117.8 149.2 117.9 149.4 118 149.5 118.1 149.5 118.5 149.4 118.6 149.2 119 149 119.4 149.2 119.9 149.2 120.1 149.2 120.3 149.1 120.5 148.9 120.7 148.7 121 148.6 121 148.4 121 148.2 120.7 148 120.5 147.9 120.2 147.7 119.8 147.2 119.8 147.1 119.8 146.9 119.6 146.8 119.4 146.7 119.2 146.7 119 146.6 118.8 146.9 118.8 147.1 118.7 147.3 118.7 147.5 118.7 147.6 118.8 147.6 118.8Z" class="a"/><path d="M5.6 104.2C8 102.7 10.6 101.7 13.1 100.2 13.1 100.3 13.2 100.4 13.2 100.4 13.1 100.6 13 100.8 12.8 100.9 11.5 101.7 10.1 102.4 8.7 103.2 8.1 103.5 7.4 103.9 6.8 104.2 6.5 104.3 6.1 104.4 5.8 104.5 5.7 104.4 5.7 104.3 5.6 104.2Z" class="a"/><path d="M131.3 5.9C127.1 9.3 123 12.9 118.3 15.8 122.6 12.4 126.9 9 131.2 5.7 131.2 5.7 131.3 5.8 131.3 5.9Z" class="a"/><path d="M147.6 43.8C148 43.5 148.3 43.2 148.6 42.9 148.8 42.8 149.2 42.9 149.4 43 149.5 43.1 149.5 43.5 149.4 43.7 149.1 44.1 149 44.4 149.2 44.9 149.3 45.1 149.2 45.3 149.1 45.4 149 45.6 148.8 45.9 148.6 46 148.4 46 148.1 45.7 148.1 45.5 147.9 45.1 147.7 44.8 147.2 44.8 147.1 44.8 146.9 44.6 146.8 44.4 146.7 44.2 146.7 44 146.7 43.8 146.9 43.7 147.1 43.7 147.4 43.7 147.5 43.7 147.6 43.8 147.6 43.8Z" class="a"/><path d="M72.6 118.8C73 118.5 73.3 118.2 73.6 117.9 73.8 117.8 74.2 117.9 74.4 118 74.5 118.1 74.5 118.5 74.4 118.7 74.2 119.1 74 119.4 74.2 119.9 74.2 120 74.2 120.2 74.1 120.4 74 120.6 73.8 120.8 73.6 121 73.4 120.8 73.1 120.7 73 120.4 72.8 120.1 72.7 119.8 72.2 119.8 72.1 119.8 71.9 119.6 71.8 119.5 71.7 119.3 71.7 119 71.7 118.8 71.9 118.7 72.1 118.7 72.4 118.7 72.5 118.7 72.5 118.8 72.6 118.8Z" class="a"/><path d="M80.6 104.3C80.8 104.1 80.9 103.9 81.1 103.8 83.4 102.7 85.7 101.5 88 100.3 88 100.3 88 100.3 88.3 100.3 88.1 100.5 88 100.7 87.9 100.8 86.7 101.5 85.5 102.2 84.3 102.9 83.5 103.3 82.6 103.8 81.8 104.2 81.5 104.3 81.1 104.4 80.7 104.5 80.7 104.4 80.7 104.4 80.6 104.3Z" class="a"/><path d="M88.2 25.1C87.9 26.1 81.7 29.5 80.5 29.4 80.9 29.1 81.1 28.9 81.3 28.7 82.9 27.9 84.6 27.1 86.2 26.3 86.8 25.9 87.4 25.6 88.2 25.1Z" class="a"/><path d="M56.3 80.9C52.1 84.3 48 87.9 43.3 90.7 47.6 87.4 51.9 84.1 56.1 80.7 56.2 80.8 56.2 80.8 56.3 80.9Z" class="a"/><path d="M72.7 43.8C73.1 43.5 73.5 43.1 73.8 42.9 74 42.8 74.4 42.9 74.5 43 74.6 43.1 74.6 43.5 74.5 43.6 74.3 44 74.2 44.4 74.3 44.9 74.4 45.1 74.3 45.3 74.2 45.5 74.1 45.7 73.9 46 73.7 46 73.5 46 73.3 45.8 73.2 45.6 73 45.2 72.9 44.8 72.3 44.8 72.2 44.8 72 44.6 71.9 44.4 71.8 44.2 71.8 44 71.8 43.8 72 43.7 72.2 43.7 72.5 43.7 72.6 43.7 72.7 43.8 72.7 43.8Z" class="a"/><path d="M5.8 29.2C8.2 27.7 10.8 26.7 13.2 25.2 13.3 25.3 13.3 25.3 13.4 25.4 13.3 25.6 13.2 25.8 13 25.8 11.8 26.5 10.6 27.2 9.4 27.9 8.6 28.4 7.7 28.8 6.8 29.2 6.5 29.4 6.2 29.4 5.9 29.5 5.9 29.4 5.8 29.3 5.8 29.2Z" class="a"/><path d="M56 6.2C51.9 9.5 48 13 43.5 15.7 47.6 12.5 51.7 9.3 55.9 6.1 55.9 6.1 56 6.2 56 6.2Z" class="a"/><path d="M141.4 122C141.3 122.1 141.2 122.3 141.1 122.3 140.9 122.4 140.5 122.5 140.4 122.4 140.3 122.2 140.3 121.9 140.3 121.6 140.3 121.5 140.6 121.4 140.6 121.2 140.8 120.9 141 120.6 141.1 120.3 141.2 120.1 141.2 119.8 141.4 119.7 141.6 119.5 141.8 119.5 142.1 119.3 142.2 119.6 142.3 119.8 142.3 120 142.4 120.5 142.1 121.1 142.7 121.5 142.8 121.6 142.5 122.2 142.4 122.5 142.1 122.4 141.8 122.2 141.4 122Z" class="a"/><path d="M66.4 121.8C66.3 122 66.2 122.2 66.1 122.3 65.9 122.4 65.5 122.4 65.5 122.4 65.4 122.1 65.2 121.7 65.4 121.6 65.9 121.1 66.1 120.5 66.3 119.9 66.4 119.6 66.8 119.5 67 119.3 67.1 119.6 67.3 119.8 67.3 120.1 67.4 120.6 67.1 121.1 67.7 121.5 67.8 121.6 67.5 122.2 67.4 122.5 67.2 122.4 66.9 122.3 66.7 122.2 66.6 122.1 66.6 122 66.4 121.8Z" class="a"/><path d="M141.5 46.9C141.4 47.1 141.2 47.2 141.1 47.3 140.9 47.4 140.5 47.4 140.5 47.4 140.3 47.2 140.2 46.7 140.3 46.6 140.9 46.1 141.1 45.5 141.4 44.8 141.4 44.6 141.8 44.5 142.1 44.4 142.2 44.6 142.4 44.8 142.4 45 142.4 45.6 142.2 46.1 142.7 46.5 142.8 46.6 142.6 47.1 142.5 47.5 142.2 47.4 142 47.3 141.8 47.2 141.7 47.1 141.6 47 141.5 46.9Z" class="a"/><path d="M118.8 90.4C122.9 87.2 127 84 131.1 80.8 131.1 80.8 131.2 80.9 131.2 80.9 127.2 84.2 123.3 87.7 118.8 90.4Z" class="a"/><path d="M67.4 45.9C68 46.5 68.1 47.1 67.6 47.4 67.4 47.5 67 47.2 66.5 47.1 66.5 47.1 66.4 47.2 66.2 47.3 66 47.4 65.6 47.5 65.6 47.4 65.5 47.2 65.4 46.9 65.5 46.6 65.5 46.5 65.7 46.3 65.8 46.2 66 45.9 66.1 45.6 66.2 45.4 66.3 45.2 66.3 45 66.4 44.9 66.6 44.7 66.9 44.5 67.2 44.4 67.3 44.6 67.4 44.8 67.5 45.1 67.5 45.3 67.4 45.6 67.4 45.9Z" class="a"/><path d="M66.3 126.6C68.3 126.6 70.1 126.1 72 125.6 72.3 125.5 72.7 125.2 73 125 73.2 124.9 73.4 124.9 73.6 125 73.6 125 73.7 125.3 73.7 125.4 73.4 125.7 73.2 126 72.9 126.1 71 126.6 69 127 67 127 66.8 126.9 66.5 126.9 66.3 126.8 66.3 126.7 66.3 126.7 66.3 126.6Z" class="a"/><path d="M141.3 126.6C143.3 126.6 145.3 126 147.2 125.5 147.5 125.5 147.7 125.2 148 125 148.1 125 148.4 124.9 148.5 125 148.6 125 148.7 125.3 148.6 125.4 148.4 125.7 148.2 126 147.9 126.1 146 126.6 144 127.1 141.9 126.9 141.7 126.9 141.5 126.8 141.3 126.8 141.3 126.7 141.3 126.7 141.3 126.6Z" class="a"/><path d="M141.3 51.6C143.4 51.6 145.3 51 147.3 50.5 147.5 50.4 147.7 50.2 148 50 148.1 50 148.4 49.9 148.5 50 148.6 50 148.7 50.4 148.6 50.4 148.4 50.7 148.2 51 147.9 51.1 146 51.6 144 52 142 51.9 141.7 51.9 141.5 51.8 141.3 51.8 141.3 51.7 141.3 51.7 141.3 51.6Z" class="a"/><path d="M66.5 51.6C68.6 51.6 70.6 51 72.6 50.4 72.8 50.4 72.9 50.2 73.1 50.1 73.3 50 73.4 50 73.6 49.9 73.7 50.1 73.8 50.4 73.7 50.4 73.5 50.7 73.3 51 73 51.1 71.1 51.6 69.1 52.1 67.1 52 66.9 51.9 66.6 51.8 66.4 51.8 66.4 51.7 66.4 51.7 66.5 51.6Z" class="a"/><path d="M145.4 123.7C145.2 123.5 145 123.3 144.7 123.1 144.5 123.4 144.2 123.6 144 123.9 143.4 123.6 143.4 123.2 143.8 122.8 144.2 122.4 144.5 122 144.5 121.4 144.5 121.4 144.5 121.3 144.5 121.2 144.7 120.8 144.8 120.3 145.3 120.5 145.5 120.6 145.5 121.1 145.5 121.5 145.6 121.7 145.5 122 145.6 122.1 146.1 122.7 146.1 123 145.4 123.7Z" class="a"/><path d="M69.8 123.1C69.5 123.4 69.3 123.7 69 123.9 68.4 123.5 68.4 123.2 68.8 122.8 69.2 122.4 69.5 122 69.4 121.4 69.4 121.3 69.5 121 69.6 120.9 69.8 120.7 70.1 120.6 70.3 120.4 70.4 120.7 70.6 121 70.6 121.2 70.4 121.7 70.5 122 70.8 122.4 71.2 122.8 70.9 123.3 70.5 123.7 70.2 123.5 70 123.3 69.8 123.1Z" class="a"/><path d="M145.5 48.7C145.2 48.5 145 48.3 144.7 48.1 144.6 48.2 144.5 48.4 144.3 48.5 144.1 48.6 143.9 48.7 143.7 48.7 143.7 48.5 143.5 48.1 143.6 48.1 144.3 47.5 144.4 46.7 144.7 45.9 144.7 45.7 145.1 45.6 145.3 45.4 145.4 45.7 145.6 45.9 145.6 46.1 145.5 46.6 145.4 47 145.8 47.4 146 47.6 145.8 48.2 145.8 48.6 145.7 48.6 145.6 48.6 145.5 48.7Z" class="a"/><path d="M70.5 46.9C71.3 47.6 71.3 47.9 70.6 48.7 70.4 48.5 70.1 48.3 69.9 48.1 69.7 48.2 69.6 48.4 69.4 48.5 69.3 48.6 69.1 48.7 68.9 48.7 68.8 48.5 68.7 48.1 68.8 48 69.4 47.5 69.6 46.7 69.7 46 69.8 45.6 70.1 45.3 70.5 45.5 70.6 45.5 70.7 46 70.7 46.2 70.7 46.4 70.6 46.7 70.5 46.9Z" class="a"/><path d="M122.6 40.5C124.2 43.1 126.8 43.4 129.4 44 126.5 44.9 122.6 42.5 122.6 40.5Z" class="a"/><path d="M122.6 115.7C124.2 118.1 126.8 118.4 129.4 119 126.7 119.9 122.8 117.7 122.6 115.7Z" class="a"/><path d="M54.3 44.1C51.6 44.6 48.4 43 47.7 40.7 49.4 43.1 51.9 43.4 54.3 44.1Z" class="a"/><path d="M47.6 115.8C48.4 116.8 49.4 117.6 50.6 118 51.8 118.4 53 118.7 54.2 119 51.7 119.8 48 117.8 47.6 115.8Z" class="a"/><path d="M81.7 105.1C84.2 103.8 86.5 102.6 88.8 101.4 88.5 102.4 82.7 105.5 81.7 105.1Z" class="a"/><path d="M13.9 101.4C13.3 102.5 7.7 105.5 6.8 105.1 9.1 103.8 11.5 102.6 13.9 101.4Z" class="a"/><path d="M81.8 30.1C84.2 28.8 86.5 27.6 88.9 26.4 88.2 27.5 82.7 30.4 81.8 30.1Z" class="a"/><path d="M14.1 26.3C13.3 27.6 7.9 30.4 6.9 30.1 9.3 28.8 11.6 27.6 14.1 26.3Z" class="a"/><path d="M80.5 103.2C82.8 101.5 85.3 100.4 87.8 99.1 87.8 99.2 87.9 99.2 87.9 99.3 85.5 100.7 83.1 102.1 80.7 103.5 80.6 103.4 80.6 103.3 80.5 103.2Z" class="a"/><path d="M12.9 99.3C10.5 100.7 8.1 102.1 5.7 103.5 5.7 103.4 5.6 103.4 5.6 103.3 5.8 103.1 6 102.8 6.3 102.7 8 101.7 9.7 100.7 11.5 99.8 11.9 99.5 12.4 99.3 12.8 99.1 12.8 99.2 12.9 99.2 12.9 99.3Z" class="a"/><path d="M87.9 24.3C85.5 25.7 83.1 27.1 80.7 28.5 80.7 28.4 80.6 28.3 80.6 28.2 82.7 26.5 85.3 25.4 87.8 24.1 87.8 24.2 87.9 24.2 87.9 24.3Z" class="a"/><path d="M13 24.3C10.6 25.7 8.2 27.1 5.8 28.5 6 27.7 11.8 24.3 13 24.3Z" class="a"/><path d="M66.5 125.2C67.9 125 69.4 124.8 70.7 124.7 70.1 125.4 67.4 125.9 66.5 125.2Z" class="a"/><path d="M141.4 125.2C142.9 125 144.3 124.8 145.7 124.7 145.1 125.5 142.2 125.9 141.4 125.2Z" class="a"/><path d="M141.5 50.2C142.9 50 144.3 49.8 145.7 49.7 145.1 50.5 142.1 50.9 141.5 50.2Z" class="a"/><path d="M4.8 102.4C5.2 103.5 5.7 104.6 6.1 105.7 5.4 105.4 4.9 104.9 4.7 104.2 4.5 103.6 4.2 103 4.8 102.4Z" class="a"/><path d="M6.3 30.7C5.5 30.3 4.9 29.8 4.7 28.9 4.6 28.4 4.5 27.8 4.9 27.5 5.3 28.5 5.8 29.6 6.3 30.7Z" class="a"/><path d="M81.1 105.6C79.8 105.3 79 103.4 79.8 102.5 80.2 103.5 80.7 104.6 81.1 105.6Z" class="a"/><path d="M81.1 30.7C80.3 30.4 79.8 29.8 79.6 29 79.5 28.4 79.3 27.8 79.8 27.5 80.2 28.5 80.7 29.6 81.1 30.7Z" class="a"/><path d="M70.9 49.7C69.9 50.5 67.2 50.9 66.6 50.2 68.1 50 69.5 49.8 70.9 49.7Z" class="a"/><path d="M64 103.8C64.6 104.7 65.3 105.5 65.4 106.6 65.3 106.6 65.2 106.7 65.1 106.7 64.7 105.8 64.3 104.8 63.9 103.9 63.9 103.9 64 103.9 64 103.8Z" class="a"/><path d="M140.2 106.8C139.7 105.7 139.3 104.8 138.8 103.7 139.8 104.5 140.5 106 140.2 106.8Z" class="a"/><path d="M64.2 28.8C64.7 29.7 65.4 30.5 65.5 31.6 65.4 31.6 65.3 31.7 65.3 31.7 64.8 30.8 64.4 29.8 64 28.9 64.1 28.9 64.1 28.8 64.2 28.8Z" class="a"/><path d="M138.9 28.9C139.8 29.6 140.5 31.1 140.1 31.7 139.7 30.8 139.3 29.8 138.9 28.9Z" class="a"/><path d="M66.1 28.5C66.3 28.4 66.5 28.3 66.7 28.2 66.9 28.1 67.1 28 67.2 27.9 67.3 28 67.3 28.1 67.3 28.1 66.7 28.5 66 28.9 65.3 29.4 65.2 29.3 65.2 29.2 65.2 29.2 65.5 29 65.8 28.7 66.1 28.5Z" class="a"/><path d="M141.7 103.1C141.8 103 142 103 142.3 102.9 141.6 103.6 140.9 104.1 140 104.2 140.6 103.8 141.2 103.4 141.7 103L141.7 103.1Z" class="a"/><path d="M141 28.5C141.4 28.3 141.7 28.1 142.2 27.9 141.6 28.7 140.7 29.2 140 29.2 140.4 28.9 140.7 28.7 141 28.4L141 28.5Z" class="a"/><path d="M67.2 103.1C66.5 103.5 65.8 104 65.1 104.4 65.1 104.3 65.1 104.2 65 104.2 65.7 103.8 66.4 103.3 67.1 102.9 67.1 103 67.2 103 67.2 103.1Z" class="a"/><path d="M65.3 15.9C65.4 16.6 65.1 16.8 64.5 16.6 64.4 16 64.4 16 65.3 15.9Z" class="a"/><path d="M43.6 33.9C44.2 34 44.6 34.2 45.1 34.4 44.8 34.8 44.2 34.6 43.6 33.9Z" class="a"/><path d="M140.1 90.9C140.1 91.6 140.1 91.6 139.3 91.6 139.3 91.4 139.3 91.2 139.3 90.9 139.3 90.8 139.4 90.7 139.5 90.6 139.6 90.7 139.6 90.8 139.7 90.8 139.8 90.9 140 90.9 140.1 90.9Z" class="a"/><path d="M118.6 108.9C119.1 109 119.5 109.2 120 109.4 120 109.5 119.9 109.6 119.9 109.6 119.3 109.8 119 109.3 118.5 109 118.5 109 118.6 108.9 118.6 108.9Z" class="a"/><path d="M139.4 16.6C139.3 16 139.3 16 140.1 15.9 140.2 16.6 140.2 16.6 139.4 16.6Z" class="a"/><path d="M119.9 34.6C119.3 34.8 118.9 34.4 118.6 33.9 119 34.1 119.5 34.2 120 34.4 120 34.4 120 34.5 119.9 34.6Z" class="a"/><path d="M64.3 91.6C64.3 91 64.3 91 65.1 90.9 65.2 91.5 65.1 91.8 64.3 91.6Z" class="a"/><path d="M43.6 108.9C44.1 109 44.5 109.2 45 109.4 44.3 109.8 44 109.3 43.5 109 43.5 109 43.6 108.9 43.6 108.9Z" class="a"/><path d="M110.1 133.9C107.9 133.6 108.1 134.2 107.6 135.4 106.8 134.7 106.6 133.9 106.5 133 106.4 132.2 106.8 131.7 107.5 131.6 107.6 131.5 107.8 131.5 107.9 131.5 108.8 131.6 110.1 132.9 110.1 133.9Z" class="a"/><path d="M35.1 133.9C33.2 133.7 33.2 133.8 32.7 135.4 31.9 134.9 31.8 134.2 31.6 133.6 31.5 133.2 31.5 132.7 31.6 132.4 31.7 131.8 32.2 131.6 32.8 131.6 33.7 131.5 35.1 132.9 35.1 133.9Z" class="a"/><path d="M110.1 58.9C108.5 58.6 108.1 58.7 107.7 60.3 107.6 60.3 107.6 60.3 107.5 60.3 106.8 59.9 106.2 58 106.6 57.3 106.8 56.9 107.3 56.6 107.7 56.6 108.7 56.4 110.1 57.9 110.1 58.9Z" class="a"/><path d="M35.2 58.9C33.2 58.6 33.2 59.1 32.8 60.3 32.7 60.3 32.5 60.3 32.5 60.2 31.9 59.4 31.5 58.6 31.6 57.6 31.7 56.9 32.2 56.5 32.9 56.5 33.8 56.5 35.2 57.9 35.2 58.9Z" class="a"/></svg>
