<svg width="126" height="130" viewBox="0 0 126 130" fill="none" xmlns="http://www.w3.org/2000/svg">
    <path d="M48.2967 125.214C48.7516 124.806 49.2215 124.931 49.6115 125.117C50.8062 125.683 52.051 125.825 53.3208 125.819C54.4256 125.813 55.7354 124.631 55.9553 123.437C56.0803 122.78 56.0353 122.124 55.8303 121.49C55.6904 121.072 55.6754 120.67 55.8353 120.234C55.9203 120.008 56.0103 119.889 56.2003 119.844C56.5402 119.765 56.8802 119.668 57.2251 119.617C58.4699 119.442 59.7147 119.527 60.9644 119.595C62.2142 119.663 63.469 119.685 64.6738 119.227C65.8385 118.786 66.9934 118.293 68.1381 117.79C68.898 117.456 69.5079 116.868 70.0178 116.155C70.6027 115.334 71.1676 114.502 71.5525 113.518C71.8125 112.844 71.8925 112.148 71.9325 111.435C72.0824 108.963 71.5975 106.603 70.9027 104.295C70.7077 103.644 70.3327 103.061 70.0328 102.456C69.148 100.679 68.2781 98.8966 67.8232 96.9049C67.5383 95.6487 67.3133 94.3756 67.0733 93.1082C67.0183 92.8139 66.9384 92.5536 66.7984 92.282C66.4034 91.5238 65.9535 90.7882 65.7636 89.9112C65.6036 89.1643 65.5786 88.4174 65.7736 87.6818C66.1735 86.1937 66.7434 84.796 67.4483 83.4663C67.6182 83.1438 67.8382 82.9175 68.1631 82.81C68.3381 82.7534 68.5081 82.6742 68.678 82.595C69.5079 82.2102 69.9628 81.2596 69.8178 80.2128C69.4429 79.879 69.008 79.9016 68.5831 80.0261C67.1983 80.4278 65.9135 81.0842 64.7987 82.1197C64.0789 82.7873 63.304 83.3871 62.7241 84.2302C61.4743 86.0465 60.6245 88.0666 60.3195 90.3582C60.2196 91.0994 60.1496 91.852 60.1396 92.5989C60.1146 94.3699 60.1246 96.1354 60.3845 97.8894C60.4595 98.3817 60.3745 98.8683 60.1896 99.321C60.0696 99.6152 59.9296 99.8925 59.5797 100.045C59.4597 99.9095 59.2847 99.7793 59.1997 99.5983C58.9298 99.0381 58.6648 98.4722 58.4549 97.8781C58.3449 97.5726 58.3149 97.2161 58.3149 96.8823C58.3099 95.943 58.3249 94.998 58.3649 94.0587C58.3749 93.7362 58.2899 93.5042 58.075 93.3345C57.87 93.176 57.665 92.995 57.4351 92.9044C56.4452 92.514 55.4104 92.4348 54.3856 92.6102C52.8259 92.8762 51.7261 93.9739 50.7613 95.3036C49.9814 96.3843 49.7414 97.6122 49.9514 98.9589C50.2664 100.945 50.9912 102.727 52.086 104.312C52.106 104.34 52.141 104.357 52.221 104.419C52.286 104.244 52.351 104.085 52.396 103.921C52.4859 103.587 52.6509 103.355 52.9809 103.321C53.0309 103.316 53.0808 103.304 53.1258 103.282C54.0357 102.846 54.8005 103.214 55.4354 103.927C55.9753 104.532 56.4302 105.24 56.9152 105.907C57.0201 106.049 57.1001 106.213 57.2901 106.354C57.3051 106.151 57.3451 105.941 57.3301 105.738C57.2751 104.985 56.9501 104.346 56.6752 103.678C56.4552 103.152 56.2753 102.608 56.1003 102.06C56.0403 101.873 56.0453 101.652 56.0603 101.449C56.0953 100.979 56.2853 100.741 56.6852 100.622C57.64 100.334 57.75 100.362 58.1899 101.375C58.8348 102.869 59.3847 104.385 59.4497 106.094C59.4947 107.214 59.3197 108.261 58.9248 109.268C58.8498 109.461 58.6998 109.647 58.5449 109.766C57.86 110.298 57.1501 110.796 56.4602 111.328C56.2353 111.503 56.0303 111.475 55.8004 111.396C54.8755 111.085 54.0657 110.541 53.3008 109.896C51.6311 108.482 50.3513 106.711 49.3715 104.629C48.6666 103.135 48.1217 101.59 47.8768 99.9208C47.8218 99.536 47.7968 99.1399 47.7518 98.7439C47.3269 98.5458 46.912 98.6363 46.512 98.7156C45.5022 98.9136 44.6323 99.4342 43.8475 100.175C43.0126 100.962 42.3528 101.901 41.8579 102.976C41.138 104.538 41.063 106.168 41.5629 107.842C41.9378 109.093 42.5077 110.208 43.2476 111.22C43.3076 111.305 43.3926 111.368 43.4626 111.441C44.0775 110.757 45.0573 110.57 45.8071 111.017C46.802 111.605 47.6618 112.414 48.5017 113.246C48.6866 113.427 48.8566 113.631 49.0616 113.852C49.5265 113.156 49.6564 112.471 49.4565 111.684C49.3215 111.164 49.2015 110.632 49.1515 110.094C49.1016 109.568 49.2315 109.438 49.6815 109.319C49.9414 109.251 50.2014 109.178 50.4613 109.15C50.6513 109.127 50.8462 109.172 51.0512 109.189C51.3961 111.537 51.2512 113.744 50.2664 115.826C50.0914 116.189 49.8714 116.528 49.7015 116.89C49.3365 117.654 48.7266 118.061 48.0468 118.35C47.8568 118.429 47.6218 118.435 47.4219 118.395C46.522 118.22 45.7172 117.762 44.9623 117.201C42.2228 115.153 40.4631 112.284 39.4833 108.77C39.4383 108.612 39.4083 108.442 39.3733 108.278C39.3383 108.114 39.3083 107.956 39.2633 107.746C38.8984 107.905 38.7034 108.233 38.4985 108.533C37.8736 109.455 37.5636 110.525 37.4087 111.651C37.0637 114.248 37.7736 116.517 39.1133 118.582C39.1433 118.627 39.1883 118.65 39.1883 118.65C39.6682 118.514 40.1132 118.373 40.5581 118.271C40.858 118.203 41.163 118.265 41.4229 118.458C42.1478 118.989 42.8677 119.533 43.5875 120.076C43.7225 120.178 43.8525 120.291 44.0275 120.427C44.4824 119.697 45.0373 119.227 45.8821 119.448C45.9721 120.206 45.9371 120.913 45.7572 121.609C45.5972 122.22 45.3872 122.82 45.2173 123.431C45.0923 123.89 44.8373 124.212 44.4674 124.438C44.0125 124.716 43.5725 125.021 43.1176 125.293C42.8577 125.451 42.5977 125.451 42.3178 125.27C39.2483 123.307 37.1087 120.483 36.1939 116.596C35.569 113.942 35.8139 111.362 37.0487 108.957C37.5436 107.99 38.1985 107.203 39.1683 106.75C39.1783 106.581 39.1883 106.394 39.1933 106.213C39.2083 103.916 40.0132 101.969 41.283 100.243C42.2928 98.874 43.5725 97.963 45.1473 97.6348C45.8621 97.482 46.567 97.482 47.2669 97.7027C47.4069 97.748 47.5518 97.7876 47.7268 97.8328C47.7618 97.7197 47.8118 97.6235 47.8268 97.5216C48.2017 94.2172 50.5913 91.4389 53.5208 90.9976C55.0305 90.7713 56.4252 91.2466 57.685 92.2028C57.955 92.4065 58.1849 92.6894 58.4449 92.9441C58.4949 92.5932 58.5499 92.1915 58.6098 91.7898C58.8298 90.3582 59.1098 88.9493 59.4947 87.563C59.8446 86.3238 60.3745 85.2148 61.1694 84.2642C63.459 81.5199 66.1535 79.5225 69.3829 78.4927C69.7029 78.3908 70.0278 78.3173 70.3527 78.2211C70.5527 78.1645 70.7127 78.2154 70.8527 78.3738C71.4725 79.0868 71.7575 79.9921 71.7175 80.9371C71.6925 81.5425 71.3676 82.1423 71.1426 82.7308C70.4927 84.4452 69.8728 86.171 69.5129 87.9987C69.003 90.6072 69.3229 93.0855 70.3377 95.4733C71.2326 97.5782 72.1724 99.6605 73.1872 101.698C74.707 104.747 75.7168 108.001 76.0867 111.492C76.2267 112.822 76.2917 114.157 76.1717 115.493C76.0617 116.709 75.8768 117.914 75.5368 119.086C75.4568 119.368 75.3169 119.634 75.1769 119.889C73.6122 122.667 71.4126 124.597 68.758 125.859C66.8234 126.775 64.8687 127.635 62.9041 128.461C62.1592 128.773 61.3744 128.988 60.5895 129.135C60.0246 129.237 59.4297 129.203 58.8498 129.146C56.4852 128.925 54.1806 128.36 51.931 127.511C51.1112 127.205 50.3213 126.804 49.5365 126.385C49.1815 126.198 48.8816 125.87 48.5666 125.593C48.4867 125.502 48.4067 125.355 48.2967 125.214Z" fill="#20766B"/>
    <path d="M38.4284 54.739C38.3634 54.9144 38.3034 55.0446 38.2634 55.1804C37.7385 56.9401 36.9787 58.5754 36.1088 60.1371C35.9339 60.4483 35.6739 60.6916 35.4439 60.9632C35.374 61.0424 35.279 61.099 35.214 61.1782C34.2692 62.3664 33.0944 62.8191 31.7096 62.5532C28.1503 61.8685 24.7559 60.6463 21.6815 58.4622C20.8117 57.8454 19.9818 57.1325 19.1919 56.3912C18.4721 55.7122 17.9722 54.8013 17.5223 53.8733C17.2973 53.4036 17.3773 53.2622 17.8272 53.1207C18.0872 53.0415 18.3221 53.0698 18.5421 53.2282C18.712 53.3471 18.882 53.4659 19.037 53.6073C20.1668 54.6768 21.4915 55.3218 22.8613 55.8877C24.9159 56.7421 27.0305 57.2909 29.2151 57.5116C30.0399 57.5908 30.8598 57.6813 31.7446 57.7719C31.7246 57.5512 31.7146 57.4097 31.6946 57.2683C31.5047 55.7632 31.2647 54.258 31.1397 52.7473C30.9748 50.7442 30.8598 48.7355 30.7948 46.7268C30.7598 45.7366 30.8848 44.7407 30.9348 43.7449C30.9498 43.4846 31.0498 43.3375 31.2847 43.2809C31.6496 43.1903 31.8546 43.2809 31.8946 43.6939C31.9246 43.9712 32.0446 44.1296 32.2045 44.305C34.0692 46.359 36.1388 48.1301 38.1384 50.003C40.8929 52.5832 43.9174 54.705 46.9618 56.793C48.2716 57.6926 49.5663 58.6206 50.8661 59.5373C51.0611 59.6731 51.266 59.7976 51.491 59.9447C51.7059 59.6504 51.6709 59.2996 51.7109 58.9771C51.7709 58.5131 51.8059 58.0435 51.8109 57.5738C51.8209 55.5764 51.8209 53.579 51.8109 51.5816C51.8059 50.9649 51.7559 50.3425 51.7209 49.7257C51.6359 48.3394 51.551 46.9531 51.461 45.5668C51.386 44.4635 51.326 43.3544 51.221 42.2511C51.0011 39.9934 50.7811 37.7301 50.5162 35.478C50.3212 33.8201 50.0962 32.1622 49.8013 30.527C49.1964 27.1886 48.5365 23.8671 47.8916 20.54C47.6767 19.4197 47.4417 18.2993 47.2168 17.179C47.1668 16.9413 47.0818 16.6924 47.3567 16.5452C47.6567 16.3868 47.9866 16.4604 48.1466 16.7602C48.3016 17.0488 48.4265 17.36 48.5265 17.6769C49.4114 20.4042 50.1412 23.1825 50.8211 25.9777C51.7309 29.7178 52.4108 33.5146 52.9207 37.3509C53.2257 39.6539 53.4856 41.9681 53.7306 44.2824C53.9255 46.1497 54.0755 48.0169 54.2205 49.8898C54.2954 50.8461 54.3255 51.8023 54.3554 52.7586C54.4054 54.3203 54.4954 55.882 54.4754 57.4437C54.4604 58.6433 54.4554 59.8485 54.1905 61.0311C54.0105 61.8402 53.7206 62.6041 53.3606 63.3227C52.9907 64.0583 52.3508 64.3638 51.6559 64.0526C50.9511 63.7301 50.2512 63.351 49.6063 62.8983C46.5769 60.7764 43.5624 58.6319 40.548 56.4705C39.9581 56.0461 39.4182 55.5425 38.8533 55.0785C38.7233 54.9767 38.5884 54.8692 38.4284 54.739Z" fill="#20766B"/>
    <path d="M100.527 100.656C100.282 100.758 100.032 100.86 99.7822 100.956C98.9174 101.295 98.0376 101.573 97.1077 101.573C96.3129 101.573 95.608 101.284 94.9681 100.769C94.0033 99.9941 93.2734 99.0038 92.6735 97.8382C91.5787 95.705 90.9639 93.3908 90.459 91.0199C89.9141 88.4397 89.5141 85.8256 89.2242 83.1945C89.1342 82.374 89.0842 81.5479 89.0342 80.7274C89.0192 80.4672 89.0642 80.2012 89.0992 79.9466C89.1492 79.6014 89.2992 79.426 89.5291 79.443C89.8141 79.46 89.7891 79.7089 89.8291 79.9296C90.6639 84.3714 91.7237 88.7453 93.2134 92.9721C93.5834 94.0245 94.0033 95.0543 94.6082 95.9653C94.8681 96.3557 95.1631 96.7179 95.478 97.0517C96.1629 97.7703 96.9578 97.9231 97.8326 97.5383C99.3123 96.8876 100.697 96.0276 102.062 95.1166C104.986 93.1588 107.781 90.9747 110.45 88.5982C112.285 86.9629 114.04 85.2258 115.644 83.3133C116.814 81.9214 117.894 80.4389 119.049 79.0299C120.013 77.8587 120.998 76.7044 122.028 75.6123C122.913 74.673 123.873 73.8299 124.793 72.9359C124.913 72.8227 124.998 72.6473 125.063 72.4776C125.158 72.223 125.313 72.0872 125.547 72.0589C125.867 72.0193 126.022 72.1551 125.997 72.5285C125.972 72.9189 125.917 73.315 125.822 73.6941C125.388 75.4369 124.778 77.1118 124.118 78.7583C122.813 82.0006 121.018 84.9033 119.194 87.7834C117.934 89.7751 116.609 91.7103 115.134 93.5039C113.43 95.5692 111.665 97.5723 109.94 99.615C109.345 100.322 108.796 101.08 108.211 101.799C107.321 102.902 106.331 103.876 105.181 104.628C104.966 104.77 104.726 104.872 104.491 104.945C103.916 105.121 103.397 105.047 102.892 104.617C102.372 104.176 101.962 103.644 101.647 103.021C101.267 102.257 100.922 101.488 100.527 100.656Z" fill="#20766B"/>
    <path d="M17.8873 93.0683C17.5773 93.8265 17.2974 94.5451 16.9924 95.2524C16.7425 95.8352 16.4075 96.3445 15.9176 96.7123C15.4477 97.0688 14.9678 97.1819 14.4079 96.9556C13.608 96.6331 12.9132 96.1408 12.3033 95.4844C11.0385 94.1208 9.75375 92.7684 8.81892 91.0709C8.07405 89.7129 7.33419 88.3436 6.63432 86.9517C5.19958 84.0999 3.92482 81.1519 2.89501 78.085C1.75521 74.7014 0.85538 71.2328 0.115515 67.7133C-0.0244593 67.0456 -0.0444599 66.3723 0.0955145 65.6989C0.265483 64.8728 0.790392 64.4937 1.47527 65.2123C2.94 66.7457 4.41472 68.2848 5.58451 70.1238C6.52934 71.6062 7.39419 73.151 8.23903 74.707C10.1837 78.2718 12.3333 81.6668 14.7728 84.8241C16.6825 87.2968 18.7621 89.5715 21.1017 91.5293C21.5066 91.8687 21.9265 92.163 22.4214 92.3044C22.7014 92.3837 22.9363 92.3384 23.1813 92.1686C23.9862 91.6141 24.671 90.9012 25.2859 90.1034C27.1206 87.7042 28.5153 84.9825 29.6501 82.0968C30.8249 79.1205 31.9247 76.1103 33.0745 73.1227C33.4744 72.0872 33.9243 71.0744 34.3493 70.0559C34.4692 69.7673 34.6342 69.541 34.9291 69.4957C35.1041 69.4674 35.2741 69.49 35.3491 69.705C35.4191 69.9087 35.524 70.1124 35.2941 70.3105C35.1891 70.401 35.1191 70.5708 35.0691 70.7236C33.7744 74.6618 32.5196 78.6113 31.1898 82.5325C30.115 85.7068 28.8003 88.7567 27.0856 91.5575C26.3707 92.7232 25.5959 93.8265 24.611 94.7205C24.1661 95.1223 23.6712 95.4222 23.1113 95.5976C22.2015 95.8805 21.3516 95.6712 20.5668 95.1506C19.8769 94.6979 19.227 94.166 18.5671 93.6624C18.3372 93.4814 18.1222 93.272 17.8873 93.0683Z" fill="#20766B"/>
    <path d="M72.7571 57.4604C73.337 56.9228 73.8869 56.4701 74.3818 55.9496C75.8816 54.3766 77.4013 52.8149 78.846 51.1739C81.5755 48.0619 84.585 45.3289 87.7444 42.8109C88.3043 42.3639 88.8642 41.9226 89.4191 41.4756C89.6491 41.2945 89.909 41.153 89.999 40.8079C90.019 40.7343 90.109 40.6664 90.179 40.6325C90.3739 40.5363 90.5739 40.4571 90.7938 40.3609C90.8188 40.4401 90.8638 40.5023 90.8638 40.5702C90.8738 41.1134 90.8588 41.6566 90.8738 42.1942C90.9438 44.5763 90.7339 46.9302 90.3089 49.2614C89.6391 52.928 88.9792 56.5946 88.2893 60.2556C88.1843 60.7988 87.9944 61.3363 87.7744 61.8342C87.5245 62.3944 87.1345 62.4284 86.7996 61.9304C86.4996 61.4834 86.2047 61.0025 86.0397 60.4876C85.4998 58.7844 85.0099 57.0643 84.525 55.3441C84.22 54.2691 83.9651 53.177 83.6851 52.0906C83.6651 52.0057 83.6252 51.9322 83.5702 51.7907C83.2502 52.1302 82.9553 52.4301 82.6703 52.7356C80.4907 55.0329 78.3361 57.3585 76.0165 59.4747C75.4766 59.9727 74.8867 60.4027 74.3018 60.8384C73.8819 61.1496 73.412 61.342 72.8971 61.3872C72.5172 61.4212 72.1772 61.308 71.8623 61.0591C71.2774 60.6007 70.8275 60.0292 70.5025 59.2937C70.2276 58.6656 69.9276 58.0658 69.7927 57.3755C69.6177 56.4871 69.5827 55.5875 69.6527 54.6821C69.9476 50.925 70.9075 47.3376 71.8923 43.7615C73.0971 39.3876 74.6018 35.1382 76.2115 30.9341C77.5013 27.5617 78.801 24.2007 80.1208 20.8453C80.5657 19.7079 81.0906 18.6159 81.5755 17.5012C81.7405 17.1221 82.0154 16.9523 82.3654 16.9071C82.7753 16.8561 82.9803 17.0994 82.8703 17.5465C82.7753 17.9256 82.6353 18.2877 82.5104 18.6555C81.1856 22.5371 79.8408 26.4131 78.5361 30.3004C77.3863 33.735 76.2265 37.1696 75.1617 40.6381C73.9869 44.4632 73.0721 48.3787 72.4772 52.3792C72.3272 53.3977 72.2222 54.4275 72.2672 55.4686C72.3022 56.125 72.4022 56.7644 72.7571 57.4604Z" fill="#20766B"/>
    <path d="M117.039 0C118.844 0.03395 120.588 0.362145 122.263 1.12602C122.523 1.24485 122.763 1.42025 122.993 1.60132C123.143 1.71449 123.273 1.86725 123.223 2.12188C123.173 2.3765 122.978 2.35953 122.828 2.38782C121.338 2.68771 119.854 3.00458 118.359 3.25354C117.509 3.395 116.639 3.40632 115.779 3.48554C112.615 3.78543 109.53 4.48141 106.571 5.82809C103.737 7.1182 101.127 8.82135 98.8675 11.1696C98.5726 11.4751 98.2676 11.7637 97.9527 12.0466C97.6327 12.3295 97.4178 12.2503 97.2678 11.8259C97.1028 11.3619 97.0928 10.9093 97.3778 10.4906C97.8327 9.81721 98.2526 9.10993 98.7475 8.48186C100.192 6.64855 101.937 5.24528 103.827 4.05137C106.886 2.12188 110.165 0.933633 113.62 0.362142C114.749 0.169758 115.899 0.113167 117.039 0Z" fill="#20766B"/>
    <path d="M97.5725 71.7193C95.9527 71.6231 94.473 71.5439 93.0233 71.1478C92.3734 70.9724 91.7435 70.7517 91.1786 70.316C90.8337 70.0501 90.6087 69.688 90.4437 69.2692C90.3638 69.0599 90.2638 68.8279 90.4537 68.6468C90.6387 68.4714 90.8886 68.3865 91.1036 68.5393C91.5685 68.8618 92.0884 68.8845 92.5984 68.9071C93.3482 68.941 94.1031 68.9637 94.848 68.9014C95.9878 68.8053 97.1325 68.6808 98.2623 68.4884C100.402 68.1149 102.417 67.2662 104.346 66.1911C105.421 65.5913 106.461 64.9123 107.491 64.222C108.251 63.7128 109.075 63.4694 109.93 63.2827C110.095 63.2488 110.26 63.2205 110.42 63.1752C110.95 63.0224 111.4 63.2771 111.825 63.5656C111.91 63.6222 111.94 63.8259 111.955 63.9617C112.015 64.5672 111.795 65.1047 111.6 65.6479C111.505 65.9082 111.38 66.1515 111.265 66.4061C110.93 67.1474 110.455 67.7302 109.79 68.1093C107.501 69.3994 105.131 70.4235 102.627 71.0346C101.262 71.3685 99.8871 71.6287 98.4823 71.6457C98.1274 71.6401 97.7774 71.7023 97.5725 71.7193Z" fill="#20766B"/>
    <path d="M115.924 11.356C117.049 11.3673 118.164 11.4522 119.229 11.8596C120.064 12.1821 120.878 12.5725 121.443 13.4099C121.938 14.1399 121.758 15.147 121.028 15.5658C120.339 15.9618 119.599 16.0524 118.844 15.843C118.184 15.6563 117.534 15.4017 116.864 15.2602C115.604 14.9886 114.335 14.9094 113.045 15.0112C110.83 15.1866 108.656 15.5658 106.516 16.2108C104.341 16.8672 102.252 17.8065 100.202 18.8476C100.007 18.9494 99.8073 19.0513 99.6073 19.1418C99.2624 19.3003 99.1574 19.2663 98.9224 18.9325C98.8824 18.8759 98.8424 18.808 98.8125 18.7457C98.4475 18.0271 98.4875 17.8913 99.0274 17.4387C100.212 16.4485 101.507 15.6789 102.837 14.9716C106.226 13.1666 109.81 12.1538 113.5 11.5596C114.295 11.4238 115.115 11.4182 115.924 11.356Z" fill="#20766B"/>
    <path d="M5.2195 10.5301C5.45946 10.434 5.65443 10.3887 5.8244 10.2868C8.72888 8.53274 11.8383 7.45767 15.0477 6.72775C16.9624 6.29206 18.9021 6.19585 20.8517 6.24112C23.2263 6.2977 25.5509 6.72775 27.8255 7.46899C29.7951 8.11404 31.7198 8.9062 33.3995 10.2982C33.7594 10.598 34.0893 10.9489 34.4043 11.311C34.5443 11.4751 34.6142 11.7184 34.7092 11.9108C34.3443 12.2503 34.2393 12.2842 33.9744 12.0805C32.7796 11.1526 31.4398 10.5867 30.0901 10.0492C27.9004 9.1778 25.6409 8.64593 23.3363 8.35735C21.7965 8.16497 20.2518 8.18759 18.7021 8.25549C15.8976 8.37431 13.2131 9.13819 10.5835 10.185C9.21379 10.7338 7.81904 11.1469 6.3643 11.2714C6.09935 11.294 5.82939 11.294 5.56944 11.2488C5.12952 11.1695 5.07953 11.0337 5.2195 10.5301Z" fill="#20766B"/>
    <path d="M15.1427 18.333C15.2127 18.4292 15.2627 18.4971 15.3127 18.565C15.2877 18.5876 15.2627 18.6216 15.2377 18.6216C15.0728 18.6499 14.9078 18.6612 14.7428 18.7008C14.5029 18.763 14.3579 18.6442 14.2629 18.4179C14.1629 18.1859 14.2579 18.0048 14.4179 17.8803C14.6178 17.7162 14.8328 17.5691 15.0578 17.4503C16.0026 16.9637 17.0124 16.6977 18.0322 16.528C19.197 16.33 20.3667 16.1772 21.5415 16.0583C22.4313 15.9678 23.3312 15.9395 24.226 15.9169C25.9057 15.8773 27.5854 15.8547 29.265 15.8377C30.4248 15.8264 31.5346 16.1602 32.6394 16.5167C32.8144 16.5733 32.9993 16.6129 33.1593 16.7034C33.2943 16.7826 33.4942 16.9241 33.4942 17.0429C33.4992 17.2183 33.3892 17.4446 33.2643 17.5635C33.1193 17.6993 32.9093 17.7728 32.7194 17.8294C31.3146 18.2538 29.9049 18.531 28.4352 18.3217C27.1354 18.135 25.8307 17.9822 24.5209 17.8577C22.5463 17.671 20.5667 17.6653 18.5871 17.7558C17.5873 17.8011 16.6025 17.9199 15.6277 18.1689C15.4727 18.2198 15.3177 18.2764 15.1427 18.333Z" fill="#20766B"/>
</svg>