<svg width="158" height="171" viewBox="0 0 158 171" fill="none" xmlns="http://www.w3.org/2000/svg">
    <path d="M157.5 147.665C157.235 147.37 157.185 146.985 157.195 146.599C157.2 146.373 157.275 146.157 157.5 146.078C157.5 146.605 157.5 147.138 157.5 147.665Z" fill="#AD533D"/>
    <path d="M107.092 4.98985C107.342 4.8312 107.542 4.70655 107.747 4.5819C108.953 3.84532 110.208 3.23907 111.518 2.79712C111.923 2.66114 112.319 2.57047 112.739 2.75178C113.134 2.92743 113.244 3.04075 113.254 3.53369C113.279 4.45158 113.039 5.30148 112.554 6.02105C112.103 6.6953 111.613 7.35254 111.063 7.91914C109.793 9.22231 108.468 10.4575 107.172 11.7267C106.027 12.8485 104.892 13.9817 103.761 15.1262C103.501 15.3869 103.261 15.6872 103.051 15.9988C102.766 16.4294 102.421 16.7694 102.046 17.0867C101.921 17.1943 101.791 17.3473 101.746 17.5116C100.996 20.05 100.155 22.56 99.6053 25.1663C99.4802 25.7499 99.4052 26.3505 99.3252 26.9454C99.3052 27.0984 99.3252 27.2967 99.4002 27.4214C100.075 28.6226 100.586 29.9087 100.946 31.2742C100.956 31.3196 101.001 31.3592 101.046 31.4329C101.071 28.2713 102.216 25.6139 103.701 23.0869C105.327 20.3219 107.562 18.3842 110.118 16.8487C110.543 16.5937 110.983 16.3671 111.413 16.1121C111.563 16.0215 111.693 15.8912 111.833 15.7722C111.473 15.2282 111.138 14.758 110.838 14.265C110.423 13.5851 110.153 12.8372 110.188 11.993C110.233 10.8654 110.638 9.94189 111.493 9.3413C112.233 8.82003 113.049 8.48008 113.904 8.28177C114.184 8.21944 114.394 8.12312 114.509 7.80016C114.639 7.43754 114.909 7.2109 115.209 7.02392C116.84 6.00972 118.485 6.00971 120.14 6.9106C120.971 7.36387 121.516 8.08346 121.586 9.15433C122.041 9.31864 122.471 9.45462 122.891 9.63027C124.217 10.1969 124.592 11.1148 124.507 12.5539C124.462 13.3358 124.267 14.0724 124.041 14.8033C123.841 15.4549 123.511 16.0215 123.061 16.4917C122.911 16.6504 122.786 16.7977 122.791 17.064C122.801 17.9082 122.571 18.7015 122.336 19.4834C122.171 20.0273 121.881 20.4919 121.491 20.8659C120.401 21.9141 119.175 22.458 117.75 21.9254C117.035 21.6591 116.405 21.1888 115.979 20.4069C114.114 21.0075 112.609 20.5146 111.593 18.4975C111.473 18.6505 111.383 18.7525 111.303 18.8601C110.403 20.0953 109.518 21.3475 108.598 22.5656C107.977 23.3815 107.287 24.1238 106.662 24.9284C105.402 26.5545 104.351 28.3393 103.636 30.3563C103.411 30.9909 103.291 31.6425 103.286 32.4018C103.976 32.2205 104.622 32.0505 105.262 31.8918C105.637 31.8012 106.012 31.7162 106.387 31.6369C106.587 31.5972 106.782 31.5972 106.947 31.7842C107.002 31.8522 107.082 31.9201 107.152 31.9315C107.597 31.9881 107.677 32.3394 107.667 32.7474C107.647 33.4443 107.612 34.1412 107.577 34.8325C107.507 36.2433 107.422 37.6541 107.362 39.0649C107.287 40.8157 107.242 42.5665 107.157 44.3173C106.982 47.8415 106.942 51.3714 106.972 54.9013C107.007 58.7655 107.912 62.3407 109.848 65.559C110.288 66.2899 110.663 67.0718 111.088 67.8197C111.393 68.3579 111.728 68.8792 112.043 69.4062C112.198 69.6668 112.349 69.9331 112.529 70.2447C113.364 70.2277 114.219 70.0351 115.019 69.5875C115.244 69.4628 115.434 69.2078 115.579 68.9642C116.159 68.001 116.505 66.9075 116.69 65.7743C116.935 64.2955 117.11 62.7996 117.29 61.3095C117.495 59.5927 117.695 57.8759 117.86 56.1535C117.97 55.0316 118.02 53.9041 118.09 52.7766C118.1 52.6066 118.09 52.4366 118.09 52.2666C118.1 51.1674 118.205 51.0428 119.1 50.7028C120.896 50.0116 122.676 49.2637 124.482 48.5951C125.857 48.0851 127.252 47.6545 128.648 47.2013C128.903 47.1219 129.173 47.0879 129.433 47.0709C129.958 47.0369 130.628 47.5525 130.758 48.1305C130.868 48.6404 130.948 49.1673 130.963 49.6886C131.018 51.5584 130.878 53.4225 130.628 55.2639C130.153 58.7825 129.618 62.2897 129.118 65.8026C129.018 66.5052 128.953 67.2191 128.868 67.9613C129.003 67.984 129.113 68.018 129.223 68.0237C130.543 68.0803 131.843 67.9103 133.149 67.7177C134.419 67.525 135.689 67.3607 136.96 67.2021C137.67 67.1114 138.38 67.0548 139.095 66.9868C139.485 66.9528 139.861 66.9925 140.186 67.2814C140.236 67.3267 140.296 67.3777 140.356 67.3947C140.961 67.5477 141.221 68.0803 141.381 68.6696C141.576 69.3891 141.706 70.1314 141.861 70.8623C142.306 72.953 142.641 75.0664 142.771 77.2138C142.876 78.9306 142.881 80.6474 142.796 82.3642C142.711 84.0923 142.601 85.8204 142.476 87.5485C142.306 89.8716 142.096 92.1946 141.921 94.5177C141.821 95.8322 141.756 97.1467 141.681 98.4612C141.591 100.076 141.496 101.691 141.421 103.311C141.361 104.609 141.341 105.912 141.276 107.209C141.206 108.734 141.116 110.252 141.016 111.771C140.926 113.119 140.836 114.473 140.706 115.822C140.501 117.952 140.276 120.082 140.026 122.213C139.77 124.394 139.5 126.581 139.19 128.751C138.46 133.851 137.735 138.95 136.395 143.902C135.834 145.976 135.194 148.021 134.574 150.072C134.444 150.497 134.274 150.922 134.039 151.285C133.819 151.625 133.519 151.925 133.204 152.157C132.149 152.928 130.983 153.449 129.808 153.931C127.207 154.99 124.617 156.073 122.001 157.081C119.74 157.948 117.405 158.464 115.029 158.73C113.334 158.917 111.633 158.917 109.938 158.843C109.193 158.809 108.443 158.741 107.707 158.594C106.307 158.311 105.137 157.5 104.101 156.407C103.736 156.022 103.356 155.659 103.001 155.302C102.196 155.88 101.426 156.396 100.681 156.968C99.2752 158.044 97.7148 158.656 96.0844 159.093C94.544 159.501 92.9786 159.744 91.4082 159.914C89.5377 160.118 87.6722 160.35 85.8018 160.543C84.9715 160.628 84.1413 160.679 83.3111 160.696C80.8805 160.747 78.4449 160.821 76.0143 160.798C74.6689 160.787 73.3286 160.6 71.9832 160.486C71.038 160.407 70.0928 160.328 69.1475 160.231C67.3421 160.05 65.5366 159.863 63.7362 159.665C60.9555 159.365 58.1748 159.076 55.399 158.73C54.0787 158.566 52.7734 158.265 51.458 158.027C51.313 157.999 51.163 157.982 51.0029 157.954C50.8179 158.265 50.6478 158.56 50.4678 158.855C49.6776 160.141 48.6873 161.2 47.5721 162.113C44.9714 164.243 42.1957 166.028 39.2549 167.495C38.0396 168.102 36.7693 168.453 35.464 168.668C33.9336 168.917 32.4082 169.189 30.8728 169.399C30.3677 169.467 29.8425 169.376 29.3274 169.371C29.1824 169.365 29.0323 169.365 28.8873 169.399C27.3169 169.716 25.7465 170.051 24.1761 170.362C23.5409 170.487 22.9108 170.595 22.2506 170.498C21.7155 170.419 21.1603 170.555 20.6102 170.566C20.3801 170.572 20.1401 170.527 19.93 170.436C19.77 170.368 19.5749 170.232 19.5149 170.068C19.2649 169.405 18.8898 168.787 19.0298 167.983C19.1098 167.535 19.0248 167.048 19.0598 166.583C19.1448 165.444 19.5099 164.407 20.1401 163.523C20.8102 162.589 21.5104 161.665 22.2806 160.838C23.2209 159.824 24.2411 158.911 25.2414 157.971C25.4914 157.733 25.7915 157.557 26.0966 157.336C25.9466 156.373 25.7865 155.347 25.6215 154.277C25.4414 154.339 25.2264 154.458 25.0113 154.475C24.2861 154.532 23.5509 154.611 22.8258 154.571C21.9005 154.515 20.9753 154.367 20.0501 154.226C19.1998 154.095 18.3946 153.795 17.6595 153.285C16.2491 152.31 14.8837 151.268 13.6334 150.038C13.1933 149.602 12.7432 149.177 12.4581 148.582C12.3731 148.407 12.2431 148.356 12.083 148.367C11.7179 148.39 11.3528 148.424 10.9877 148.441C10.2376 148.48 9.48737 148.543 8.74218 148.537C7.10177 148.52 5.49136 148.293 3.94596 147.63C3.79093 147.562 3.61588 147.489 3.51585 147.353C3.27579 147.024 2.97571 147.013 2.63563 146.99C2.19051 146.956 1.7454 146.86 1.31529 146.729C0.890183 146.605 0.600107 146.271 0.430063 145.806C-0.2151 143.993 -0.160083 142.248 0.770154 140.565C1.42532 139.381 2.29054 138.412 3.25579 137.562C5.85145 135.267 8.74718 133.658 11.923 132.689C12.2531 132.587 12.5982 132.429 12.9432 132.61C13.0783 132.684 13.2483 132.803 13.2883 132.95C13.3183 133.041 13.1733 133.25 13.0633 133.341C12.9082 133.477 12.7182 133.562 12.5381 133.652C9.91748 134.899 7.41684 136.395 5.16627 138.378C4.17101 139.25 3.2958 140.259 2.65564 141.494C2.33055 142.123 2.1355 142.797 2.31055 143.574C2.85068 143.71 3.37582 143.619 3.89595 143.557C4.8712 143.438 5.84144 143.273 6.81669 143.166C7.79694 143.052 8.73718 143.313 9.64741 143.71C10.0325 143.88 10.0725 144.118 9.81745 144.491C9.71743 144.639 9.5874 144.763 9.46737 144.894C9.36234 145.013 9.24731 145.12 9.08226 145.285C9.24731 145.307 9.34733 145.33 9.45236 145.33C10.2176 145.336 10.9877 145.324 11.7529 145.336C12.118 145.341 12.4781 145.381 12.9282 145.415C12.8232 145.103 12.7482 144.86 12.6582 144.627C12.4881 144.191 12.3181 143.766 12.4431 143.268C12.4681 143.166 12.4281 143.047 12.4131 142.933C12.3581 142.418 12.4031 141.919 12.5581 141.432C12.7082 140.95 13.0183 140.752 13.4434 140.888C13.9235 141.041 14.3986 141.2 14.8737 141.375C14.9788 141.415 15.1088 141.483 15.1638 141.579C15.4089 141.998 15.709 142.401 15.839 142.865C16.2041 144.14 16.8842 145.115 17.8095 145.919C19.2749 147.188 20.8953 148.146 22.5807 148.973C23.3559 149.353 24.1711 149.325 24.9913 149.291C25.3064 149.274 25.6215 149.228 25.9365 149.194C26.3917 149.149 26.5167 149.183 26.8168 149.455C26.7618 149.885 26.3767 149.97 26.1566 150.225C26.5917 150.412 27.0118 150.599 27.4769 150.798C27.772 150.401 28.1521 150.418 28.5722 150.611C28.9373 150.775 29.3024 150.849 29.5575 151.296C29.7875 151.699 29.8626 152.044 29.7775 152.503C29.6275 153.313 29.5075 154.135 29.3974 154.951C29.3274 155.478 29.3324 155.988 29.6625 156.452C29.9226 156.821 29.7725 157.115 29.3424 157.166C28.8973 157.223 28.4872 157.087 28.0971 156.787C27.762 157.019 27.4319 157.246 27.0368 157.518C27.2669 157.625 27.4219 157.721 27.592 157.767C27.797 157.829 27.9171 157.982 28.0571 158.146C28.4422 158.6 28.4022 159.036 28.1521 159.529C27.847 160.135 27.4019 160.583 26.9618 161.042C25.8965 162.152 24.8113 163.24 23.761 164.373C23.3409 164.827 22.9808 165.354 22.6357 165.886C22.4357 166.192 22.3156 166.572 22.1106 167.019C22.4707 167.031 22.7307 167.065 22.9858 167.042C26.1666 166.781 29.2774 166.09 32.3232 165.008C33.0884 164.736 33.8536 164.447 34.5137 163.92C34.8238 163.671 35.0889 163.722 35.394 163.869C35.539 163.937 35.709 164.011 35.8541 163.982C36.6893 163.818 37.4895 163.501 38.3147 163.161C38.3147 162.781 38.2997 162.424 38.3197 162.067C38.3347 161.79 38.3797 161.506 38.4497 161.24C38.5798 160.747 38.9048 160.503 39.34 160.481C41.6505 160.356 43.0359 158.815 43.9661 156.6C44.2862 155.84 44.2962 155.007 44.0362 154.226C43.7561 153.381 43.401 152.565 43.0659 151.744C42.8959 151.336 42.7008 150.939 42.5108 150.543C42.1657 149.812 42.0056 149.036 42.0456 148.203C42.0556 148.027 42.0206 147.823 41.9456 147.664C41.7506 147.251 41.5255 146.86 41.2905 146.424C41.1304 146.531 41.0254 146.616 40.9154 146.679C40.7253 146.786 40.5403 146.933 40.3352 146.984C39.9851 147.075 39.8201 146.939 39.695 146.554C38.3397 142.452 35.9241 139.437 32.5032 137.392C29.6325 135.675 26.5917 134.701 23.3659 134.372C21.3054 134.162 19.2449 134.117 17.1793 134.083C16.9293 134.077 16.6792 134.06 16.4291 134.043C16.1891 134.021 16.0891 133.862 16.064 133.596C15.999 132.916 16.079 132.752 16.6792 132.616C18.1996 132.276 19.725 132.004 21.2704 131.924C22.2356 131.873 23.2009 131.845 24.1611 131.805C24.2411 131.8 24.3211 131.788 24.4512 131.777C24.4512 131.562 24.4612 131.358 24.4462 131.159C24.4312 130.955 24.3962 130.751 24.3612 130.514C23.941 130.457 23.5159 130.406 23.0958 130.332C19.3849 129.669 15.6639 129.052 12.033 127.902C10.5126 127.42 8.96724 127.035 7.44185 126.564C6.57163 126.298 5.76642 125.856 5.02623 125.239C3.69089 124.117 3.52586 121.261 5.11626 120.105C6.12152 119.374 7.17678 118.796 8.29206 118.337C10.5676 117.408 12.9032 116.723 15.2488 116.088C19.2799 114.994 23.3309 114.031 27.4119 113.221C29.7875 112.751 32.1581 112.269 34.5337 111.805C35.1339 111.686 35.744 111.601 36.3892 111.493C36.3292 111.289 36.2892 111.13 36.2392 110.977C35.599 109.102 35.1839 107.175 35.0439 105.164C34.9288 103.504 34.9038 101.844 35.0089 100.189C35.1789 97.5206 35.604 94.886 36.1241 92.274C37.1494 87.1009 38.4897 82.0242 39.8151 76.9419C39.9251 76.5283 40.0751 76.126 40.2202 75.7237C40.3152 75.4574 40.4953 75.3101 40.7503 75.2704C40.9154 75.2421 41.0804 75.2024 41.2354 75.1344C41.7106 74.9248 42.1457 75.0834 42.5508 75.3441C42.6508 75.4064 42.7408 75.6274 42.7308 75.7634C42.6958 76.1713 42.6508 76.5962 42.5258 76.9759C40.9904 81.6276 39.7851 86.3984 38.6348 91.1804C37.9796 93.9114 37.4445 96.6707 37.0894 99.4697C36.9594 100.495 36.9043 101.532 36.8443 102.563C36.7993 103.374 36.7443 104.184 36.7843 104.994C36.8593 106.575 36.9894 108.144 37.1044 109.719C37.1444 110.241 37.2044 110.762 37.2594 111.334C37.6695 111.283 38.0446 111.232 38.4197 111.181C40.2702 110.955 42.1157 110.705 43.9711 110.507C45.3915 110.354 46.8219 110.246 48.2472 110.167C50.0427 110.065 51.8381 109.974 53.6336 109.94C57.2145 109.878 60.8004 109.861 64.3813 109.816C64.9465 109.81 65.5066 109.753 66.0918 109.725C66.2868 108.813 66.4819 107.923 66.6819 106.983C66.2718 107.164 65.9217 107.34 65.5666 107.47C65.2816 107.572 65.2465 107.521 65.2015 107.09C65.7367 106.909 66.2718 106.728 66.8019 106.547C66.897 106.122 66.987 105.736 67.082 105.317C66.6519 105.391 66.2618 105.493 65.8717 105.515C65.4116 105.544 65.2015 105.272 65.2215 104.75C65.2215 104.716 65.2565 104.688 65.2565 104.688C65.8167 104.711 66.3618 104.728 66.902 104.756C67.192 104.773 67.3721 104.643 67.4421 104.308C67.4871 104.087 67.5671 103.878 67.6422 103.668C67.8922 102.971 68.1523 102.28 68.4024 101.589C68.4624 101.419 68.5174 101.243 68.6024 100.983C68.4024 100.983 68.2473 100.988 68.0923 100.983C67.6922 100.971 67.3421 100.813 67.072 100.473C66.997 100.376 66.917 100.257 66.897 100.138C66.872 99.9797 66.857 99.7644 66.932 99.6567C66.992 99.5774 67.197 99.6001 67.3321 99.634C67.8672 99.753 68.3974 99.8947 68.9175 100.025C69.4626 98.8465 69.9728 97.7303 70.4979 96.5971C70.1778 96.5121 69.8477 96.4611 69.5476 96.3365C69.2025 96.2005 68.8775 96.0078 68.5474 95.8265C68.2073 95.6339 68.1423 95.3166 68.2473 94.8916C68.4024 94.8916 68.5574 94.8463 68.6824 94.8973C69.4376 95.2033 70.2228 95.1636 71.003 95.2259C71.2031 95.2429 71.3381 95.1693 71.4581 94.971C72.5484 93.2088 73.6487 91.4581 74.744 89.7016C74.779 89.645 74.794 89.5713 74.839 89.458C74.2738 89.3616 73.7287 89.3163 73.2086 89.1747C72.3233 88.931 71.4381 88.6477 70.5729 88.3305C70.0078 88.1265 70.0178 88.0868 70.0578 87.3559C69.9127 87.5372 69.8127 87.6619 69.7077 87.7865C68.8675 88.7724 68.3873 88.6194 67.7072 87.6732C67.3071 87.1179 67.037 86.4607 66.887 85.7524C66.852 85.5881 66.8119 85.4295 66.7519 85.1802C66.6419 85.3502 66.5669 85.4578 66.4969 85.5655C65.9767 86.3984 65.4616 87.2312 64.9415 88.0585C64.8564 88.1945 64.7464 88.3135 64.6314 88.4268C64.0362 88.9934 63.306 88.8517 62.9059 88.0868C62.7209 87.7299 62.5709 87.3559 62.3858 86.948C62.2608 87.1123 62.1358 87.2879 62.0057 87.4466C61.3956 88.2001 60.9354 88.4098 60.2303 87.2596C59.5651 86.1774 59.5301 84.9819 59.7351 83.741C59.7802 83.4634 59.8402 83.1914 59.9052 82.8628C59.7551 82.8118 59.6201 82.7495 59.4801 82.7155C57.1595 82.1206 54.8339 81.537 52.5733 80.6814C49.8676 79.6615 47.247 78.4094 44.6663 77.0382C44.3962 76.8965 44.2212 76.7209 44.2562 76.3526C44.2862 76.0126 44.3712 75.922 44.6763 76.007C45.2114 76.1486 45.7416 76.3016 46.2717 76.4716C47.8571 76.9815 49.4425 77.4971 51.0229 78.0184C51.298 78.1091 51.5431 78.1034 51.8331 78.0241C52.5533 77.8144 53.2985 77.6954 54.0637 77.8144C53.4735 77.9561 52.8834 78.0921 52.2883 78.2337C52.2833 78.2734 52.2832 78.313 52.2782 78.3527C52.4383 78.4093 52.5983 78.483 52.7634 78.5227C54.3288 78.874 55.8942 79.2253 57.4646 79.5652C57.7046 79.6162 57.9597 79.5992 58.2048 79.6219C58.5849 79.6559 58.9449 79.7635 59.31 79.8882C59.8452 80.0751 60.4153 80.1148 60.9404 80.2111C61.3205 79.7352 61.6556 79.2706 62.0357 78.8513C62.2058 78.67 62.4558 78.5397 62.6859 78.483C63.046 78.3924 63.251 78.6586 63.111 79.0439C62.961 79.4576 62.7759 79.8655 62.5609 80.2451C62.0157 81.2253 61.5756 82.2565 61.3956 83.4124C61.3506 83.707 61.3206 84.0017 61.2755 84.4039C61.4056 84.2566 61.4956 84.1886 61.5506 84.0923C61.8907 83.5314 62.2258 82.9704 62.5659 82.4095C62.7909 82.0356 63.031 81.6729 63.246 81.2933C63.6061 80.6531 64.1613 80.4378 64.7764 80.4264C64.9715 80.4208 65.0765 80.3698 65.2065 80.2451C65.3716 80.0865 65.5466 79.9392 65.7217 79.8032C65.8967 79.6672 66.0868 79.6389 66.2918 79.7522C66.3268 80.0525 66.2018 80.2621 66.0317 80.4491C65.4616 81.0723 65.0315 81.8033 64.7014 82.6192C64.4313 83.2878 64.0062 83.8713 63.8862 84.6136C63.8062 85.1065 63.7312 85.5994 63.6511 86.0924C63.6812 86.1094 63.7162 86.1264 63.7462 86.1434C63.8262 86.0414 63.9212 85.9508 63.9862 85.8374C64.7464 84.5513 65.4266 83.2084 65.9667 81.7806C66.3568 80.7494 66.3618 80.7494 67.3421 80.6021C68.2473 80.4661 68.3273 80.5624 68.1023 81.5483C67.8222 82.7835 67.8372 84.013 68.1573 85.2312C68.2373 85.5315 68.3673 85.8148 68.4974 86.1774C68.6274 86.0131 68.7274 85.9167 68.7924 85.7978C69.4276 84.6306 69.7327 83.3897 69.4026 82.0242C69.3876 81.9506 69.3726 81.8769 69.3576 81.8033C69.2426 81.2083 69.3076 80.908 69.5776 80.7494C70.0328 80.4944 70.7329 80.5341 70.983 80.8967C71.128 81.1064 71.1831 81.4066 71.3081 81.7579C71.6732 81.7919 72.0983 81.8429 72.5234 81.8769C73.3686 81.9506 74.2138 82.0242 75.059 82.0979C75.8542 82.1659 76.6644 82.1545 77.4396 82.3189C77.9798 82.4322 78.4999 82.7551 78.995 83.0498C79.1751 83.1574 79.2601 83.4634 79.3551 83.6164C79.6502 83.3161 79.9453 83.0214 80.2804 82.6815C79.8753 82.5795 79.5252 82.5172 79.1851 82.3982C78.85 82.2849 78.845 82.2339 78.95 81.7523C79.4152 81.6389 79.8753 81.7806 80.3154 81.9053C80.7255 82.0242 81.0106 81.9279 81.2806 81.571C81.4707 81.316 81.7157 81.112 81.9408 80.8854C81.9258 80.84 81.9108 80.8004 81.8958 80.7551C81.7607 80.7267 81.6307 80.6927 81.4957 80.6701C80.6105 80.5454 79.7652 80.2848 78.98 79.8088C78.78 79.6842 78.5699 79.5652 78.6449 79.1743C78.935 79.2479 79.2051 79.3386 79.4752 79.3782C80.2454 79.4972 81.0206 79.5992 81.7958 79.7069C81.8458 79.7125 81.9008 79.6955 81.9458 79.7125C82.906 80.0808 83.3461 79.2989 83.9113 78.5737C83.6812 78.517 83.5112 78.4603 83.3411 78.4433C81.8558 78.3017 80.4904 77.7181 79.1851 76.9419C79.1151 76.8965 79.05 76.8342 78.99 76.7662C78.97 76.7436 78.975 76.6982 78.95 76.5849C79.0651 76.5849 79.1701 76.5622 79.2651 76.5906C79.9803 76.7719 80.6855 76.9815 81.4057 77.1402C82.2909 77.3328 83.1911 77.3328 84.0913 77.2648C84.1764 77.2592 84.2614 77.2195 84.3364 77.2422C84.7965 77.3895 85.1366 77.2478 85.4017 76.7889C85.5267 76.5793 85.7317 76.4376 85.9718 76.194C81.0806 74.7378 76.1843 73.7009 71.138 73.2193C71.073 73.7633 71.003 74.2789 70.943 74.7945C70.803 76.0466 70.6829 77.2988 70.5329 78.551C70.4879 78.9419 70.3729 79.3216 70.2778 79.7012C70.2478 79.8145 70.1678 79.9165 70.0828 80.0695C69.9977 79.9448 69.9127 79.8712 69.8877 79.7748C69.8527 79.6332 69.8477 79.4745 69.8477 79.3272C69.8177 77.9107 69.7477 76.4943 69.7777 75.0834C69.9277 68.2899 71.9132 62.2784 75.8442 57.1224C77.0195 55.5812 78.3499 54.261 80.0003 53.3828C81.0556 52.8219 82.1658 52.5216 83.3161 52.4196C83.6862 52.3856 84.0813 52.4706 84.4464 52.5839C85.6917 52.9635 86.707 53.7568 87.5272 54.873C88.5825 56.3065 89.2526 57.9609 89.7228 59.7287C90.2729 61.7684 90.668 63.8478 90.848 65.9782C90.9081 66.6695 90.9781 67.3607 91.0481 68.052C91.0631 68.1993 91.1081 68.3409 91.1581 68.5789C91.4482 68.0916 91.7183 67.6894 91.9433 67.2587C92.4184 66.3522 92.8686 65.423 93.3387 64.5164C93.4937 64.2161 93.4937 63.9102 93.4537 63.5872C93.1736 61.5418 92.8936 59.4964 92.6085 57.451C92.4935 56.6351 92.3734 55.8135 92.2484 55.0033C91.9683 53.2015 91.0881 51.8077 89.8928 50.6575C89.2376 50.0229 88.4174 49.7113 87.5722 49.53C86.5219 49.3033 85.4617 49.2807 84.3914 49.3713C83.2911 49.462 82.2059 49.6093 81.1406 49.9322C79.1501 50.5385 77.4597 51.751 75.9343 53.2922C71.083 58.1989 67.8072 64.2671 65.7217 71.2022C65.0365 73.4743 64.5964 75.8143 64.1213 78.1487C64.0763 78.381 63.9862 78.602 63.9162 78.84C63.5861 78.721 63.5461 78.4603 63.5611 78.194C63.6011 77.2365 63.6061 76.2733 63.7011 75.3157C63.8612 73.6273 64.1963 71.9728 64.6064 70.3354C64.6264 70.2674 64.6264 70.1881 64.6414 70.0464C64.4313 70.0407 64.2413 70.0181 64.0512 70.0294C63.171 70.0634 62.2858 70.0917 61.4056 70.1484C60.2453 70.222 59.08 70.2844 57.9197 70.409C53.7336 70.851 49.6176 71.6782 45.6216 73.208C44.9514 73.463 44.3362 73.8312 43.7411 74.2449C43.546 74.3808 43.361 74.5508 43.0859 74.4715C42.9659 74.0976 43.0859 73.8199 43.316 73.565C44.0812 72.7094 44.9464 72.0238 45.9416 71.5365C48.2772 70.392 50.7179 69.6555 53.1935 69.0549C55.209 68.5619 57.2495 68.2163 59.305 68.018C60.7304 67.882 62.1558 67.7913 63.5811 67.678C64.1763 67.6327 64.7714 67.5874 65.3966 67.5364C65.4816 67.2871 65.5666 67.0434 65.6516 66.7998C67.2571 62.216 69.4026 58.0006 72.3183 54.3234C73.3886 52.9749 74.5239 51.7 75.7742 50.5555C77.6647 48.8217 79.8353 47.8528 82.2109 47.4109C83.7562 47.1219 85.3116 46.9576 86.882 47.0936C88.9726 47.2749 90.698 48.2608 92.0784 50.0796C93.3987 51.819 94.0889 53.8361 94.3289 56.0798C94.504 57.7003 94.639 59.3321 94.7991 61.0205C94.8741 60.8789 94.9441 60.7655 94.9941 60.6466C95.7443 58.6408 96.2344 56.5501 96.5495 54.4027C96.9146 51.8757 96.9396 49.3316 96.8196 46.7876C96.6895 44.0226 96.3445 41.2803 95.8893 38.5607C95.6843 37.3425 95.4592 36.13 95.2342 34.8494C95.3342 34.7078 95.6743 34.7191 95.6843 34.3622C95.9193 34.2885 96.1544 34.1979 96.3945 34.1469C96.8696 34.0562 97.3447 33.9939 97.8198 33.9089C97.9148 33.8919 97.9999 33.8296 98.0599 33.8069C97.9399 32.787 97.8148 31.8012 97.7148 30.8153C97.6448 30.124 97.6048 29.4271 97.5748 28.7302C97.5648 28.4809 97.4747 28.3109 97.3397 28.1353C96.2244 26.7301 94.8891 25.6366 93.4437 24.7244C91.7583 23.6535 90.0629 22.6053 88.3724 21.5458C88.2874 21.4891 88.1974 21.4438 88.1124 21.3985C87.7022 21.6874 87.7022 21.6874 87.3171 21.6194C87.2221 21.9141 87.1521 22.2257 87.0221 22.509C86.887 22.8036 86.727 23.1039 86.5219 23.3362C85.6867 24.2994 84.9465 24.3051 83.9263 23.7952C82.971 23.3136 82.3309 22.4637 81.8308 21.4551C81.4657 20.7299 81.4507 19.9933 81.7357 19.2284C81.9858 18.5598 82.3609 17.9876 82.806 17.489C82.801 17.4323 82.806 17.387 82.791 17.3643C82.3559 16.7637 82.3659 16.1235 82.676 15.4662C82.721 15.3642 82.771 15.2679 82.806 15.1602C83.1661 14.112 83.8513 13.4888 84.7965 13.2055C85.0516 13.1262 85.3066 13.0355 85.6167 12.9335C85.6317 12.3443 85.5217 11.7663 85.3166 11.2167C85.2766 11.1034 85.0816 11.0298 84.9516 11.0071C84.2364 10.8938 83.6562 11.2394 83.1261 11.738C82.691 12.146 82.3659 12.6389 82.2259 13.2678C82.1258 13.7154 81.9008 13.9534 81.5107 14.112C80.7705 14.4067 80.0753 14.8259 79.4752 15.4095C79.2751 15.6022 79.1101 15.8458 78.94 16.0725C78.735 16.3444 78.775 16.6107 78.93 16.8997C79.4652 17.9252 79.2901 19.1094 78.4949 19.9367C78.3999 20.0386 78.3249 20.1576 78.2248 20.2936C78.735 21.3418 79.3601 22.135 80.5304 22.0217C81.0356 21.9707 81.5257 22.0444 81.9958 22.271C82.3009 22.4183 82.3759 22.509 82.3359 22.8603C82.2809 23.3532 82.1508 23.8235 81.8908 24.2258C81.6057 24.6734 81.2256 24.8717 80.7255 24.8207C79.3051 24.6791 78.1398 24.0161 77.3096 22.6733C77.0696 22.288 76.8095 21.9197 76.5994 21.5118C76.0093 20.3729 76.1493 19.2737 76.8095 18.2255C76.8595 18.1462 76.9145 18.0782 76.9695 18.0046C77.0095 17.9479 77.0496 17.8856 77.0445 17.8912C76.9345 17.336 76.7645 16.8487 76.7545 16.3558C76.7245 14.9109 77.2046 13.6871 78.2499 12.8315C78.81 12.3669 79.4402 12.0043 80.0603 11.6417C80.2954 11.5057 80.4754 11.3811 80.5654 11.0808C80.8705 10.0722 81.5157 9.40363 82.3359 8.95602C82.796 8.70105 83.2911 8.5084 83.7763 8.33276C84.5114 8.06079 85.1966 8.30443 85.8368 8.68972C86.2669 8.95035 86.5019 9.41496 86.632 9.94189C86.837 10.7748 86.867 11.6133 86.697 12.4576C86.672 12.5822 86.657 12.7125 86.632 12.8599C86.9271 12.9675 87.2021 13.0752 87.4822 13.1658C88.5975 13.5228 89.1126 14.4577 89.3427 15.6532C89.4977 16.4634 89.4177 17.268 89.2727 18.0669C89.1376 18.8034 88.9576 19.523 88.7825 20.3106C92.2484 20.7469 95.2892 22.237 97.7748 25.223C97.8398 24.9284 97.9048 24.7244 97.9298 24.5147C98.335 21.5798 99.3202 18.8998 100.671 16.3728C100.811 16.1065 100.876 15.7892 100.986 15.4945C101.136 15.0979 101.291 14.7013 101.441 14.3103C101.536 14.0554 101.686 13.8061 101.716 13.5398C101.871 12.146 101.786 10.7805 101.076 9.56228C100.22 8.0948 99.3502 6.6443 98.5 5.18249C98.2999 4.83686 98.0999 4.48558 97.9599 4.10596C97.7848 3.63002 97.9148 3.36939 98.325 3.17108C98.43 3.12008 98.545 3.07475 98.645 3.01809C99.3652 2.5988 100.025 2.76879 100.636 3.30705C101.146 3.76033 101.646 4.23061 102.151 4.68955C102.266 4.79154 102.386 4.88219 102.536 5.00684C102.721 4.5649 102.886 4.15694 103.066 3.76032C103.436 2.95576 103.821 2.16254 104.196 1.36363C104.562 0.581732 105.177 0.213431 105.897 0.0207879C106.297 -0.0868654 106.692 0.236101 106.727 0.70071C106.807 1.80557 106.872 2.91611 106.947 4.02097C107.017 4.2986 107.052 4.61023 107.092 4.98985ZM47.327 150.866C49.2575 151.121 51.168 151.381 53.0835 151.619C54.7689 151.835 56.4543 152.005 58.1397 152.237C60.1702 152.526 62.2158 152.605 64.2563 152.752C65.0865 152.815 65.9167 152.86 66.7469 152.911C67.8922 152.985 69.0375 153.109 70.1828 153.115C71.8782 153.126 73.5787 153.07 75.2741 153.007C76.7195 152.956 78.1648 152.888 79.6102 152.781C81.3006 152.656 82.9911 152.509 84.6765 152.327C86.3319 152.152 87.9823 151.937 89.6327 151.721C92.1234 151.393 94.614 151.053 97.1046 150.713C98.0949 150.577 99.0901 150.463 100.04 150.095C103.696 148.673 106.137 145.8 107.592 141.834C108.498 139.375 108.703 136.78 108.533 134.123C108.408 132.128 108.222 130.145 107.892 128.185C107.617 126.553 107.302 124.927 106.682 123.414C106.462 122.876 106.122 122.394 105.797 121.918C105.597 121.624 105.477 121.618 105.197 121.828C104.932 122.026 104.687 122.253 104.457 122.496C102.966 124.043 101.421 125.499 99.6403 126.61C99.4853 126.706 99.3602 126.87 99.2402 127.029C97.7598 128.989 96.0794 130.701 94.2239 132.191C93.8988 132.451 93.5387 132.65 93.1887 132.865C92.9736 132.995 92.7485 132.961 92.6035 132.746C92.4034 132.451 92.2234 132.134 92.0634 131.811C91.9183 131.522 91.9583 131.233 92.1584 130.972C92.4535 130.587 92.7335 130.191 93.0336 129.811C94.2389 128.264 95.3442 126.638 96.2594 124.853C96.3595 124.661 96.4695 124.44 96.4745 124.236C96.4795 122.915 96.5445 121.595 96.3845 120.264C96.2344 120.19 96.0894 120.105 95.9293 120.043C93.6488 119.204 91.3782 118.332 89.0826 117.55C86.532 116.683 83.9613 115.907 81.3106 115.521C80.8355 115.453 80.3604 115.402 79.8553 115.346C79.7952 115.567 79.7252 115.742 79.7052 115.924C79.6152 116.802 79.5402 117.68 79.4602 118.558C79.4101 119.119 79.5152 119.641 79.7552 120.133C80.0253 120.694 80.2504 121.289 80.5404 121.839C81.2656 123.238 81.9958 124.632 82.756 126.009C83.0961 126.627 83.0911 127.256 82.956 127.913C82.886 128.264 82.731 128.343 82.4459 128.196C82.2659 128.105 82.0858 127.992 81.9458 127.839C80.1103 125.867 78.685 123.55 77.5947 120.983C76.9895 119.567 76.3194 118.207 75.5442 116.91C75.2091 116.349 74.859 115.805 74.5089 115.232C73.8337 115.266 73.1886 115.306 72.5384 115.34C71.008 115.414 69.4776 115.482 67.9522 115.572C67.7122 115.584 67.4721 115.714 67.232 115.72C66.977 115.725 66.7219 115.606 66.4719 115.618C65.5266 115.663 64.5764 115.731 63.6311 115.799C62.2458 115.895 60.8954 116.218 59.5801 116.7C59.285 116.808 58.9899 116.915 58.7949 116.983C58.7099 117.425 58.6899 117.759 58.5798 118.06C58.3748 118.609 58.2848 119.17 58.2548 119.76C58.2298 120.377 58.2098 121 58.1497 121.618C57.9647 123.431 58.0597 125.227 58.3698 127.012C58.4148 127.278 58.5148 127.556 58.6549 127.771C59.5801 129.21 60.5803 130.57 61.7306 131.783C61.9807 132.049 62.0857 132.332 62.1057 132.723C62.1407 133.488 61.9007 134.157 61.6456 134.825C61.5306 135.131 61.3806 135.432 61.1955 135.692C61.0505 135.902 60.7854 136.055 60.5804 135.845C60.2203 135.494 59.7902 135.239 59.5151 134.752C58.2898 132.593 57.1695 130.361 56.1992 128.037C55.8491 127.205 55.5291 126.355 55.374 125.437C55.289 124.955 55.324 124.576 55.7941 124.372C55.7141 124.066 55.6441 123.788 55.5291 123.34C55.369 123.85 55.104 123.703 54.9539 123.607C54.6639 123.408 54.3538 123.199 54.1937 122.813C54.0287 122.423 53.8437 122.043 53.6636 121.658C53.0735 120.388 52.5083 119.102 51.8781 117.861C51.283 116.694 51.5431 116.819 50.2927 116.819C48.4123 116.819 46.5268 116.847 44.6463 116.932C43.266 116.995 41.8906 117.148 40.5203 117.318C38.4497 117.578 36.4342 118.179 34.3987 118.649C34.2787 118.677 34.1686 118.751 33.9886 118.836C34.2187 119.233 34.3837 119.607 34.6238 119.913C34.9588 120.343 34.9838 120.819 34.9388 121.34C34.9238 121.556 34.9288 121.788 34.9889 121.986C35.1989 122.7 35.464 123.397 35.644 124.122C35.8291 124.876 36.1391 125.556 36.4992 126.219C37.7696 128.559 39.1699 130.78 40.9554 132.661C41.4055 133.137 41.8656 133.601 42.3307 134.06C42.7958 134.519 43.1509 135.046 43.306 135.732C43.356 135.953 43.411 136.168 43.256 136.361C42.2207 136.061 41.9206 135.8 40.8303 134.633C39.0299 132.695 37.5495 130.474 36.3192 128.032C36.2042 127.805 36.0841 127.584 35.9641 127.352C35.634 127.488 35.424 127.301 35.2589 127.052C35.0589 126.751 34.8438 126.451 34.7088 126.111C34.4387 125.437 33.9636 124.972 33.5185 124.406C33.4084 124.627 33.3234 124.808 33.2334 124.984C32.8183 125.805 32.4332 125.816 31.9631 125.012C31.9531 124.995 31.9481 124.978 31.9381 124.961C31.503 124.27 31.1029 123.556 30.6277 122.898C30.0026 122.032 29.2574 121.306 28.3922 120.745C28.3522 120.723 28.2972 120.728 28.2371 120.723C28.1771 120.881 28.1221 121.034 28.0571 121.204C27.782 121.012 27.652 121.227 27.512 121.408C26.8868 122.236 26.4367 123.17 26.1466 124.213C25.5265 126.451 25.4514 128.729 25.7165 131.035C25.7465 131.29 25.7865 131.545 25.8165 131.794C26.5667 131.896 27.2769 131.97 27.9821 132.094C30.0476 132.457 32.0331 133.137 33.9836 133.97C36.7543 135.154 39.1449 136.916 40.9654 139.607C41.5055 140.406 42.0056 141.217 42.2757 142.185C42.3907 142.599 42.5408 143.001 42.7208 143.381C42.9459 143.868 43.2159 144.361 43.7411 144.457C44.1162 144.525 44.3862 144.729 44.6463 145.001C45.5915 145.982 46.2117 147.2 46.6568 148.537C46.8969 149.285 47.0919 150.044 47.327 150.866ZM100.931 121.986C100.961 121.998 100.996 122.015 101.026 122.026C101.211 121.867 101.396 121.714 101.576 121.544C102.211 120.961 102.841 120.377 103.471 119.788C104.131 119.165 104.942 119.034 105.752 118.915C105.847 118.904 105.952 118.932 106.042 118.978C106.417 119.182 106.777 119.403 107.077 119.748C108.037 120.847 108.653 122.179 109.083 123.624C110.203 127.392 110.638 131.29 110.753 135.239C110.783 136.174 110.698 137.12 110.593 138.055C110.123 142.344 108.638 146.101 105.977 149.228C105.902 149.313 105.852 149.426 105.782 149.54C105.872 149.574 105.917 149.591 105.967 149.602C108.643 150.254 111.343 150.599 114.089 150.424C115.399 150.339 116.715 150.31 118.02 150.18C119.195 150.061 120.371 149.897 121.526 149.647C125.117 148.877 128.703 148.061 132.384 147.591C132.419 147.494 132.479 147.364 132.519 147.222C133.084 145.171 133.689 143.132 134.204 141.064C134.864 138.412 135.294 135.704 135.699 132.99C136.06 130.559 136.41 128.122 136.73 125.68C136.96 123.93 137.155 122.173 137.345 120.417C137.54 118.626 137.725 116.83 137.895 115.034C138.015 113.782 138.1 112.524 138.195 111.266C138.205 111.147 138.175 111.028 138.165 110.955C137.05 111.312 135.965 111.669 134.874 112.014C131.678 113.028 128.408 113.408 125.102 113.408C122.871 113.402 120.636 113.374 118.405 113.334C117.255 113.312 116.109 113.261 114.964 113.198C113.899 113.142 112.839 113.062 111.778 112.994C111.013 112.943 110.248 112.904 109.488 112.836C108.112 112.711 106.742 112.575 105.367 112.428C104.041 112.286 102.721 112.122 101.426 111.765C101.161 111.691 100.886 111.646 100.591 111.584C100.591 111.963 100.591 112.28 100.591 112.598C100.596 113.085 100.671 113.572 100.43 114.037C100.365 114.167 100.38 114.371 100.405 114.53C100.551 115.572 100.686 116.615 100.861 117.652C101.056 118.802 101.311 119.935 101.086 121.119C101.016 121.397 100.976 121.692 100.931 121.986ZM96.5695 36.011C96.6245 36.1866 96.6895 36.3736 96.7445 36.5662C97.1396 37.9657 97.5648 39.3596 97.9199 40.7704C98.595 43.4957 98.9751 46.289 99.1502 49.1163C99.2552 50.8445 99.2202 52.5839 99.0801 54.3177C98.8551 57.0374 98.2799 59.6607 97.4297 62.2104C96.6245 64.6184 95.6043 66.9018 94.524 69.1625C92.6485 73.0834 90.3679 76.6699 87.6472 79.8938C86.4269 81.3386 85.1816 82.7551 83.9263 84.166C81.8908 86.455 79.9103 88.7951 78.0048 91.2201C75.8842 93.9228 74.0338 96.8577 72.3984 99.9513C70.878 102.83 69.8777 105.98 69.0725 109.198C68.7774 110.388 68.5974 111.618 68.3423 112.915C68.5774 112.915 68.7424 112.921 68.9025 112.915C69.4326 112.881 69.9627 112.836 70.4929 112.807C71.9032 112.728 73.3136 112.62 74.729 112.586C76.4244 112.547 78.1198 112.484 79.8203 112.637C81.4457 112.785 83.0611 113.023 84.6515 113.408C87.4672 114.094 90.2379 114.989 92.9886 115.946C93.1386 115.997 93.2937 116.043 93.5187 116.111C93.4687 115.295 93.3787 114.564 93.3887 113.839C93.4037 112.218 93.4487 110.598 93.5037 108.977C93.5387 107.963 93.6488 106.949 93.6738 105.935C93.7088 104.388 93.6738 102.835 93.7238 101.288C93.7588 100.201 93.8588 99.1128 93.9688 98.0306C94.0389 97.3223 94.2139 96.6254 94.2739 95.9115C94.429 93.9228 94.549 91.934 94.684 89.9453C94.7791 88.5571 94.8741 87.1689 94.9841 85.7808C95.1591 83.5824 95.4892 81.4123 95.9994 79.2819C96.4945 77.2195 97.0896 75.2024 98.1049 73.3723C98.1999 73.2023 98.2549 72.9984 98.3199 72.8C98.68 71.6839 99.0501 70.5677 99.6553 69.5818C100 69.0265 100.435 68.5902 101.011 68.3863C101.456 68.2276 101.911 68.103 102.366 68.0237C103.851 67.7574 105.347 67.7573 106.847 67.7687C107.007 67.7687 107.162 67.7687 107.382 67.7687C107.317 67.6327 107.282 67.5534 107.237 67.4797C106.447 66.1652 105.817 64.7544 105.237 63.3096C104.201 60.7259 103.761 57.9949 103.731 55.1789C103.711 53.3148 103.751 51.445 103.791 49.5809C103.836 47.5072 103.911 45.4391 103.991 43.3654C104.046 41.8979 104.126 40.4304 104.221 38.9686C104.296 37.8071 104.411 36.6456 104.502 35.4841C104.512 35.3424 104.492 35.2007 104.487 35.0138C103.506 35.1497 102.571 35.2687 101.641 35.416C100.47 35.5974 99.3102 35.8297 98.1399 35.994C97.6298 36.0676 97.1096 36.011 96.5695 36.011ZM101.576 93.4638C101.801 93.4751 101.946 93.4921 102.096 93.4921C105.877 93.4695 109.658 93.4525 113.439 93.4128C114.554 93.4015 115.669 93.3561 116.78 93.2995C117.91 93.2428 119.04 93.1805 120.166 93.0729C121.921 92.9029 123.671 92.7216 125.422 92.5006C127.737 92.2116 130.018 91.679 132.284 91.0728C133.999 90.6138 135.714 90.1436 137.435 89.7129C138.065 89.5543 138.71 89.4806 139.38 89.3617C139.42 88.8574 139.465 88.3758 139.5 87.8885C139.63 86.0697 139.79 84.251 139.876 82.4322C139.961 80.6644 139.946 78.891 139.811 77.1175C139.66 75.1967 139.34 73.3157 138.93 71.4459C138.895 71.2873 138.855 71.1286 138.81 70.9416C138.51 70.9699 138.245 70.9926 137.985 71.0266C136.7 71.2079 135.409 71.3722 134.129 71.5762C132.089 71.8992 130.048 72.2335 127.972 72.1768C127.277 72.1598 126.857 71.7292 126.482 71.2136C126.192 70.8113 125.992 70.3127 125.812 69.8311C125.697 69.5308 125.612 69.1682 125.652 68.8509C125.887 67.0604 126.132 65.2757 126.427 63.5022C127.057 59.7287 127.727 55.9608 128.068 52.1363C128.098 51.802 128.073 51.4677 128.073 51.0598C125.612 51.768 123.311 52.9182 120.916 53.7794C120.906 53.9324 120.901 54.0627 120.891 54.193C120.841 54.9636 120.811 55.7342 120.736 56.4991C120.561 58.2782 120.371 60.0516 120.181 61.8251C120 63.4909 119.84 65.1567 119.47 66.7828C119.085 68.4939 118.51 70.1144 117.715 71.6329C117.425 72.1881 117.07 72.7037 116.51 72.936C115.144 73.497 113.739 73.8652 112.284 73.9672C111.173 74.0466 110.058 74.1259 108.953 74.2392C108.493 74.2845 107.982 74.3072 107.597 74.5452C106.577 75.1798 105.612 75.9277 104.622 76.6246C104.422 76.7662 104.336 76.9815 104.286 77.2252C104.116 78.0694 103.921 78.908 103.776 79.7579C103.336 82.3472 102.911 84.9422 102.491 87.5372C102.181 89.4863 101.891 91.4354 101.576 93.4638ZM138.93 94.9426C138.845 94.954 138.745 94.9539 138.655 94.9823C137.48 95.3392 136.31 95.7019 135.139 96.0532C131.068 97.2713 126.927 97.9456 122.721 98.1042C119.375 98.2289 116.029 98.1722 112.694 97.8266C110.688 97.617 108.688 97.396 106.712 96.9824C104.917 96.6027 103.121 96.1835 101.436 95.3392C100.941 96.7727 100.225 108.382 100.541 109.816C100.586 109.827 100.631 109.85 100.681 109.844C102.161 109.776 103.636 109.697 105.117 109.629C106.097 109.583 107.077 109.549 108.057 109.515C108.493 109.498 108.923 109.498 109.358 109.476C110.403 109.419 111.448 109.345 112.494 109.295C113.574 109.244 114.654 109.215 115.734 109.176C116.069 109.164 116.4 109.159 116.735 109.136C118.06 109.04 119.385 108.938 120.711 108.847C121.626 108.785 122.536 108.762 123.451 108.688C124.957 108.564 126.462 108.416 127.972 108.28C129.318 108.161 130.648 107.957 131.964 107.6C134.109 107.022 136.255 106.433 138.415 105.85C138.575 102.178 138.75 98.5745 138.93 94.9426ZM89.4077 69.8141C89.3327 68.8056 89.2626 67.8537 89.1926 66.9018C89.1376 66.1709 89.1376 65.423 88.9976 64.7147C88.6975 63.1679 88.3574 61.6325 87.9673 60.114C87.6272 58.7881 87.1171 57.5473 86.3219 56.4594C85.2166 54.9466 83.5712 54.3913 81.9708 54.9636C81.0105 55.3036 80.1303 55.8305 79.3101 56.4991C78.3699 57.264 77.5447 58.1649 76.7995 59.1621C75.074 61.4625 73.6437 63.9725 72.6534 66.7885C72.5934 66.9585 72.5484 67.1341 72.4684 67.4004C75.3491 67.4401 78.1648 67.627 80.9655 68.018C83.7963 68.4033 86.557 69.1795 89.4077 69.8141ZM22.1956 116.343C22.1906 116.388 22.1856 116.434 22.1806 116.485C22.4257 116.677 22.6657 116.87 22.9158 117.051C23.5659 117.538 24.0711 118.179 24.4862 118.921C25.0063 119.85 24.9763 120.825 24.7112 121.805C24.5562 122.389 24.3161 122.944 24.0911 123.499C23.9761 123.788 23.826 124.083 23.5309 124.185C23.4009 124.23 23.2159 124.264 23.1208 124.19C22.8058 123.947 22.4807 123.697 22.2356 123.374C21.4604 122.355 20.5702 121.476 19.635 120.655C18.5697 119.726 17.4344 118.961 16.1041 118.615C15.829 118.547 15.5739 118.388 15.3038 118.303C15.1688 118.258 15.0088 118.235 14.8787 118.275C12.6532 118.91 10.4276 119.567 8.27706 120.502C7.56688 120.813 6.87671 121.204 6.20153 121.612C5.55637 122.003 5.51636 122.581 6.0615 123.153C6.23154 123.335 6.42659 123.482 6.61664 123.629C7.16678 124.049 7.79194 124.241 8.4221 124.423C10.6327 125.057 12.8632 125.567 15.1338 125.833C16.8893 126.043 18.6297 126.332 20.4001 126.281C20.8603 126.27 21.3304 126.338 21.7905 126.428C22.6957 126.604 23.606 126.644 24.5012 126.598C24.7012 125.771 24.8513 124.961 25.0963 124.185C25.5465 122.728 26.1466 121.363 27.2869 120.417C27.3369 120.377 27.3869 120.315 27.4119 120.252C27.612 119.743 27.802 119.595 28.2621 119.703C28.5372 119.765 28.8073 119.879 29.0623 120.009C29.9026 120.439 30.6577 121.029 31.3679 121.686C31.483 121.794 31.608 121.89 31.768 122.026C31.3979 120.961 31.0479 119.969 30.7078 118.972C30.3427 117.884 29.6425 117.102 28.8273 116.473C28.3672 116.116 27.9021 115.81 27.667 115.21C27.657 115.181 27.612 115.17 27.542 115.13C25.7765 115.527 23.9861 115.935 22.1956 116.343ZM113.274 14.5936C113.964 14.605 114.064 14.7353 113.884 15.3982C113.829 15.6022 113.694 15.7778 113.579 15.9535C113.399 16.2198 113.184 16.4634 113.014 16.741C112.949 16.8487 112.909 17.0357 112.944 17.1547C113.029 17.472 113.199 17.7666 113.484 17.8572C114.004 18.0216 114.529 18.0045 115.029 17.7099C115.409 17.4889 115.809 17.3133 116.195 17.1037C116.465 16.9564 116.695 17.0243 116.985 17.1037C117.335 17.2057 117.45 17.3813 117.495 17.7383C117.605 18.6278 118.25 19.0358 118.95 18.6278C119.435 18.3502 119.82 17.9252 120.01 17.3246C120.136 16.9394 120.151 16.5597 119.885 16.2084C119.76 16.0385 119.67 15.8288 119.6 15.6192C119.445 15.1603 119.57 14.8486 119.965 14.673C120.196 14.5653 120.441 14.4917 120.661 14.367C121.311 13.9987 121.736 13.4151 121.981 12.5312C121.591 12.5086 121.281 12.4859 120.971 12.4802C120.736 12.4746 120.531 12.4179 120.306 12.3103C119.815 12.078 119.615 11.5624 119.315 11.1487C119.005 10.7181 118.905 10.2479 119.225 9.74925C119.26 9.69826 119.255 9.61326 119.275 9.53394C119.205 9.48295 119.155 9.4263 119.095 9.40363C118.39 9.11467 117.66 9.06367 116.93 9.19965C116.45 9.29031 116.119 9.60193 116.059 10.2082C116.034 10.4632 115.934 10.7181 115.844 10.9561C115.764 11.1657 115.594 11.3187 115.404 11.1884C114.899 10.8371 114.389 11.0411 113.899 11.1601C113.259 11.313 112.684 11.653 112.289 12.3273C112.409 12.5709 112.489 12.8315 112.644 13.0242C113.004 13.4718 113.254 13.9591 113.274 14.5936ZM56.3693 111.142C53.5286 111.317 50.6328 111.47 47.7421 111.765C48.2622 112.643 48.7574 113.476 49.2875 114.366C49.5926 114.337 49.9577 114.286 50.3178 114.281C50.9529 114.275 51.6031 114.071 52.2132 114.513C52.5783 114.773 52.8684 115.096 53.0884 115.499C53.7236 116.649 54.3388 117.816 54.9589 118.978C55.059 119.165 55.159 119.357 55.259 119.556C55.6841 119.17 55.9142 118.859 56.1692 118.309C56.5693 117.453 56.8844 116.564 56.9994 115.601C57.0495 115.17 57.1945 114.875 57.6296 114.802C57.9697 114.739 58.2948 114.575 58.6699 114.434C58.1097 113.136 57.2945 112.133 56.3693 111.142ZM46.7769 114.519C46.6568 113.516 46.1917 112.751 45.6366 112.042C45.5865 111.98 45.4465 111.975 45.3565 111.986C43.1459 112.286 40.9404 112.592 38.7348 112.898C38.5698 112.921 38.4047 112.955 38.2447 112.989C38.0996 113.023 37.9546 113.068 37.8146 113.108C38.6848 113.657 39.405 114.303 39.9501 115.187C40.0501 115.351 40.1802 115.34 40.3452 115.317C41.5805 115.13 42.8158 114.949 44.0512 114.796C44.9314 114.688 45.8266 114.615 46.7769 114.519ZM30.1326 114.553C30.1376 114.592 30.1426 114.626 30.1526 114.666C30.6978 115.023 31.2729 115.329 31.773 115.748C32.2832 116.184 32.7183 116.734 33.1734 117.216C34.6438 116.779 36.1091 116.343 37.6345 115.89C37.0694 114.898 36.3092 114.252 35.669 113.436C33.8186 113.81 31.9781 114.179 30.1326 114.553ZM70.1728 87.2313C70.5579 87.2596 70.888 87.2766 71.2181 87.3049C72.2933 87.4012 73.3686 87.5146 74.4439 87.5882C74.989 87.6279 75.5342 87.5882 76.0793 87.6165C76.2593 87.6222 76.3494 87.5315 76.4544 87.4012C76.9945 86.71 77.5397 86.0187 78.0798 85.3332C78.1748 85.2085 78.2699 85.0782 78.3649 84.9535C78.2348 84.9252 78.1548 84.9479 78.0898 84.9989C77.7447 85.2652 77.3696 85.3728 76.9545 85.3615C76.3744 85.3502 75.7892 85.3728 75.2141 85.3388C74.2838 85.2878 73.3586 85.2028 72.4284 85.1235C71.9733 85.0839 71.5131 85.0385 71.088 84.9989C70.7729 85.7751 70.4829 86.489 70.1728 87.2313ZM88.9726 72.2788C88.7975 72.2335 88.7175 72.2108 88.6425 72.1938C87.0871 71.8652 85.5367 71.5479 83.9813 71.2079C81.4957 70.664 78.985 70.3524 76.4644 70.1597C75.4041 70.0747 74.3389 70.0011 73.2786 69.9444C72.7835 69.9161 72.2883 69.9388 71.7532 69.9388C71.6582 70.409 71.5782 70.834 71.4931 71.2646C72.1483 71.1626 72.7335 71.0266 73.3236 70.9869C75.4241 70.8623 77.5147 70.987 79.6002 71.2816C82.5209 71.6895 85.4267 72.1598 88.2624 73.293C88.4624 73.004 88.6875 72.6867 88.9726 72.2788ZM86.752 20.7015C86.817 20.4976 86.847 20.3049 86.9321 20.152C87.5322 19.0641 87.5422 17.8629 87.4722 16.6504C87.4572 16.3728 87.3472 16.1858 87.0721 16.1858C86.627 16.1858 86.1819 16.1688 85.7367 16.1914C85.1116 16.2198 85.0066 16.3784 84.9866 17.0753C84.9615 17.8686 84.7915 18.5881 84.2014 19.1264C83.9113 19.3927 83.6862 19.7667 83.4662 20.118C83.3962 20.2313 83.3661 20.4579 83.4162 20.5826C83.6562 21.1775 84.0663 21.5911 84.6315 21.7441C84.8015 21.7894 85.0666 21.7441 85.1866 21.6194C85.6267 21.1322 86.1869 20.9508 86.752 20.7015ZM61.2205 113.595C62.7109 113.402 64.1363 113.221 65.5816 113.034C65.6867 112.224 65.8517 111.425 65.9217 110.586C64.7464 110.671 63.6361 110.745 62.5308 110.83C61.4206 110.915 60.3053 110.892 59.09 111.079C59.9902 111.85 60.6854 112.643 61.2205 113.595ZM105.287 5.2448C105.242 5.23347 105.202 5.22214 105.157 5.21081C105.032 5.57343 104.902 5.93039 104.787 6.29868C104.532 7.11458 104.301 7.94181 104.021 8.74638C103.746 9.52828 103.576 9.59626 102.881 9.31863C102.941 9.81157 103.021 10.2932 103.051 10.7691C103.081 11.2734 103.056 11.7777 103.056 12.3839C105.257 10.0835 107.782 8.2931 109.958 5.96439C109.888 5.94739 109.848 5.91907 109.828 5.9304C108.753 6.56498 107.657 7.17124 106.857 8.26477C106.637 8.5594 106.547 8.58773 106.262 8.37243C105.722 7.96448 105.302 7.43754 105.282 6.64997C105.277 6.17969 105.287 5.70941 105.287 5.2448ZM100.07 33.2233C99.7803 32.4754 99.5303 31.8238 99.2752 31.1779C99.2302 31.1892 99.1902 31.1949 99.1452 31.2062C99.1252 31.9428 99.1552 32.6794 99.1652 33.4783C99.4902 33.3876 99.7403 33.3196 100.07 33.2233Z" fill="#AD533D"/>
    <path d="M59.685 85.5824C59.505 85.6901 59.4249 85.7637 59.3349 85.7921C58.2446 86.1434 57.1444 86.4607 56.0041 86.4323C55.0138 86.404 54.0636 86.1037 53.1334 85.7468C51.0179 84.9422 48.9423 84.0073 46.9418 82.8798C45.7065 82.1829 44.4612 81.4973 43.2259 80.8004C42.9609 80.6474 42.7108 80.4548 42.4657 80.2564C42.1807 80.0241 42.1407 79.8372 42.2757 79.4802C42.3907 79.1799 42.5457 79.0779 42.8858 79.1742C43.9211 79.4632 44.9613 79.7352 45.9766 80.0865C48.4622 80.942 50.9278 81.8656 53.4135 82.7155C54.2537 83.0044 55.1239 83.2141 55.9891 83.3954C57.1844 83.639 58.2096 84.2849 59.2099 85.0045C59.3749 85.1235 59.4899 85.3445 59.685 85.5824Z" fill="#AD533D"/>
    <path d="M46.9818 75.8368C46.9518 75.6158 47.0619 75.4685 47.2419 75.3608C47.612 75.1455 47.9721 74.9075 48.3522 74.7149C50.3627 73.6894 52.4682 73.0094 54.6188 72.4825C56.7643 71.9556 58.9198 71.542 61.1054 71.2983C61.8856 71.2133 62.6258 71.3833 63.361 71.6666C63.471 71.7063 63.581 71.7629 63.6761 71.8366C63.9361 72.0292 63.9611 72.2332 63.7211 72.4712C63.0759 73.1228 62.3507 73.5817 61.4655 73.678C59.65 73.8763 57.8346 74.0746 56.0191 74.3239C53.2784 74.6922 50.5727 75.3155 47.9221 76.1937C47.777 76.239 47.637 76.29 47.487 76.324C47.1269 76.3977 46.9918 76.273 46.9818 75.8368Z" fill="#AD533D"/>
    <path d="M30.3376 150.509C30.0825 150.452 29.8675 150.424 29.6674 150.35C28.8122 150.021 28.6072 148.758 29.3024 148.089C29.6124 147.795 29.9675 147.602 30.3876 147.579C31.2829 147.54 32.1831 147.517 33.0783 147.426C34.4587 147.296 35.814 146.979 37.0844 146.327C37.4144 146.157 37.7245 145.925 38.0346 145.71C38.2697 145.545 38.4597 145.54 38.6648 145.732C38.8948 145.942 38.7898 146.157 38.6848 146.384C38.4397 146.899 38.0446 147.251 37.6545 147.596C36.2491 148.837 34.6487 149.608 32.9183 150.021C32.0531 150.22 31.1778 150.35 30.3376 150.509Z" fill="#AD533D"/>
    <path d="M39.7801 94.8237C39.9851 94.8747 40.2052 94.8861 40.3852 94.988C41.1454 95.4187 41.9656 95.5433 42.7959 95.6453C44.0062 95.787 45.2215 95.9003 46.4318 95.7473C47.487 95.6113 48.4773 95.9116 49.4825 96.1382C49.6076 96.1666 49.7226 96.2459 49.9077 96.3366C49.8126 96.5179 49.7576 96.6992 49.6476 96.8125C48.8624 97.6284 47.9872 98.2743 46.9069 98.433C46.2267 98.5349 45.5415 98.4216 44.8814 98.2347C43.8161 97.9344 42.7658 97.5887 41.7156 97.2204C41.0904 96.9995 40.5403 96.6029 40.0652 96.0872C39.7501 95.753 39.555 95.3903 39.7801 94.8237Z" fill="#AD533D"/>
    <path d="M41.0904 85.2708C41.4055 85.1405 41.6705 85.3332 41.9356 85.4691C42.4207 85.7128 42.8909 85.9961 43.381 86.234C44.6813 86.8743 46.0417 87.1746 47.452 87.1406C48.4273 87.1179 49.3725 87.2539 50.2928 87.6222C50.5128 87.7072 50.7229 87.8148 50.9279 87.9395C51.303 88.1605 51.323 88.3814 51.003 88.7044C50.8579 88.8517 50.6879 88.982 50.5078 89.0784C49.6426 89.5373 48.7574 89.8093 47.7671 89.6676C46.2967 89.4636 44.9014 89.0444 43.586 88.2795C42.7358 87.7865 41.9606 87.1746 41.3004 86.3927C40.9654 86.0074 40.9354 85.8374 41.0904 85.2708Z" fill="#AD533D"/>
    <path d="M65.0813 92.4383C64.8612 92.6536 64.7212 92.8405 64.5462 92.9595C63.771 93.5091 62.9108 93.8491 62.0105 93.8887C61.4054 93.9114 60.7902 93.7358 60.1901 93.5998C58.9297 93.3165 57.6944 92.9539 56.5141 92.3703C55.6689 91.951 54.9237 91.3561 54.1985 90.7101C53.9535 90.4948 53.8785 90.2512 54.0435 89.8716C54.3136 89.9679 54.5886 90.0302 54.8437 90.1549C56.3891 90.9198 58.0095 91.2881 59.6849 91.3787C60.3301 91.4127 60.9803 91.4581 61.6254 91.4864C62.6807 91.5317 63.6959 91.832 64.7012 92.172C64.8012 92.206 64.8913 92.3023 65.0813 92.4383Z" fill="#AD533D"/>
    <path d="M49.4725 100.903C49.3075 101.073 49.1725 101.26 49.0024 101.39C47.8771 102.24 46.6668 102.79 45.2965 102.92C44.2862 103.017 43.306 102.977 42.3357 102.66C41.4505 102.371 40.6303 101.912 39.9101 101.243C39.53 100.892 39.5 100.722 39.67 100.099C39.8851 100.172 40.1051 100.229 40.3102 100.325C41.2804 100.767 42.2857 101.034 43.326 100.96C44.0862 100.903 44.8414 100.75 45.5915 100.586C46.6518 100.354 47.7071 100.342 48.7674 100.541C49.0024 100.58 49.2575 100.614 49.4725 100.903Z" fill="#AD533D"/>
    <path d="M63.506 100.484C63.286 100.784 63.161 101.005 62.9909 101.169C61.8306 102.297 60.5203 102.807 58.9698 102.461C57.3444 102.099 55.884 101.43 54.7437 100.002C54.5087 99.7075 54.4287 99.3959 54.4587 99.022C54.4737 98.8066 54.5837 98.716 54.7637 98.7557C54.8938 98.784 55.0188 98.835 55.1438 98.8916C55.4189 99.0276 55.694 99.1693 55.9591 99.3223C56.6042 99.7019 57.2844 99.9172 58.0096 99.9682C58.4597 99.9965 58.9048 100.076 59.35 100.053C60.4552 100.002 61.5405 100.166 62.6258 100.353C62.8709 100.399 63.1159 100.427 63.506 100.484Z" fill="#AD533D"/>
    <path d="M55.784 93.7412C56.039 93.8545 56.2841 93.9282 56.4991 94.0585C58.1746 95.0784 59.9601 95.3107 61.8205 95.0274C62.0456 94.9934 62.2857 95.0331 62.5107 95.0897C63.0258 95.22 63.551 95.3504 64.0511 95.543C64.5012 95.7186 64.5262 95.9566 64.1711 96.3022C63.1659 97.2938 62.0406 97.7527 60.6802 97.5091C59.0648 97.2201 57.5944 96.6082 56.3541 95.3787C56.1791 95.203 56.004 95.0274 55.854 94.8291C55.5989 94.5005 55.5789 94.1888 55.784 93.7412Z" fill="#AD533D"/>
    <path d="M50.648 91.9115C50.5679 92.0645 50.5379 92.1834 50.4679 92.2514C49.6177 93.0617 48.6624 93.6792 47.5321 93.5659C45.5866 93.3676 43.6861 92.92 41.9607 91.8095C41.5906 91.5715 41.2455 91.2655 40.9204 90.9426C40.6403 90.6706 40.6503 90.5856 40.7303 90.019C40.8504 90.053 40.9854 90.0587 41.0854 90.121C42.3258 90.9143 43.6711 91.2712 45.0815 91.3732C45.6116 91.4129 46.1418 91.4922 46.6719 91.4752C47.6071 91.4412 48.5274 91.5942 49.4476 91.7358C49.7077 91.7755 49.9778 91.7925 50.2378 91.8265C50.3629 91.8491 50.4829 91.8775 50.648 91.9115Z" fill="#AD533D"/>
    <path d="M48.4323 104.382C48.4022 104.768 48.1972 104.949 48.0121 105.119C46.8368 106.224 45.4665 106.62 43.9661 106.484C43.0059 106.394 42.0406 106.263 41.1754 105.742C40.6803 105.448 40.2202 105.068 39.7601 104.7C39.495 104.484 39.44 104.156 39.565 103.725C39.7851 103.793 39.9951 103.833 40.1852 103.923C41.6956 104.649 43.2659 104.66 44.8363 104.343C45.8716 104.133 46.8869 104.275 47.9071 104.32C48.0672 104.326 48.2272 104.354 48.4323 104.382Z" fill="#AD533D"/>
    <path d="M61.1254 105.283C60.9904 105.464 60.9354 105.583 60.8454 105.657C60.1952 106.212 59.475 106.603 58.6748 106.739C57.4845 106.943 56.3142 106.751 55.2039 106.252C54.7788 106.059 54.3937 105.736 54.0186 105.436C53.7635 105.232 53.6485 104.909 53.6785 104.541C53.7035 104.252 53.7735 104.19 54.0436 104.258C54.1386 104.28 54.2386 104.314 54.3236 104.365C55.1889 104.858 56.1091 104.915 57.0544 104.841C57.4695 104.807 57.8796 104.756 58.2947 104.722C59.0649 104.654 59.8201 104.801 60.5653 105.011C60.7303 105.056 60.8904 105.17 61.1254 105.283Z" fill="#AD533D"/>
    <path d="M9.26733 138.95C9.29234 138.055 9.38736 137.177 9.75244 136.372C9.91748 136.009 10.1575 135.692 10.3726 135.358C10.5226 135.12 10.7277 135.097 10.9477 135.227C11.2078 135.38 11.0928 135.613 11.0178 135.811C10.6727 136.769 10.6477 137.749 10.8527 138.746C10.8977 138.961 10.9777 139.177 11.0578 139.381C11.3178 140.055 11.1878 140.678 10.8527 141.256C10.5426 141.783 10.0025 141.772 9.71244 141.228C9.5624 140.944 9.45238 140.61 9.39736 140.287C9.31234 139.851 9.30234 139.398 9.26733 138.95Z" fill="#AD533D"/>
    <path d="M35.9391 159.875C35.7891 160.147 35.5841 160.226 35.369 160.232C35.0039 160.237 34.6388 160.237 34.2737 160.198C33.4235 160.107 32.8784 159.478 32.3983 158.764C32.1832 158.441 32.2382 158.039 32.2982 157.676C32.3132 157.58 32.4833 157.506 32.5983 157.455C32.6483 157.433 32.7233 157.484 32.7884 157.506C33.8836 157.886 34.8739 158.475 35.6641 159.438C35.7691 159.569 35.8491 159.733 35.9391 159.875Z" fill="#AD533D"/>
    <path d="M78.4499 76.6361C78.1298 76.9704 77.7997 76.9761 77.4997 77.0214C75.8492 77.2821 74.2938 76.8854 72.8135 76.0525C72.7334 76.0072 72.6884 75.8712 72.6284 75.7749C72.7234 75.7409 72.8285 75.6559 72.9185 75.6786C73.5587 75.8032 74.1888 75.9789 74.829 76.0809C75.8792 76.2509 76.9345 76.3812 77.9898 76.5285C78.1148 76.5512 78.2398 76.5908 78.4499 76.6361Z" fill="#AD533D"/>
    <path d="M77.4197 79.163C76.9146 79.5936 76.3994 79.5993 75.9193 79.6219C74.7491 79.6786 73.6438 79.3556 72.6135 78.721C72.2885 78.5227 72.2735 78.4321 72.4285 77.9731C74.0339 78.4491 75.6243 79.078 77.4197 79.163Z" fill="#AD533D"/>
    <path d="M63.0459 75.9957C62.8909 76.0467 62.7408 76.1147 62.5858 76.1543C61.5355 76.4263 60.4753 76.3753 59.415 76.211C59.0199 76.1487 58.6248 76.0977 58.2297 76.0297C58.1197 76.0127 57.9996 75.9673 57.9046 75.8994C57.8496 75.8597 57.8096 75.7294 57.8246 75.6614C57.8396 75.5934 57.9246 75.5084 57.9896 75.4914C58.1197 75.4631 58.2547 75.4744 58.3897 75.4744C59.1899 75.4857 59.9901 75.4687 60.7853 75.5197C61.4655 75.5651 62.1357 75.6784 62.8158 75.769C62.8909 75.7804 62.9659 75.8257 63.0359 75.8597C63.0459 75.905 63.0459 75.9504 63.0459 75.9957Z" fill="#AD533D"/>
    <path d="M13.8985 138.599C13.6885 138.4 13.6584 138.123 13.6584 137.839C13.6584 136.961 13.9035 136.174 14.3686 135.477C14.6437 135.069 14.8238 135.046 15.2389 135.301C14.8388 135.941 14.7638 136.672 14.7638 137.432C14.7688 137.953 14.3937 138.434 13.8985 138.599Z" fill="#AD533D"/>
    <path d="M39.9601 108.586C41.5305 108.462 42.9908 108.887 44.5062 108.649C43.651 109.691 40.7303 109.691 39.9601 108.586Z" fill="#AD533D"/>
    <path d="M61.8957 77.9052C60.4703 78.2225 59.1049 78.3528 57.6445 78.0355C57.7546 77.9165 57.8046 77.8316 57.8746 77.7862C57.9296 77.7522 58.0046 77.7466 58.0697 77.7466C59.3 77.7579 60.5353 77.7692 61.7657 77.7806C61.7907 77.7862 61.8107 77.8259 61.8957 77.9052Z" fill="#AD533D"/>
    <path d="M51.6382 76.3299C51.5732 76.0806 51.6932 75.9673 51.8832 75.956C52.3934 75.9276 52.9035 75.888 53.4086 75.905C53.9988 75.9276 54.594 76.0013 55.2241 76.0523C54.804 76.3696 52.6034 76.5169 51.6382 76.3299Z" fill="#AD533D"/>
    <path d="M75.9493 81.503C75.7642 81.5597 75.5792 81.639 75.3891 81.673C74.5139 81.809 73.6337 81.8316 72.7534 81.6843C72.6084 81.6617 72.4534 81.622 72.3233 81.5427C72.2233 81.4804 72.1633 81.35 72.1083 81.1914C73.3986 81.3217 74.6639 81.486 75.9493 81.503Z" fill="#AD533D"/>
    <path d="M85.9268 134.712C85.7467 134.95 85.6017 135.177 85.4266 135.358C84.5314 136.281 83.5061 136.973 82.4159 137.556C81.5707 138.01 80.6554 138.117 79.7452 138.146C78.0998 138.196 76.4493 138.264 74.8039 138.213C72.5784 138.145 70.3578 137.925 68.1822 137.347C67.4271 137.148 66.7369 136.786 66.1017 136.281C65.7416 135.998 65.6316 135.624 65.6966 135.154C65.7266 134.956 65.8216 134.848 66.0017 134.865C66.1317 134.876 66.2668 134.888 66.3968 134.922C67.5571 135.256 68.7324 135.245 69.9127 135.148C70.3278 135.114 70.7429 135.131 71.158 135.092C73.2085 134.882 75.259 134.684 77.3046 134.446C78.5899 134.293 79.8702 134.043 81.1605 133.907C81.7657 133.845 82.3909 133.907 82.996 134.004C83.8812 134.145 84.7615 134.372 85.6417 134.565C85.7167 134.576 85.7867 134.633 85.9268 134.712Z" fill="#AD533D"/>
</svg>