<svg width="112" height="172" viewBox="0 0 112 172" fill="none" xmlns="http://www.w3.org/2000/svg">
    <path d="M47.0735 119.424C47.7573 119.807 47.8257 119.984 47.6604 120.659C47.3527 121.874 46.572 122.736 45.2842 123.25C43.529 123.951 41.7226 124.142 39.8478 123.729C39.4033 123.628 39.05 123.437 38.7194 123.114C37.5569 121.965 36.9757 120.528 36.1152 119.233C35.9842 119.031 35.8702 118.819 35.7163 118.552C35.4599 119.016 35.1009 118.935 34.6963 118.789C34.4512 118.703 34.229 118.517 33.8985 118.643C33.3571 118.849 32.793 119.006 32.3827 119.409C32.3029 119.485 32.3029 119.621 32.2516 119.727C32.2003 119.832 32.1547 119.999 32.0693 120.024C31.6761 120.135 31.659 120.442 31.5849 120.704C31.015 122.686 30.4851 124.677 30.2856 126.723C30.1432 128.155 30.0349 129.592 29.9494 131.033C29.8867 132.072 29.8354 133.115 29.881 134.149C29.9494 135.6 30.0862 137.057 30.24 138.504C30.3825 139.82 30.5819 141.13 30.7643 142.441C30.8555 143.106 30.9808 143.762 31.0891 144.422C32.1775 144.75 33.2261 145.057 33.9156 145.919C34.0523 145.884 34.1777 145.854 34.2974 145.813C34.9755 145.602 35.6593 145.39 36.3318 145.168C36.9358 144.971 37.5171 144.719 38.1325 144.558C38.8391 144.372 39.5628 144.22 40.2865 144.125C42.3494 143.857 44.418 143.641 46.4809 143.389C48.8458 143.101 51.1879 142.688 53.4958 142.138C57.4676 141.196 61.4794 140.384 65.5539 139.86C67.3546 139.628 69.1553 139.401 70.9732 139.356C72.3579 139.321 73.7426 139.235 75.1217 139.305C77.9709 139.442 80.7575 139.941 83.4358 140.833C83.6296 140.898 83.8233 140.949 84.0627 141.024C83.9373 139.255 84.6781 137.662 84.9631 136.004C85.2993 134.033 85.6469 132.067 85.9603 130.091C86.1939 128.624 86.2053 127.147 86.1426 125.67C86.0629 123.865 85.6412 122.111 84.7351 120.478C84.5869 120.205 84.3932 119.953 84.1995 119.706C83.6353 118.97 83.0825 118.224 82.4842 117.509C82.1594 117.12 81.7491 116.793 81.3844 116.435C81.2476 116.299 81.1165 116.158 80.9456 115.991C80.8886 116.097 80.8202 116.188 80.7803 116.284C80.0224 118.199 79.2759 120.12 78.5009 122.03C78.2388 122.675 77.914 123.301 77.5948 123.931C77.4182 124.284 77.1504 124.556 76.6546 124.556C76.552 124.556 76.421 124.601 76.3526 124.667C76.005 124.994 75.5776 124.984 75.1388 124.899C73.7825 124.626 72.5687 124.107 71.5145 123.295C71.0074 122.902 70.5743 122.464 70.2551 121.945C70.1184 121.723 69.9075 121.481 70.3007 121.259C70.3691 121.219 70.3634 121.037 70.352 120.926C70.2836 120.347 70.4432 119.792 70.6312 119.248C71.7254 116.016 72.8081 112.785 73.9079 109.559C75.3838 105.239 76.8825 100.929 78.3414 96.6039C79.6349 92.7778 80.6835 88.8963 81.6978 85.0098C81.7092 84.9644 81.6978 84.914 81.6978 84.798C81.6009 84.9039 81.5325 84.9644 81.4812 85.035C80.5695 86.4414 79.3842 87.6613 78.1476 88.8509C76.495 90.4439 74.8482 92.0469 73.2013 93.6448C72.9221 93.9171 72.6542 94.1993 72.375 94.4766C71.3892 95.4747 70.8706 96.6795 70.409 97.9095C70.3292 98.1312 70.2266 98.3531 70.0842 98.5446C69.8904 98.8118 69.7195 98.8269 69.3662 98.7462C68.8704 98.6303 68.4943 98.3984 68.1581 98.0455C67.554 97.4104 67.1153 96.6895 66.6708 95.9637C66.6081 95.8628 66.5397 95.762 66.4827 95.6713C66.42 95.6612 66.3744 95.641 66.3517 95.6562C65.5368 96.125 65.2005 96.009 64.454 95.2831C63.7873 94.6329 63.3656 93.8263 63.0294 93.0046C62.2316 91.0236 61.6675 88.9971 61.4053 86.9001C61.2515 85.6298 61.2287 84.3645 61.5136 83.0438C61.3141 83.1749 61.166 83.2757 61.0121 83.3715C60.0833 83.9814 59.1088 84.5359 58.0375 84.9341C57.9349 84.9745 57.838 85.035 57.7469 85.0904C56.2026 85.9574 54.5101 86.3607 52.6923 86.4565C50.8231 86.5573 49.1478 86.0129 47.4895 85.3727C45.1531 84.4704 43.1187 83.1497 41.1926 81.6979C38.9645 80.0243 37.0498 78.1037 35.4884 75.9159C35.0724 75.3362 34.7077 74.7263 34.3145 74.1314C34.2689 74.0609 34.2176 73.9903 34.1378 73.8844C34.041 73.9953 33.9612 74.076 33.8871 74.1617C33.8073 74.2575 33.756 74.4037 33.6535 74.4389C33.2204 74.5851 33.0779 74.9481 32.8329 75.2354C31.7729 76.4553 30.4452 77.3828 28.8895 78.0583C27.67 78.5876 26.3821 78.9304 25.0316 79.0363C24.6783 79.0665 24.3136 79.0161 23.9603 78.9607C23.6183 78.9102 23.4075 78.6784 23.2479 78.4213C23.1568 78.2751 23.0998 78.1138 23.0314 77.9575C22.8775 77.6298 22.9573 77.3576 23.2422 77.0955C23.8463 76.536 24.3364 75.9008 24.7296 75.0842C24.4617 75.1749 24.2794 75.2304 24.097 75.3009C22.8205 75.7899 21.5156 76.1932 20.1479 76.4049C19.1393 76.5612 18.1136 76.657 17.0992 76.4553C16.6775 76.3696 16.2672 76.41 15.8683 76.4906C15.3783 76.5864 14.968 76.5208 14.6317 76.1932C14.1018 76.4099 13.5889 76.6267 13.0875 76.8334C12.7227 76.5057 12.6999 76.4251 12.9564 76.0924C13.5205 75.3514 14.1987 74.696 14.9395 74.0911C18.7575 70.9658 21.1794 67.1699 22.0057 62.6029C22.1937 61.5544 22.2735 60.5059 22.245 59.4473C22.2393 59.3112 22.2507 59.1801 22.245 59.044C22.2393 58.8676 22.3248 58.7617 22.5299 58.7315C22.7579 58.7012 22.9117 58.7819 22.9573 58.9734C23.02 59.2356 23.0713 59.5027 23.0884 59.7648C23.2422 62.0333 22.9345 64.2513 22.1367 66.4088C21.111 69.1813 19.5553 71.7017 17.4468 73.95C17.4126 73.9853 17.3898 74.0357 17.3101 74.1617C17.5266 74.1012 17.6805 74.076 17.8172 74.0205C20.4158 73.0729 22.7978 71.7925 24.9917 70.25C26.12 69.4585 27.1685 68.5814 28.2455 67.7345C28.4621 67.5631 28.6387 67.3464 28.918 67.0691C28.5134 67.1649 28.2455 67.2304 27.972 67.296C27.2882 67.4573 26.6557 67.3363 26.0687 67.0087C24.211 65.9652 23.02 63.6464 23.8007 61.6048C23.9431 61.2368 24.0913 60.8789 24.2281 60.5109C24.5244 59.7396 24.3819 59.0137 23.8463 58.3635C23.4645 57.9047 23.0485 57.4662 22.6325 57.0327C21.8404 56.206 21.1623 55.3188 20.8318 54.2602C20.6038 53.5343 20.6608 52.8235 21.1737 52.1934C21.3617 51.9666 21.3446 51.7851 21.2193 51.5532C20.3189 49.8897 19.9485 48.1254 19.9656 46.2854C19.9884 43.6642 20.3987 41.1084 21.4301 38.6434C22.9231 35.0946 25.6128 32.5036 29.4194 30.7897C31.3797 29.9075 33.4369 29.2925 35.5967 28.9548C36.1551 28.8691 36.725 28.8489 37.2891 28.8187C37.6082 28.7985 37.9274 28.8136 38.2978 28.8136C38.5884 27.387 38.8733 25.9907 39.1639 24.5389C39.0044 24.5793 38.8847 24.5944 38.7764 24.6347C37.3005 25.2094 35.9614 25.0481 34.6621 24.181C32.981 23.0569 31.8869 21.5749 31.1233 19.8811C30.6161 18.762 30.6446 17.6178 31.2145 16.5037C32.1263 14.7092 33.4426 13.2322 35.4599 12.3198C36.2634 11.9568 37.1353 11.7955 38.0185 11.6695C38.2807 11.6291 38.5371 11.5888 38.8448 11.5434C38.8049 11.2864 38.7821 11.0444 38.7252 10.8075C38.5143 9.85979 38.765 8.97763 39.1924 8.12068C39.8364 6.83524 40.8621 5.80689 42.0246 4.87433C43.4435 3.73508 45.1018 3.00414 46.9481 2.5555C48.7375 2.12198 50.5382 1.85986 52.3959 1.99596C54.3619 2.13711 56.1627 2.72186 57.8152 3.66955C57.895 3.71492 57.9748 3.76029 58.0546 3.80565C58.0717 3.81574 58.0888 3.81069 58.18 3.82078C58.2996 3.73004 58.4478 3.60401 58.6073 3.49311C61.0634 1.77416 63.8044 0.624832 66.9044 0.145945C68.4487 -0.0909781 69.9645 -0.0657769 71.4404 0.418151C73.6515 1.139 75.3838 2.34378 76.2842 4.33494C76.307 4.38031 76.3469 4.42064 76.3982 4.49121C76.5919 4.39039 76.7857 4.28957 76.9794 4.18875C78.6605 3.32172 80.4669 2.77226 82.4101 2.69161C84.1425 2.62104 85.6412 3.15538 86.8664 4.26438C87.7667 5.08101 88.0631 6.09422 87.9149 7.1881C87.7268 8.53907 87.1855 9.79426 86.2053 10.8629C85.9261 11.1704 85.55 11.4174 85.2024 11.7048C85.2366 11.7249 85.2765 11.7703 85.3164 11.7703C86.2395 11.7753 86.8949 12.1988 87.402 12.8289C88.0517 13.6304 88.2568 14.5478 88.12 15.5056C87.8408 17.4716 86.8265 19.1401 85.3563 20.5969C84.6895 21.2623 83.8632 21.7463 82.8546 21.9076C82.5697 21.9529 82.4329 22.079 82.3246 22.2957C82.091 22.7544 81.8175 23.188 81.4072 23.556C80.8031 24.0953 80.0851 24.3827 79.2303 24.423C79.1221 24.428 79.0138 24.4432 78.8656 24.4583C78.9283 25.532 78.9853 26.5755 79.048 27.6693C79.2189 27.6693 79.3614 27.6744 79.5039 27.6693C81.316 27.624 83.1053 27.7046 84.8548 28.1835C87.1684 28.8136 89.2825 29.7664 91.032 31.2837C92.9296 32.932 94.1149 34.9232 94.6791 37.2118C95.0609 38.7644 95.0723 40.3321 94.9412 41.9099C94.8044 43.5734 94.3656 45.1865 93.961 46.8047C93.8129 47.4045 93.5451 47.9842 93.3114 48.6194C93.4653 48.7 93.6533 48.7958 93.8414 48.8966C93.8186 49.1537 93.6248 49.2898 93.414 49.4058C93.2487 49.5015 93.1917 49.6124 93.2316 49.7889C93.3855 50.4694 93.2031 51.1247 92.9581 51.7599C92.5934 52.7025 92.052 53.5696 91.3853 54.3711C91.2371 54.5475 91.0947 54.7239 90.918 54.9356C91.0149 54.9508 91.0776 54.9659 91.1346 54.9608C91.5734 54.9457 91.6816 55.0365 91.4936 55.3793C91.0035 56.2665 90.9408 57.2192 90.8952 58.1719C90.8041 60.1127 91.0434 62.0232 91.7101 63.8833C92.4965 66.0761 93.887 67.8757 95.9897 69.267C97.5682 70.3104 99.0783 71.4346 100.611 72.5385C100.873 72.725 101.204 72.9216 101.09 73.3703C100.805 73.3451 100.526 73.3501 100.258 73.2896C98.0925 72.8309 96.0638 72.1302 94.3542 70.8095C93.0322 69.7862 92.0406 68.5562 91.2371 67.1851C90.1715 65.3653 89.67 63.4296 89.5333 61.3931C89.4307 59.8707 89.5675 58.3836 89.9037 56.9016C89.9949 56.4933 90.1658 56.1001 90.3026 55.7019C90.2798 55.6968 90.2342 55.6767 90.2285 55.6817C89.2825 56.5034 88.3423 57.3351 87.3963 58.1518C87.0088 58.4895 86.7296 58.8726 86.57 59.3364C86.2053 60.4151 85.6754 61.4334 85.0713 62.4264C84.8206 62.8348 84.7465 63.354 84.6838 63.8278C84.5642 64.71 84.4559 65.5921 84.4445 66.4793C84.4274 67.8555 84.7408 69.1762 85.4531 70.4113C85.8862 71.1573 86.2623 71.9336 86.9405 72.5436C87.043 72.6343 87.1513 72.725 87.3166 72.8611C87.4248 72.347 87.5331 71.9286 87.0658 71.5303C86.7581 71.2682 86.5644 70.9053 86.3364 70.5726C86.2395 70.4314 86.1768 70.2651 86.137 70.1038C86.0971 69.9525 86.1142 69.766 86.3364 69.7509C86.4846 69.7408 86.7125 69.7963 86.7752 69.892C87.8465 71.4446 89.5504 72.2159 91.3796 72.8208C92.8783 73.3199 94.4511 73.5417 96.0353 73.7181C97.0326 73.829 98.0241 73.9449 99.0213 74.0357C99.3689 74.0659 99.728 74.0206 100.127 74.0105C100.218 74.197 100.076 74.3633 99.9046 74.4843C99.6995 74.6255 99.4658 74.7565 99.2208 74.8372C97.4144 75.4371 95.5908 75.5984 93.7103 75.0791C91.8127 74.5549 90.012 73.8593 88.4449 72.7553C88.3879 72.715 88.3195 72.6847 88.1656 72.599C88.2568 73.1485 88.3651 73.6122 88.7241 73.9853C88.8836 74.1466 88.9406 74.3129 88.9976 74.5146C89.066 74.7817 89.2028 75.064 89.3965 75.2808C89.7954 75.7244 89.9208 76.1881 89.7612 76.7326C89.7042 76.9191 89.6928 77.1207 89.6586 77.3123C87.1399 77.0703 85.0485 76.0924 83.1167 74.696C83.054 75.3312 83.0484 75.9311 82.9173 76.5108C82.7805 77.0955 82.5469 77.6651 82.0796 78.1138C81.7491 78.0936 81.6864 77.8769 81.5952 77.7004C81.1849 76.914 81.1109 76.0823 81.2761 75.2405C81.4927 74.1214 81.4927 73.0073 81.2932 71.8883C81.2533 71.6715 81.2134 71.4547 81.2248 71.238C81.2704 70.5877 80.8202 70.1491 80.4042 69.7005C80.2048 69.4837 79.9426 69.4636 79.6292 69.5392C78.632 69.7862 77.7202 70.1895 76.8768 70.7087C76.1645 71.1523 75.4579 71.611 74.7684 72.0798C74.1187 72.5234 73.5831 73.0678 73.2298 73.7332C72.677 74.7868 72.0502 75.8 71.2581 76.7326C70.7908 77.282 70.4147 77.8869 69.9531 78.4414C68.6767 79.989 67.1039 81.2694 65.3202 82.3431C64.6478 82.7514 63.9925 83.1849 63.3086 83.5832C62.9553 83.7898 62.8357 84.0318 62.8243 84.4149C62.7616 86.4767 63.2801 88.4477 63.9469 90.3934C64.2432 91.2554 64.6307 92.0973 65.0011 92.9441C65.1037 93.176 65.2746 93.3827 65.4456 93.6448C65.5881 93.5339 65.7191 93.4684 65.8046 93.3676C66.5625 92.5056 67.3033 91.6335 68.0669 90.7816C68.8818 89.8742 69.7081 88.9769 70.5458 88.0897C71.3664 87.2277 72.4605 86.6732 73.5603 86.1389C74.4094 85.7306 75.2642 85.3223 76.0733 84.8585C77.1048 84.2687 77.9311 83.4773 78.6605 82.6103C79.1278 82.0507 79.4526 81.4257 79.6235 80.7451C79.6634 80.5838 79.6919 80.4124 79.766 80.2612C79.8515 80.0797 79.9597 79.8932 80.1022 79.742C80.6151 79.1976 81.1109 79.2379 81.5098 79.8327C81.7548 79.8428 82.0226 79.7974 82.2221 79.8781C82.4101 79.9537 82.5355 80.1654 82.6836 80.3167C82.7007 80.2864 82.7463 80.2158 82.7976 80.1503C82.9344 79.9739 83.1338 79.9335 83.3504 79.994C83.5498 80.0495 83.5783 80.2007 83.5783 80.357C83.5669 81.0425 83.6182 81.7382 83.5327 82.4137C82.6324 89.3853 80.6607 96.1451 78.4667 102.87C77.3555 106.267 76.3469 109.695 75.2926 113.108C75.2186 113.345 75.1502 113.582 75.116 113.844C75.3952 113.289 75.9765 113.224 76.5292 113.093C77.1162 112.952 77.6575 112.992 78.1875 113.259C78.3983 113.365 78.4439 113.526 78.461 113.723C78.5066 114.282 78.2445 114.766 78.0165 115.26C77.9197 115.477 77.8 115.694 77.6461 115.88C77.2529 116.344 76.7458 116.389 76.2443 116.037C75.5491 115.553 75.2528 114.877 75.0077 114.076C74.9222 114.303 74.8596 114.464 74.8083 114.63C74.2099 116.415 73.6344 118.204 73.0075 119.984C72.7397 120.75 72.375 121.486 72.0274 122.292C72.3522 122.368 72.7055 122.504 73.0702 122.534C73.7825 122.585 74.5063 122.59 75.2243 122.595C75.4864 122.595 75.663 122.484 75.7599 122.237C77.5607 117.66 79.4013 113.093 81.1564 108.5C82.0682 106.116 82.7007 103.661 83.3219 101.206C84.0798 98.227 85.0656 95.3033 86.0287 92.3695C86.9234 89.6474 87.7667 86.9152 88.6329 84.1881C88.7298 83.8806 88.8267 83.5781 88.9178 83.2706C87.8579 82.7413 86.8265 82.212 85.7722 81.718C85.5386 81.6071 85.2309 81.592 84.9574 81.5718C84.7864 81.5618 84.6269 81.5416 84.6098 81.3904C84.5984 81.2795 84.6667 81.1182 84.7579 81.0577C85.0941 80.851 85.4759 80.7401 85.8862 80.8359C86.3421 80.9417 86.8094 81.0375 87.2482 81.1938C89.5276 82.0154 91.921 82.454 94.3371 82.8018C95.927 83.0287 97.5226 83.2101 99.1353 83.2303C100.383 83.2454 101.637 83.2858 102.885 83.311C102.976 83.311 103.079 83.3009 103.164 83.3261C103.592 83.4471 104.013 83.5832 104.446 83.6991C105.985 84.1125 107.318 84.8182 108.447 85.8314C108.498 85.8768 108.538 85.9373 108.555 85.9978C108.692 86.4414 108.333 87.2227 107.808 87.5252C107.552 87.3185 107.267 87.1017 106.999 86.8749C106.053 86.0683 104.936 85.5794 103.637 85.4281C103.512 85.413 103.324 85.4836 103.25 85.5693C103.01 85.8365 102.691 85.8415 102.372 85.8163C101.409 85.7457 100.446 85.6701 99.4886 85.5794C96.9015 85.3324 94.3656 84.8535 91.8754 84.178C91.4936 84.0772 91.1175 83.9663 90.7357 83.8655C90.7015 83.8554 90.6616 83.8705 90.5419 83.8806C90.5419 84.3393 90.5476 84.8031 90.5419 85.2668C90.5134 87.0312 90.1145 88.7602 89.8353 90.4993C89.6017 91.941 89.4193 93.3928 89.0945 94.8194C88.5474 97.2188 87.989 99.6183 87.2881 101.983C86.1256 105.909 84.8548 109.806 83.6068 113.713C83.3675 114.454 83.0313 115.165 82.7178 115.936C83.3048 116.379 83.9316 116.858 84.5926 117.362C84.6439 117.282 84.718 117.221 84.7294 117.156C84.8434 116.445 85.1796 115.805 85.5272 115.17C87.7211 111.147 90.1487 107.23 92.639 103.349C92.9011 102.94 93.2145 102.557 93.5336 102.184C94.0294 101.609 94.7189 101.514 95.4313 101.902C95.5566 102.325 95.4085 102.729 95.2318 103.117C94.3485 105.042 93.5052 106.988 92.5478 108.889C91.1004 111.777 89.3566 114.529 87.5331 117.246C87.157 117.806 86.7125 118.335 86.2908 118.895C86.3592 118.986 86.4105 119.071 86.4732 119.147C87.9377 120.815 88.764 122.726 89.1743 124.793C89.5504 126.708 89.5447 128.644 89.3737 130.564C89.1002 133.609 88.4847 136.609 87.5559 139.557C87.345 140.233 87.1399 140.919 86.9006 141.589C86.7923 141.891 86.6156 142.174 86.4561 142.456C86.3478 142.643 86.3592 142.774 86.5302 142.95C86.8664 143.298 86.7581 144.145 86.3592 144.407C86.268 144.467 86.0458 144.472 85.9546 144.417C85.7267 144.276 85.5386 144.084 85.305 143.893C85.2252 143.923 85.1226 143.958 85.02 143.999C84.5015 144.225 83.9658 144.266 83.4187 144.104C82.7349 143.903 82.0511 143.706 81.373 143.489C79.4184 142.864 77.4125 142.456 75.3325 142.35C73.3779 142.249 71.4347 142.375 69.4915 142.542C67.2064 142.738 64.9384 143.011 62.6932 143.414C59.5932 143.973 56.5046 144.603 53.4217 145.223C51.4785 145.617 49.5239 145.939 47.5408 146.101C45.5634 146.262 43.5746 146.368 41.5972 146.514C40.2524 146.615 38.9132 146.595 37.5626 146.554C36.6281 146.524 35.6821 146.7 34.6906 146.786C34.7533 146.927 34.7704 147.008 34.8217 147.068C35.8246 148.314 36.4229 149.73 36.9814 151.162C37.272 151.908 37.5627 152.654 37.8989 153.385C38.4744 154.63 38.9531 155.905 39.295 157.211C39.54 158.128 39.8478 159.02 40.2296 159.898C40.4119 160.316 40.5145 160.765 40.6171 161.208C40.7538 161.818 40.6285 162.408 40.3264 162.973C40.4803 163.058 40.6171 163.149 40.7652 163.214C41.204 163.426 41.2952 163.507 41.1755 163.895C41.0388 164.329 40.8393 164.747 40.6342 165.155C40.5088 165.402 40.2239 165.483 39.9446 165.559C38.5656 165.921 37.1865 166.305 35.8018 166.657C34.4 167.015 32.9867 167.333 31.5849 167.691C30.656 167.933 29.7272 168.18 28.8325 168.497C27.0546 169.117 25.2025 169.465 23.3163 169.657C21.9259 169.798 20.524 169.899 19.1279 169.954C16.8371 170.045 14.5862 169.737 12.3808 169.213C10.1128 168.674 7.8562 168.084 5.59958 167.499C3.59369 166.98 2.27163 165.79 1.36556 164.152C0.59056 162.756 0.197364 161.284 0.0947902 159.746C0.0207093 158.607 -0.0305803 157.463 0.0207065 156.329C0.111883 154.287 0.225856 152.251 0.52218 150.219C0.744423 148.727 0.903978 147.225 1.11482 145.728C1.34277 144.135 1.6163 142.542 1.84994 140.949C2.0095 139.855 2.15196 138.756 2.27733 137.657C2.50527 135.651 2.56225 133.639 2.50527 131.628C2.47108 130.338 2.3628 129.052 2.28872 127.762C2.23743 126.824 2.19754 125.887 2.12916 124.949C2.04938 123.83 1.94111 122.711 1.84424 121.597C1.75306 120.513 1.66189 119.424 1.56501 118.34C1.43395 116.924 1.28579 115.507 1.16612 114.086C1.09204 113.249 1.05214 112.412 1.00086 111.575C0.972362 111.056 0.926777 110.537 0.932475 110.018C0.932475 109.398 0.972359 108.778 1.00655 108.158C1.16041 105.239 1.64479 102.361 2.3799 99.5125C2.49957 99.0537 2.67053 98.6101 2.81869 98.1615C3.1549 97.1684 3.86722 96.4526 4.83027 95.878C5.69645 95.3638 6.53984 94.8194 7.35473 94.2397C8.72807 93.2617 10.2439 92.5157 11.8965 91.9813C14.1816 91.2504 16.4097 90.3884 18.5295 89.3298C18.6777 89.2542 18.8202 89.1685 18.974 89.103C19.5268 88.8661 19.8972 88.4981 20.1365 87.9889C20.9799 86.149 22.6553 85.3475 24.7751 85.1207C25.2082 85.0753 25.6413 85.035 26.0744 85.045C27.2369 85.0702 28.3823 84.9745 29.522 84.7728C29.7671 84.7275 30.0292 84.667 30.1603 84.9291C30.2457 85.0954 30.052 85.4433 29.7955 85.5491C29.3853 85.7205 28.9693 85.907 28.5362 86.0078C27.5845 86.2347 26.6215 86.4111 25.6584 86.6027C25.459 86.643 25.2595 86.6833 25.0088 86.7337C25.0829 86.9555 25.1341 87.1471 25.2025 87.3336C26.4391 90.5598 27.6871 93.7809 28.9123 97.0071C30.3027 100.662 31.6476 104.332 33.2375 107.926C34.8729 111.631 36.497 115.341 38.5713 118.875C38.9132 119.454 39.2209 120.049 39.5856 120.624C39.9161 121.143 39.9218 121.677 39.7794 122.232C39.768 122.277 39.768 122.323 39.7623 122.413C42.1158 122.408 44.002 121.662 45.3468 119.913C44.5377 118.572 43.6943 117.282 42.9649 115.936C41.3807 113.017 39.8022 110.093 38.3206 107.134C36.6851 103.868 35.1579 100.561 33.6022 97.2592C32.7474 95.4495 31.904 93.6297 31.1233 91.7948C30.5478 90.4439 30.1204 89.0526 29.8867 87.6159C29.7899 87.011 29.7785 86.4111 29.9665 85.8213C30.0463 85.5743 30.1546 85.3374 30.5421 85.3576C30.5648 85.3979 30.6161 85.4483 30.6104 85.4836C30.3654 86.391 30.6788 87.2479 30.9694 88.0948C31.5564 89.7986 32.3314 91.4419 33.1862 93.05C33.2147 93.1055 33.266 93.1458 33.3913 93.292C33.3286 92.7778 33.2659 92.3846 33.2375 91.9864C33.1862 91.2504 33.1748 90.5144 33.1178 89.7785C33.0665 89.0626 32.9867 88.3468 32.907 87.631C32.85 87.1471 32.6106 86.7489 32.2003 86.4061C31.8128 86.0835 31.4709 85.7256 31.1233 85.3677C31.015 85.2568 30.9182 85.1206 30.8612 84.9845C30.7472 84.7224 30.8213 84.5813 31.1119 84.4603C31.3683 84.3544 31.6305 84.2738 31.904 84.173C31.5051 83.5731 31.1119 83.0035 30.7415 82.4187C30.2286 81.6071 29.8639 80.7451 29.6588 79.8327C29.277 78.1289 30.713 76.6519 32.6676 76.7326C33.3514 76.7628 33.4654 76.8737 33.4654 77.5038C32.7873 77.3576 32.1661 77.4736 31.5906 77.8113C30.8156 78.265 30.5478 78.8397 30.77 79.6261C31.072 80.6998 31.6248 81.6727 32.3656 82.5548C32.9297 83.2303 33.5509 83.8655 34.1435 84.5157C34.645 85.0652 35.1579 85.6046 35.6366 86.1641C36.2121 86.8295 36.5825 87.5856 36.7478 88.4023C36.9757 89.5062 37.1467 90.6152 37.3233 91.7293C37.4829 92.7425 37.7165 93.7457 38.1325 94.7034C38.2066 94.8748 38.2978 95.0361 38.406 95.2478C38.5542 95.147 38.6796 95.0815 38.7878 94.9908C39.2323 94.6228 39.6825 94.2598 40.1042 93.8767C40.6456 93.3777 40.9134 92.7476 41.1128 92.0973C41.2496 91.6486 41.5174 91.3058 42.0189 91.1294C42.5945 90.9227 43.0332 91.1445 43.0389 91.689C43.0446 92.0368 42.9877 92.3947 42.868 92.7223C42.6742 93.2466 42.4064 93.7507 42.1614 94.2598C42.0702 94.4464 42.0018 94.5976 42.0987 94.8244C42.2583 95.2025 42.2013 95.6007 42.1329 96.009C41.8764 97.5112 40.9191 98.6253 39.6825 99.5881C39.1468 100.006 38.691 99.9863 38.0584 99.704C37.2663 99.3512 36.554 98.9227 36.0924 98.222C36.0582 98.2371 36.0297 98.2522 35.9955 98.2724C36.0354 98.3783 36.0639 98.4892 36.1152 98.59C37.3632 101.035 38.5884 103.495 39.8763 105.925C41.3579 108.722 42.8737 111.5 44.4294 114.267C45.0676 115.406 45.8369 116.49 46.5435 117.604C46.6461 117.766 46.743 117.932 46.857 118.083C47.1761 118.527 47.2786 118.95 47.0735 119.424ZM5.02972 97.7381C4.59094 97.975 4.36869 98.2825 4.22623 98.6353C4.11796 98.9025 4.02108 99.1798 3.96409 99.457C3.71905 100.727 3.48541 101.998 3.25177 103.273C2.89277 105.279 2.73321 107.306 2.75031 109.327C2.76171 110.849 2.92696 112.372 3.05803 113.889C3.1606 115.074 3.29737 116.258 3.43413 117.438C3.63928 119.253 3.86152 121.067 4.06097 122.882C4.16924 123.9 4.24332 124.919 4.3345 125.937C4.47127 127.505 4.66502 129.072 4.7277 130.645C4.78469 131.966 4.93285 133.287 4.79608 134.617C4.66501 135.918 4.66501 137.229 4.54534 138.529C4.41998 139.931 4.23763 141.327 4.04957 142.723C3.74185 145.002 3.36005 147.27 3.08652 149.549C2.84148 151.61 2.64773 153.682 2.52236 155.754C2.43688 157.175 2.40839 158.602 2.61354 160.024C2.7674 161.057 2.98965 162.075 3.49682 163.028C4.03248 164.031 4.83027 164.767 6.06685 165.085C8.45454 165.695 10.8251 166.35 13.2242 166.92C15.2073 167.388 17.2417 167.635 19.2988 167.56C20.752 167.504 22.2108 167.393 23.6525 167.247C24.7979 167.131 25.9433 166.95 27.0261 166.567C28.7926 165.942 30.6218 165.523 32.4568 165.085C34.5766 164.576 36.668 163.966 38.7707 163.401C39.1298 163.305 39.4831 163.209 39.8478 163.109C39.7509 162.872 39.6084 162.675 39.5856 162.463C39.4888 161.531 38.9018 160.82 38.1838 160.22C37.4886 159.64 37.0954 158.95 36.7877 158.184C36.3261 157.029 35.8702 155.875 35.3915 154.726C34.9584 153.687 34.4513 152.674 34.0524 151.625C33.5566 150.335 32.8614 149.16 31.8812 148.117C31.4253 147.628 30.8612 147.391 30.1318 147.573C30.0292 147.598 29.8753 147.618 29.8126 147.568C29.4992 147.331 29.1573 147.104 28.9237 146.811C28.1829 145.879 27.9264 144.795 27.7954 143.686C27.6985 142.89 27.6301 142.083 27.5503 141.287C27.4136 139.905 27.2426 138.519 27.1514 137.133C27.083 135.999 27.1058 134.854 27.1001 133.715C27.0944 132.188 27.2711 130.67 27.4307 129.153C27.7099 126.527 28.2569 123.946 29.1003 121.41C29.1516 121.259 29.1687 121.077 29.1288 120.921C28.6273 118.91 27.8182 116.994 26.65 115.21C25.5957 113.597 24.4731 112.019 23.3904 110.426C22.0854 108.505 20.5981 106.706 18.8487 105.088C18.6264 104.881 18.4213 104.659 18.2446 104.422C17.9597 104.039 18.0395 103.782 18.484 103.56C18.7176 103.444 18.9512 103.333 19.1963 103.243C19.3102 103.197 19.4641 103.167 19.5781 103.202C19.9713 103.313 20.3987 103.394 20.7292 103.596C21.2762 103.918 21.7948 104.296 22.2735 104.7C24.5871 106.655 26.5588 108.868 28.3595 111.207C29.8069 113.088 31.0492 115.064 31.7957 117.256C31.8299 117.347 31.8869 117.433 31.9496 117.544C32.2744 117.463 32.5707 117.388 32.8842 117.312C32.8386 117.211 32.8272 117.156 32.793 117.12C31.7558 115.885 31.2259 114.444 30.7073 113.002C29.6816 110.139 28.7185 107.265 27.9378 104.342C27.1058 101.226 26.1884 98.1262 25.3507 95.0109C24.7466 92.7627 24.211 90.4943 23.6468 88.2359C23.5841 87.9789 23.5443 87.7218 23.4759 87.4042C23.2764 87.5302 23.1283 87.6008 23.0086 87.7016C22.5698 88.0797 22.2279 88.5081 22.0285 89.0324C21.3047 90.8975 21.225 90.958 19.3444 91.8956C17.6919 92.7224 15.9538 93.4079 14.1645 93.9725C12.1016 94.6228 10.1071 95.3789 8.38046 96.6139C7.73652 97.0727 6.99001 97.4255 6.272 97.8086C5.8788 98.0304 5.44572 98.1313 5.02972 97.7381ZM69.7594 40.3977C68.2094 40.312 66.6765 40.2968 65.1891 40.6598C64.8643 40.196 64.8928 39.8079 65.2917 39.5205C65.5368 39.3441 65.816 39.1677 66.118 39.087C66.836 38.8803 67.5768 38.7291 68.3005 38.5527C68.3689 38.5376 68.4259 38.4972 68.5171 38.4569C68.4316 38.3006 68.3575 38.1746 68.2721 38.0234C67.4857 38.1746 66.7164 38.2855 65.9755 38.472C62.4026 39.3693 58.7327 39.5558 55.0514 39.6415C53.3989 39.6818 51.7634 39.4953 50.1393 39.2181C48.7432 38.9761 47.347 38.7392 46.0307 38.2351C45.968 38.2099 45.8882 38.2149 45.8027 38.2049C45.3298 38.7997 44.8625 39.3794 44.4123 39.949C44.6516 40.1204 44.8397 40.2565 45.0733 40.4229C44.8853 40.5993 44.7599 40.7707 44.5832 40.8765C44.2356 41.0782 43.8823 41.3 43.4948 41.4109C42.9364 41.5722 42.4634 41.799 42.1215 42.2275C42.0987 42.2527 42.0702 42.2779 42.0417 42.2981C40.7253 43.3869 39.409 44.4808 38.0983 45.5696C38.0242 45.6352 37.9558 45.7057 37.7963 45.857C38.2693 45.7864 38.6169 45.7309 38.9702 45.6755C40.2695 45.4839 41.5744 45.3882 42.868 45.6402C44.002 45.862 45.022 46.2905 45.8312 47.0517C46.0079 47.218 46.1845 47.4146 46.2757 47.6263C46.3327 47.7725 46.2814 47.9943 46.1902 48.1304C46.1446 48.1959 45.8825 48.1808 45.7344 48.1556C45.552 48.1254 45.3754 48.0447 45.1987 47.9893C44.0761 47.6314 42.9136 47.4902 41.7283 47.5557C40.0643 47.6414 38.4744 48.0296 36.9415 48.5891C35.9101 48.9672 34.9128 49.4209 33.9156 49.8746C33.4654 50.0762 33.0836 50.051 32.6904 49.8141C32.508 49.6981 32.3314 49.5721 32.1263 49.436C30.3141 50.4089 28.4849 51.3616 26.3251 51.6792C26.3878 51.896 26.422 52.0422 26.4676 52.1833C27.197 54.2299 28.2455 56.1404 29.6816 57.8795C30.3654 58.7063 31.0663 59.5229 31.7444 60.3496C32.4682 61.2368 32.9013 62.2299 33.0494 63.3187C33.1691 64.1807 33.2489 65.0528 33.4198 65.9097C33.9555 68.6822 35.0781 71.2783 36.6509 73.7131C38.4972 76.5813 41.016 78.9405 43.9507 80.9619C45.8996 82.3028 48.0138 83.3714 50.4014 83.9764C52.3218 84.4653 54.1853 84.3696 55.9746 83.5328C57.2112 82.9581 58.1913 82.1163 59.0119 81.1434C61.77 77.8869 64.0437 74.3936 65.5197 70.5171C66.0211 69.1964 66.5625 67.8908 67.0697 66.5701C67.6053 65.1838 68.6539 64.1555 70.0329 63.4245C71.2182 62.7944 72.4719 62.2702 73.7312 61.7661C75.4636 61.0755 77.1675 60.3446 78.6833 59.3112C80.5068 58.0661 82.1822 56.6798 83.7151 55.1625C84.8035 54.0837 85.8121 52.9495 86.6897 51.7296C86.8037 51.5683 86.9063 51.3969 87.0259 51.2104C83.4359 50.3333 80.239 48.8916 77.2188 47.0668C76.7971 47.4096 76.4381 47.2735 76.005 47.0315C75.2072 46.5829 74.3866 46.1493 73.5318 45.8015C72.0388 45.1966 70.4717 44.9546 68.8191 45.1865C67.3774 45.3882 66.0439 45.8519 64.739 46.4064C63.7303 46.8349 62.7217 47.2634 61.8498 47.9086C61.6618 48.0447 61.4794 48.1859 61.3027 48.3169C60.6759 47.8985 60.5676 47.4801 60.9551 46.9609C61.109 46.7492 61.2913 46.5526 61.4851 46.3711C62.4083 45.5293 63.5195 44.9143 64.6478 44.3296C66.7334 43.2508 68.973 42.6358 71.4062 42.6207C71.4689 42.6207 71.5373 42.5955 71.6513 42.5753C71.0016 41.8343 70.3919 41.1336 69.7594 40.3977ZM40.8507 33.3C40.9647 33.3504 41.0387 33.4059 41.1242 33.421C41.5345 33.4966 41.9391 33.5672 42.3494 33.6327C44.9366 34.031 47.5522 34.0612 50.1621 34.1217C50.7092 34.1318 51.2619 34.0864 51.809 34.0562C53.2849 33.9755 54.7665 33.9503 56.231 33.7991C58.6358 33.5521 61.0349 33.2446 63.4283 32.922C65.8103 32.5993 68.1695 32.1709 70.4318 31.4198C72.5061 30.7342 74.5746 30.0285 76.6489 29.3278C77.0934 27.5685 77.4068 25.7992 77.5721 24.0096C77.3612 23.8836 77.1675 23.7778 76.9851 23.6568C76.7857 23.5257 76.5805 23.3997 76.4096 23.2485C75.9309 22.82 75.9822 22.5931 76.5862 22.3512C76.7059 22.3008 76.8369 22.2705 76.9566 22.2302C77.3612 22.1042 77.8114 22.084 78.159 21.8219C78.2274 21.7715 78.3927 21.7563 78.4838 21.7916C79.1563 22.0235 79.6064 21.7211 80.0395 21.3329C80.3074 21.0909 80.4669 20.8591 80.3131 20.4911C80.1421 20.0777 80.3188 19.8509 80.7917 19.7501C81.1051 19.6845 81.4186 19.624 81.732 19.5837C82.2904 19.5031 82.8432 19.4678 83.3276 19.1401C84.4673 18.3688 85.3676 17.4363 85.966 16.2869C86.3592 15.5258 86.5473 14.7293 86.2794 13.8875C86.1199 13.3884 85.8235 13.0104 85.248 12.8289C84.8491 12.7029 84.6439 12.4458 84.6439 12.0627C84.6439 12.0173 84.6325 11.9669 84.6325 11.9266C84.4958 11.9215 84.3647 11.9165 84.2279 11.9064C84.2279 11.8106 84.2052 11.7401 84.2337 11.6846C84.6667 10.5958 85.0542 9.4918 85.6355 8.44833C85.9147 7.94424 86.0971 7.3847 86.2167 6.8302C86.3307 6.29082 86.1768 5.7716 85.721 5.34313C84.9688 4.63236 84.0114 4.28453 82.9458 4.20892C80.6778 4.04761 78.7687 4.85417 77.025 6.04382C76.8996 6.12952 76.8198 6.32611 76.8141 6.47733C76.7971 6.89573 76.609 7.25868 76.3982 7.61658C76.3241 7.73757 76.1816 7.82326 76.062 7.92912C75.2642 7.51072 74.9336 6.8806 74.7912 6.17487C74.5404 4.9701 73.8509 4.02241 72.6998 3.35701C71.0643 2.40427 69.2579 2.17743 67.3546 2.45468C66.1066 2.63616 64.9498 3.05456 63.85 3.59897C62.5507 4.23917 61.3256 4.96506 60.2656 5.89258C60.1232 6.01357 59.9693 6.18495 59.9522 6.34626C59.8895 6.96126 59.5476 7.48048 59.2798 8.0249C59.2228 8.14084 59.1145 8.25174 59.0062 8.34248C58.8524 8.47354 58.6472 8.49874 58.4877 8.37272C58.1799 8.13076 57.8779 7.87871 57.6044 7.60146C57.3822 7.37462 57.2112 7.10745 57.0174 6.86045C56.6755 6.42189 56.2253 6.1043 55.6783 5.87746C53.6325 5.05075 51.507 4.79367 49.2959 5.15662C46.2814 5.65063 44.0533 7.1629 42.3665 9.36578C42.1557 9.63799 42.1101 9.92028 42.1728 10.2278C42.2753 10.7419 42.4178 11.246 42.7711 11.6796C43.0389 12.0173 43.1073 12.3853 42.9706 12.7785C42.8623 13.0961 42.7483 13.4086 42.6059 13.7161C42.4577 14.0387 42.3095 14.3664 42.1101 14.6688C41.9106 14.9713 41.6884 15.0015 41.2895 14.8957C40.8906 14.7898 40.4917 14.689 40.0814 14.6083C38.4516 14.2857 37.0099 14.6083 35.7334 15.5711C34.947 16.166 34.2917 16.8515 33.7389 17.6278C33.4768 17.9908 33.397 18.384 33.5281 18.7822C33.6876 19.2611 33.8757 19.74 34.1207 20.1886C34.6564 21.1716 35.4428 21.9882 36.4115 22.6587C37.4772 23.3946 38.6853 23.44 39.8421 22.825C40.0472 22.7192 40.2638 22.6335 40.4632 22.5427C40.8792 22.7948 40.9875 23.1224 40.9704 23.5156C40.9362 24.3877 40.8963 25.2598 40.8963 26.1319C40.902 27.3215 40.9419 28.5112 40.9647 29.7008C40.9761 30.336 40.9761 30.9762 41.2724 31.5761C41.318 31.6617 41.3009 31.7726 41.3066 31.8735C41.3465 32.3776 41.1869 32.8464 40.8507 33.3ZM70.3178 37.5747C70.4147 37.6756 70.4831 37.7512 70.5629 37.8268C72.1755 39.3441 73.9307 40.7303 75.7713 42.0259C78.7915 44.1531 82.0511 45.9175 85.7837 46.8853C87.6357 47.3642 89.5219 47.7423 91.3967 48.1556C91.5278 48.1859 91.6702 48.1607 91.7329 48.1607C91.7671 47.4045 91.7386 46.719 91.8412 46.0435C92.1204 44.2187 92.5649 42.414 92.6276 40.569C92.639 40.3069 92.6105 40.0498 92.5991 39.7726C89.6587 39.707 86.9461 39.0265 84.3077 38.1192C81.6522 37.2067 79.048 36.1935 76.78 34.6208C76.2215 34.9484 75.7086 35.2559 75.0761 35.629C75.2186 35.7046 75.3211 35.7449 75.4123 35.8054C77.1789 36.9698 78.9739 38.099 80.957 38.966C83.9373 40.2716 87.0202 41.3453 90.2912 41.9603C90.8211 42.0612 91.3055 42.2426 91.7329 42.53C91.8811 42.6257 92.0178 42.7568 92.109 42.8979C92.2743 43.1601 92.2173 43.3718 91.8982 43.4676C91.5335 43.5785 91.1289 43.6642 90.7471 43.6541C90.2969 43.639 89.8467 43.5381 89.4136 43.4272C84.1539 42.1166 79.407 39.944 75.247 36.7984C74.9051 36.5413 74.5803 36.2691 74.2783 36.0322C72.9449 36.5514 71.6627 37.0505 70.3178 37.5747ZM22.0285 49.2445C23.1511 48.9521 24.2167 48.6446 25.2937 48.3976C27.197 47.959 29.0092 47.3289 30.7586 46.5577C33.6193 45.2924 36.2862 43.7499 38.8391 42.0561C40.315 41.0782 41.7226 40.0297 42.9535 38.8148C43.3638 38.4065 43.7911 38.0032 44.0875 37.4941C43.5176 37.2219 42.9706 36.9597 42.4406 36.7027C42.3608 36.7531 42.3095 36.7783 42.2696 36.8136C41.0957 37.8621 39.7224 38.6787 38.2237 39.3038C36.7022 39.944 35.1408 40.5136 33.5737 41.0681C29.9323 42.3586 26.1713 43.15 22.2108 43.0088C22.1025 43.0038 21.9943 43.034 21.8575 43.0492C21.5384 45.1159 21.4472 47.1626 22.0285 49.2445ZM92.2002 37.1765C92.1375 36.9446 92.0976 36.7833 92.0463 36.627C91.4708 34.7014 90.2 33.1791 88.5076 31.9289C86.8664 30.714 84.9403 29.968 82.8888 29.479C81.7206 29.2018 80.5467 29.0354 79.3329 29.1262C79.2702 29.4891 79.2132 29.847 79.1506 30.2301C79.4754 30.3158 79.6463 30.4923 79.6463 30.7846C79.6463 30.8451 79.6919 30.9157 79.7375 30.9611C80.0395 31.2837 79.9313 31.5962 79.6919 31.8785C79.3158 32.3221 78.9226 32.7506 78.5237 33.1791C78.2502 33.4714 77.9482 33.7487 77.5892 34.0965C78.4154 34.4292 79.1676 34.777 79.954 35.0442C83.225 36.1482 86.5814 36.9598 90.0803 37.232C90.7585 37.2874 91.4594 37.2017 92.2002 37.1765ZM22.3134 41.0782C22.7123 41.058 23.0827 41.0227 23.4531 41.0177C25.3336 40.9975 27.2084 40.8513 29.0205 40.3977C31.1347 39.8684 33.2318 39.2735 35.3288 38.6888C36.8332 38.2704 38.2807 37.7209 39.6768 37.0706C40.2752 36.7934 40.8336 36.4708 41.3978 36.1129C40.6741 35.5937 40.013 35.1198 39.3349 34.6258C39.2608 34.6611 39.1582 34.7065 39.0614 34.7569C37.9274 35.3416 36.7592 35.8759 35.4998 36.1986C33.9897 36.5817 32.4625 36.9245 30.9353 37.2471C29.3511 37.5848 27.7384 37.8066 26.1029 37.847C25.3792 37.8671 24.6612 37.8671 23.9375 37.857C23.6468 37.852 23.4759 37.9377 23.379 38.1746C23.0371 39.0265 22.6895 39.8784 22.3533 40.7304C22.3134 40.8261 22.3248 40.932 22.3134 41.0782ZM38.2009 29.7361C34.5538 29.469 27.0318 32.9825 25.1 35.8255C25.2253 35.8608 25.345 35.9264 25.4647 35.9264C26.3194 35.9415 27.1742 36.002 28.0233 35.9415C29.3625 35.8507 30.6959 35.6945 32.0237 35.5332C34.1321 35.2761 36.2007 34.8678 38.1724 34.1469C38.3092 34.0965 38.4345 34.036 38.6112 33.9604C38.3605 33.547 38.1211 33.169 37.8989 32.7808C37.7165 32.4632 37.5968 32.1255 37.6823 31.7676C37.8419 31.1073 38.0242 30.4419 38.2009 29.7361ZM91.1859 50.1266C90.7927 50.1669 90.4393 50.2123 90.086 50.2274C89.7669 50.2426 89.5903 50.3585 89.4364 50.6156C88.9292 51.4625 88.4335 52.3144 87.8408 53.1108C85.4816 56.2614 82.5298 58.918 79.0879 61.1511C78.9397 61.2469 78.7915 61.3527 78.5636 61.509C79.236 61.6502 79.5096 62.0685 79.7774 62.492C79.8116 62.5525 79.8572 62.6079 79.9085 62.6533C80.4498 63.1675 80.8772 63.4195 81.6237 62.7844C82.8375 61.751 83.7607 60.5664 84.2222 59.1246C84.3362 58.7718 84.4445 58.4139 84.5642 58.061C84.8605 57.194 85.362 56.4429 86.1199 55.8128C86.9917 55.0919 87.8522 54.3559 88.6842 53.5948C89.4934 52.8638 90.2684 52.0976 90.8439 51.2003C91.0377 50.8979 91.22 50.5803 91.1859 50.1266ZM28.6046 63.853C28.5533 63.5405 28.5191 63.2935 28.4792 63.0465C28.2398 61.6653 27.8524 60.3294 26.9406 59.1498C26.8779 59.0692 26.7981 58.9986 26.6784 58.8777C26.8494 60.0119 26.781 60.5764 26.3992 61.6653C26.2682 62.0282 26.1371 62.4012 26.0915 62.7793C26.006 63.4548 26.2966 64.0295 26.8665 64.4831C27.1514 64.71 27.3053 64.7302 27.6244 64.5336C27.9549 64.3269 28.274 64.0849 28.6046 63.853ZM24.9461 56.5185C24.9917 56.4933 25.043 56.4731 25.0886 56.4479C24.3535 55.1575 23.681 53.8468 23.4531 52.2992C23.0941 52.5513 22.8262 52.7277 22.5755 52.9294C22.3875 53.0806 22.3248 53.2621 22.3932 53.5141C22.5242 53.9779 22.7294 54.4114 23.0827 54.7643C23.681 55.3692 24.325 55.9337 24.9461 56.5185ZM22.1766 49.8393C22.2393 50.3535 22.302 50.8324 22.359 51.3012C23.0371 51.2104 23.6468 51.1247 24.2794 51.039C24.2167 50.7315 24.154 50.424 24.0856 50.1115C23.4531 50.0208 22.8604 49.9351 22.1766 49.8393Z" fill="#AF9350"/>
    <path d="M99.8535 166.753C99.5686 168.407 98.4403 169.526 97.1752 170.564C96.9701 170.736 96.7421 170.892 96.5142 171.038C96.2121 171.224 95.8816 171.32 95.4998 171.315C95.1636 171.31 94.8217 171.34 94.4798 171.381C93.5851 171.487 92.8956 171.144 92.303 170.609C91.9895 170.327 92.0636 170.156 92.3884 169.853C93.152 169.138 94.1037 169.218 95.044 169.344C95.4998 169.41 95.8759 169.359 96.2179 169.117C96.7649 168.729 97.3063 168.336 97.8248 167.918C98.0243 167.756 98.161 167.53 98.3092 167.293C97.6881 167.449 97.3519 167.041 96.9416 166.809C96.6566 166.647 96.423 165.72 96.594 165.463C96.6737 165.342 96.8162 165.226 96.9644 165.17C97.6254 164.918 98.2864 164.671 98.9588 164.45C99.4717 164.283 100.013 164.172 100.532 164.021C100.685 163.976 100.834 163.885 100.959 163.789C103.466 161.853 105.193 159.464 106.196 156.666C107.068 154.232 107.712 151.756 108.076 149.221C108.396 147.003 108.447 144.77 108.356 142.542C108.259 140.268 108.002 138 107.621 135.747C107.148 132.934 106.68 130.116 106.259 127.293C106.019 125.665 105.888 124.031 105.837 122.383C105.803 121.193 105.843 120.004 105.911 118.819C106.025 116.813 106.219 114.807 106.618 112.831C107.438 108.773 108.339 104.73 109.142 100.672C109.473 99.0084 109.672 97.3247 109.877 95.641C110.008 94.5421 110.037 93.4331 110.117 92.3342C110.139 92.0166 110.168 91.699 110.219 91.3865C110.259 91.1042 110.447 90.9731 110.755 90.9782C111.023 90.9832 111.165 91.0991 111.194 91.4016C111.256 92.0368 111.325 92.6719 111.33 93.3071C111.342 94.5824 111.365 95.8628 111.285 97.1331C111.182 98.7361 111 100.334 110.812 101.932C110.635 103.414 110.396 104.886 110.179 106.363C109.929 108.092 109.655 109.816 109.433 111.545C109.262 112.841 109.114 114.141 109.028 115.447C108.92 117.12 108.834 118.799 108.846 120.473C108.857 122.232 109.017 123.986 109.33 125.725C109.934 129.082 110.595 132.43 111.165 135.792C111.45 137.46 111.592 139.149 111.798 140.833C112.003 142.522 112.031 144.215 111.974 145.909C111.872 148.797 111.416 151.641 110.567 154.443C109.843 156.833 108.971 159.167 107.638 161.349C106.487 163.23 105.062 164.908 103.073 166.168C102.691 166.41 102.287 166.531 101.808 166.547C101.164 166.577 100.509 166.683 99.8535 166.753Z" fill="#AF9350"/>
    <path d="M75.1957 148.223C76.3981 147.794 77.686 147.346 78.9682 146.887C81.1507 146.101 83.4244 145.803 85.7665 145.95C86.8037 146.015 87.8237 146.212 88.8551 146.358C89.3224 146.423 89.7783 146.544 90.2456 146.6C90.6616 146.65 90.9636 146.812 91.1288 147.149C91.2941 147.482 91.4423 147.825 91.6018 148.183C92.1261 148.268 92.1603 148.324 92.2002 148.858C92.2686 149.73 92.0805 150.547 91.6816 151.353C90.7755 153.183 89.9436 155.033 89.3224 156.959C88.7811 158.643 88.479 160.361 88.1998 162.085C87.9776 163.462 87.7211 164.833 87.4875 166.209C87.2709 167.449 87.0145 168.689 87.0601 169.954C87.0601 170.02 87.0373 170.085 87.0202 170.146C86.5586 170.186 86.4105 170.09 86.2452 169.682C85.9033 168.825 85.8748 167.938 85.9774 167.046C86.1768 165.332 86.4561 163.623 86.6213 161.904C86.9632 158.401 87.8522 155.023 89.3965 151.787C89.613 151.328 89.8125 150.859 90.0176 150.396C89.9664 150.355 89.9379 150.32 89.9094 150.31C88.6842 149.962 87.4704 149.574 86.2281 149.282C84.9459 148.979 83.6296 148.903 82.2904 148.974C80.3301 149.085 78.4382 149.524 76.5121 149.771C75.948 149.841 75.3895 149.947 74.8253 149.992C74.4549 150.023 74.1643 150.154 73.9364 150.38C73.4634 150.849 72.8708 151.121 72.2154 151.318C70.3919 151.863 68.7165 152.689 67.0525 153.531C64.5623 154.781 62.0891 156.062 59.6103 157.332C59.4963 157.387 59.3994 157.463 59.3196 157.508C60.5676 158.315 61.8213 159.101 63.0408 159.923C63.9924 160.563 64.8985 161.254 65.8331 161.909C68.2207 163.583 70.8535 164.863 73.754 165.69C75.9935 166.325 78.2331 166.95 80.5011 167.504C81.5553 167.762 82.6608 167.832 83.7435 167.983C84.0627 168.029 84.3818 168.049 84.7009 168.104C85.1739 168.19 85.4645 168.644 85.2822 169.027C85.2423 169.118 85.1055 169.208 84.9972 169.239C84.1026 169.47 83.1965 169.632 82.2619 169.672C80.9228 169.722 79.6121 169.561 78.3186 169.299C76.4323 168.921 74.5404 168.573 72.6713 168.13C69.6511 167.409 66.9215 166.138 64.4141 164.495C62.8128 163.447 61.2172 162.388 59.5989 161.365C58.7669 160.84 57.8779 160.382 57.0345 159.873C56.647 159.641 56.2937 159.363 55.9119 159.096C55.0001 159.419 54.0827 159.787 53.1367 160.074C50.7661 160.79 48.3728 161.43 45.8882 161.768C45.0961 161.879 44.2983 161.874 43.5575 161.526C43.2498 161.38 42.9819 161.203 42.9136 160.866C42.8623 160.603 42.9535 160.477 43.2213 160.548C44.2584 160.825 45.2101 160.533 46.1617 160.246C51.2733 158.718 55.9575 156.475 60.3454 153.707C63.1149 151.963 66.0211 150.406 68.9957 148.949C69.7252 148.591 70.5172 148.349 71.2752 148.041C72.147 147.689 73.0474 147.739 73.9478 147.9C74.3524 147.976 74.7399 148.102 75.1957 148.223Z" fill="#AF9350"/>
    <path d="M71.9532 113.819C71.7766 114.288 71.6113 114.762 71.4233 115.226C71.3492 115.412 71.2409 115.594 71.127 115.77C70.8591 116.183 70.5058 116.294 69.9816 116.168C68.9216 115.911 67.8731 115.609 66.7961 115.437C65.7931 115.276 64.7674 115.2 63.7474 115.185C61.4338 115.15 59.1144 115.18 56.7951 115.175C54.4644 115.17 52.1281 115.17 49.7974 115.13C48.8913 115.115 47.9909 114.984 47.0849 114.903C46.7828 114.878 46.5435 114.772 46.4238 114.5C46.3213 114.253 46.3383 114.142 46.629 114.081C47.2387 113.96 47.8542 113.849 48.4696 113.784C51.2106 113.497 53.9573 113.214 56.704 112.947C58.5446 112.766 60.3909 112.599 62.2373 112.448C63.4795 112.342 64.7275 112.201 65.9698 112.196C67.5426 112.191 69.1154 112.307 70.6255 112.73C70.9617 112.826 71.2808 112.992 71.5942 113.134C71.9191 113.275 71.8735 113.547 71.9532 113.819Z" fill="#AF9350"/>
    <path d="M41.7853 115.502C41.7568 116.238 41.4434 117.04 40.8907 117.761C40.7368 117.957 40.4975 118.129 40.2524 118.229C40.0986 118.295 39.8194 118.275 39.6769 118.184C38.6113 117.524 38.0357 116.591 37.8534 115.467C37.7622 114.923 38.0414 114.6 38.6284 114.484C39.1242 114.383 39.6256 114.308 40.1214 114.207C40.4006 114.151 40.6456 114.177 40.8565 114.358C40.9192 114.413 41.0103 114.454 41.0958 114.479C41.7284 114.696 41.7853 114.766 41.7853 115.502Z" fill="#AF9350"/>
    <path d="M42.5888 117.957C43.0162 117.907 43.2897 118.204 43.6317 118.315C43.7057 118.34 43.7513 118.522 43.7456 118.628C43.7285 118.875 43.7114 119.132 43.6202 119.369C43.4949 119.712 43.3011 120.039 43.1473 120.377C42.9421 120.816 42.5318 120.997 42.0475 121.083C41.9164 121.108 41.734 121.078 41.6201 121.017C40.8622 120.609 40.5032 119.943 40.2467 119.238C40.0986 118.829 40.3208 118.492 40.7824 118.366C41.3807 118.204 41.9905 118.093 42.5888 117.957Z" fill="#AF9350"/>
    <path d="M76.8142 118.089C76.7116 118.754 76.4609 119.384 76.0221 119.934C75.7486 120.281 75.4921 120.286 75.116 120.034C74.512 119.631 74.227 119.046 74.0276 118.436C73.8908 118.013 74.2897 117.448 74.7741 117.343C75.2813 117.232 75.7828 117.065 76.3127 117.327C76.666 117.499 76.8769 117.711 76.8142 118.089Z" fill="#AF9350"/>
    <path d="M47.5351 60.5409C48.0252 60.062 48.5153 59.573 49.0168 59.0992C49.6949 58.4439 50.4129 57.8188 51.0568 57.1382C51.6267 56.5333 52.396 56.3619 53.1938 56.2057C53.3932 56.1653 53.5984 56.1301 53.8035 56.12C53.9289 56.1099 54.0657 56.1301 54.1853 56.1704C54.3905 56.246 54.5956 56.3267 54.7666 56.4476C54.8862 56.5283 55.023 56.6745 55.023 56.7904C55.0173 57.1231 55.0116 57.4709 54.8919 57.7784C54.5899 58.5497 54.2138 59.2806 53.5984 59.9259C51.8945 61.7053 50.2533 63.5301 48.5666 65.3247C48.1449 65.7733 47.6548 66.1766 47.1818 66.5849C47.0223 66.721 46.8228 66.8319 46.6234 66.9277C45.9225 67.2755 45.7515 67.2453 45.1019 66.8168C43.985 66.0859 43.4493 65.0474 43.153 63.9082C42.9535 63.1269 43.1929 62.3405 43.3695 61.5692C44.0419 58.6354 45.2671 55.878 46.7829 53.2164C47.9967 51.0891 49.2732 48.9921 50.5212 46.88C51.2278 45.6853 51.7748 44.4402 52.0313 43.0993C52.1965 42.2323 52.2079 41.3703 51.9914 40.5083C51.9401 40.3117 51.7862 40.0798 52.1111 39.9336C52.4074 39.8025 52.7778 39.863 52.9886 40.1C53.1254 40.2562 53.2451 40.4327 53.3363 40.6192C53.8263 41.6475 53.9232 42.7212 53.8377 43.8252C53.6611 46.0432 52.698 48.0545 51.7692 50.0709C50.7092 52.3897 49.6265 54.6984 48.5951 57.0223C48.0936 58.1414 47.7118 59.3008 47.5351 60.5409Z" fill="#AF9350"/>
    <path d="M59.1088 70.6536C59.2855 70.7696 59.4906 70.9006 59.7129 71.0418C59.4108 71.6265 59.0233 72.055 58.3509 72.2213C57.348 72.4683 56.3564 72.7557 55.3364 72.9271C53.9915 73.159 52.6239 73.1589 51.2562 73.1287C50.0994 73.1035 48.9426 73.0632 47.7858 73.0329C47.0792 73.0128 46.384 72.9472 45.7344 72.6901C45.5805 72.6297 45.4209 72.554 45.2956 72.4583C45.2101 72.3927 45.1189 72.2617 45.136 72.1861C45.1588 72.0953 45.2956 72.0096 45.4039 71.9643C45.5007 71.9239 45.6318 71.934 45.7401 71.9491C46.7259 72.1205 47.7061 71.9391 48.6862 71.9038C49.8031 71.8634 50.9143 71.7929 52.0255 71.7072C53.8548 71.5711 55.6954 71.4854 57.422 70.8452C57.4847 70.82 57.5531 70.8048 57.6386 70.7796C57.593 70.7343 57.5702 70.6939 57.5531 70.6939C56.6072 70.6536 55.6612 70.6234 54.7152 70.573C54.0656 70.5377 53.4673 70.7191 52.9031 70.9409C52.111 71.2535 51.3474 71.2434 50.5268 71.0619C49.7974 70.9006 49.0395 70.7695 48.2873 70.7443C47.6947 70.7242 47.0849 70.8502 46.498 70.9712C45.666 71.1375 44.8568 71.3946 44.0248 71.5307C43.5575 71.6063 43.0504 71.5307 42.566 71.4803C42.2811 71.4501 42.1272 71.2484 42.0759 70.9863C42.0132 70.6284 42.0588 70.5528 42.4805 70.4973C43.5518 70.3512 44.4864 69.9126 45.421 69.4589C46.2244 69.0708 47.0507 68.7129 47.9796 68.6725C48.6748 68.6423 49.3757 68.7078 50.0709 68.7431C50.316 68.7532 50.5724 68.7683 50.8004 68.8389C51.4956 69.0405 52.1737 68.98 52.8575 68.7834C53.6496 68.5566 54.4531 68.5516 55.2737 68.6625C55.6669 68.7129 56.0715 68.6877 56.4647 68.6877C57.3594 68.6877 58.2483 68.7179 59.1202 68.8943C59.2285 68.9145 59.3425 68.9397 59.445 68.98C60.0833 69.2321 60.1687 69.5547 59.7129 70.0285C59.5191 70.2403 59.3197 70.4419 59.1088 70.6536Z" fill="#AF9350"/>
    <path d="M72.9334 21.9175C72.8594 21.9931 72.8024 22.0838 72.7226 22.1393C71.3663 23.0063 70.0101 23.8633 68.3917 24.322C66.8531 24.7606 65.2746 25.0277 63.6505 25.063C62.1518 25.0933 60.6531 25.1437 59.1601 25.1235C57.6443 25.1033 56.1342 25.0177 54.6184 24.9471C53.4274 24.8916 52.2307 24.8664 51.0511 24.7354C49.1934 24.5287 47.347 24.2514 45.5007 23.9843C44.7542 23.8734 44.0191 23.702 43.2783 23.5558C43.1472 23.5306 43.0219 23.4953 42.8965 23.4499C42.6344 23.3541 42.5033 23.1525 42.5432 22.9408C42.5888 22.7139 42.811 22.7039 42.982 22.6938C43.4549 22.6635 43.9279 22.6635 44.4009 22.6787C44.9878 22.6938 45.5748 22.7291 46.1617 22.7694C50.6693 23.0668 55.1825 22.9912 59.6958 22.9458C60.8868 22.9307 62.0834 22.9105 63.2744 22.8349C64.8643 22.7291 66.4314 22.5022 67.9643 22.0939C69.2864 21.7411 70.6369 21.6352 72.0103 21.6705C72.4035 21.6705 72.5573 21.7209 72.9334 21.9175Z" fill="#AF9350"/>
</svg>